<svg width="59" height="64" viewBox="0 0 59 64" fill="none" xmlns="http://www.w3.org/2000/svg">
<path fill-rule="evenodd" clip-rule="evenodd" d="M57.6207 1.9978L57.6206 1.99779C57.5808 1.96573 57.5392 1.93231 57.4954 1.89658C57.7068 1.50131 57.7039 1.39254 57.4046 1.17629L57.3854 1.16237C57.2414 1.05795 57.0884 0.947014 56.8757 0.965218C56.7725 0.974123 56.6678 0.964156 56.563 0.954176C56.4631 0.944662 56.363 0.935135 56.264 0.941934C55.8556 0.970282 55.46 1.04968 55.1477 1.35037C55.0474 1.44703 54.9423 1.53872 54.8334 1.6337L54.8334 1.63371C54.7831 1.67761 54.732 1.72221 54.6802 1.76832L54.671 1.93556C54.6699 1.95583 54.6689 1.97613 54.668 1.99643L54.668 1.99646L54.668 1.99646L54.668 1.99647L54.668 1.99647L54.668 1.99647L54.668 1.99648L54.668 1.99648L54.668 1.99649L54.668 1.99649L54.668 1.9965L54.668 1.9965L54.668 1.99651L54.668 1.99651L54.668 1.99652L54.668 1.99652L54.668 1.99653L54.668 1.99653L54.668 1.99653L54.668 1.99654L54.668 1.99654L54.668 1.99655L54.668 1.99655C54.6662 2.03713 54.6643 2.07773 54.6609 2.11819C54.6344 2.4337 54.6334 2.43396 54.2493 2.53905L54.2404 2.54149C54.2044 2.5513 54.1682 2.57103 54.1326 2.59039C54.0788 2.6197 54.0266 2.64815 53.9791 2.64009C53.6977 2.59206 53.5454 2.74752 53.3998 2.94038L54.0909 3.19354L54.0681 3.28218L53.3879 3.2447C53.2683 3.66048 53.5443 3.7172 53.8018 3.77011L53.8495 3.78001C53.721 4.02706 53.6914 4.22191 53.9345 4.35798C54.1301 4.46743 54.039 4.54654 53.9462 4.62721C53.9335 4.6383 53.9207 4.64941 53.9086 4.66065C54.2711 4.92844 54.715 5.06442 55.1661 5.04583C55.5166 5.04525 55.867 5.06869 56.2175 5.09213C56.3979 5.1042 56.5784 5.11626 56.7589 5.12506C56.8643 5.12536 56.9696 5.12035 57.0744 5.11005L57.0751 5.04731L56.4881 4.95583C56.6425 4.8958 56.8092 4.87401 56.974 4.89233C57.1321 4.89773 57.2905 4.89101 57.4476 4.87222C57.5906 4.84031 57.7313 4.7986 57.8686 4.74739L57.5904 4.63401C57.9813 4.44692 57.9812 4.44637 57.9087 4.0562L57.9081 4.05312C57.8983 3.99972 57.884 3.91418 57.9105 3.89279C58.0571 3.77632 58.0306 3.68961 57.9352 3.54134C57.9129 3.50667 57.9439 3.44438 57.9781 3.37575C58.0097 3.31248 58.0439 3.24383 58.0415 3.18648C58.0272 3.03633 57.9798 2.89113 57.9026 2.76124C57.8554 2.67491 57.8962 2.60915 57.9358 2.5451C57.9724 2.48603 58.0081 2.42841 57.9731 2.35745C57.9507 2.30376 57.9186 2.25463 57.8784 2.21248C57.7982 2.1405 57.7141 2.07291 57.6207 1.99782L57.6207 1.99781L57.6207 1.99781L57.6207 1.9978L57.6207 1.9978L57.6207 1.9978ZM51.3672 13.2096C51.3488 13.1378 51.4004 13.0479 51.5019 12.8713C51.452 12.8332 51.4128 12.7841 51.3732 12.7344C51.2887 12.6286 51.2026 12.5208 51.0085 12.5133C50.7536 12.4995 50.5029 12.5815 50.3062 12.7429C50.2833 12.7608 50.2586 12.7784 50.2337 12.7961L50.2337 12.7961C50.1538 12.853 50.0714 12.9116 50.0388 12.989C49.9432 13.2156 49.7648 13.3576 49.5868 13.4991C49.5003 13.568 49.4139 13.6367 49.3372 13.7151C49.0649 13.9926 48.6875 14.0714 48.3295 14.0776C47.4604 14.0929 46.7575 14.5104 46.0551 14.9275L45.9982 14.9613C45.771 15.0965 45.718 15.3438 45.6642 15.5948L45.6642 15.5949L45.6642 15.5949L45.6642 15.595L45.6642 15.595L45.6642 15.5951L45.6642 15.5951L45.6641 15.5952L45.6641 15.5952L45.6641 15.5952L45.6641 15.5952L45.6641 15.5952C45.655 15.638 45.6458 15.6808 45.6357 15.7232L45.6308 15.7441C45.5212 16.2057 45.4954 16.3142 45.8253 16.5106L45.8616 16.5321C46.0694 16.6547 46.2048 16.7345 45.9668 16.9758C45.9486 16.9937 45.9938 17.0792 46.0288 17.1454L46.046 17.1782C46.0598 17.2051 46.0841 17.2375 46.1064 17.2673L46.1064 17.2673L46.1064 17.2673C46.1364 17.3074 46.1627 17.3425 46.1549 17.3524C45.9615 17.592 46.1968 17.6242 46.3147 17.6403L46.3206 17.6412C46.3604 17.6466 46.4005 17.6525 46.4408 17.6583L46.4409 17.6583L46.4409 17.6583L46.4409 17.6584L46.4411 17.6584L46.4412 17.6584C46.7077 17.6972 46.9836 17.7373 47.2345 17.6834C47.3229 17.6643 47.4152 17.6538 47.5079 17.6432L47.508 17.6432C47.7403 17.6168 47.9756 17.5901 48.1598 17.4276C48.2712 17.3108 48.4331 17.2555 48.5934 17.2796C48.6695 17.2765 48.743 17.2517 48.8054 17.2082C48.8493 17.1845 48.8934 17.1611 48.9375 17.1376L48.9385 17.1371L48.9385 17.1371L48.9385 17.1371L48.9385 17.1371L48.9385 17.1371L48.9385 17.1371L48.9386 17.1371L48.9386 17.1371L48.9386 17.1371L48.9386 17.137L48.9386 17.137L48.9386 17.137L48.9387 17.137L48.9387 17.137L48.9387 17.137L48.9387 17.137L48.9387 17.137L48.9388 17.137L48.9388 17.137L48.9388 17.1369L48.9388 17.1369L48.9388 17.1369L48.9388 17.1369L48.9389 17.1369L48.9389 17.1369C49.1313 17.0346 49.3239 16.9321 49.5061 16.8141C49.6285 16.7348 49.7453 16.6471 49.8621 16.5594L49.8621 16.5594L49.8621 16.5594L49.8621 16.5594L49.8621 16.5593L49.8621 16.5593L49.8621 16.5593L49.8621 16.5593L49.8621 16.5593L49.8621 16.5593L49.8621 16.5593L49.8621 16.5593L49.8621 16.5593L49.8621 16.5593L49.8622 16.5593L49.8622 16.5593L49.8622 16.5593L49.8622 16.5593L49.8622 16.5593L49.8622 16.5593L49.8622 16.5593L49.8622 16.5593L49.8622 16.5593L49.8623 16.5592L49.8623 16.5592C49.9818 16.4694 50.1012 16.3797 50.2266 16.299C50.4036 16.185 50.5704 16.0555 50.7351 15.9278L50.8331 15.8519C50.8704 15.8232 50.9086 15.7948 50.947 15.7663L50.947 15.7663C51.2063 15.5736 51.4738 15.3749 51.5449 15.0101C51.6082 14.752 51.6855 14.4974 51.7764 14.2476C51.6418 14.1004 51.6605 13.9331 51.6792 13.7664C51.6911 13.6594 51.7031 13.5526 51.6743 13.4517C51.4812 13.3393 51.3864 13.2842 51.3672 13.2096ZM8.85693 56.103C9.38662 56.216 9.85157 56.4376 10.1561 56.8717C10.2504 56.8655 10.3367 56.8583 10.4176 56.8516L10.4177 56.8516C10.579 56.8383 10.7187 56.8267 10.8578 56.8276C11.1314 56.8303 11.4131 56.7712 11.4955 56.5136C11.5938 56.2063 11.7254 56.0271 12.0603 56.0311C12.099 56.0266 12.1335 56.0048 12.1539 55.9718C12.3032 55.676 12.552 55.4793 12.8007 55.2826C12.9304 55.1801 13.0601 55.0775 13.1757 54.9609L13.2213 54.9151C13.4808 54.6549 13.4947 54.6409 13.487 54.1494C13.4854 54.0507 13.4762 53.952 13.4657 53.8387L13.4575 53.749L13.4543 53.7121L13.4499 53.6577C13.7109 53.4562 13.9844 53.2713 14.269 53.1042C14.3498 53.0617 14.4235 53.0039 14.4972 52.9459C14.6525 52.824 14.8084 52.7017 15.0334 52.7208C15.0681 52.5383 15.2042 52.4408 15.3277 52.3523C15.4081 52.2947 15.4831 52.241 15.5214 52.1701L15.4317 51.5441L15.0916 51.5253C15.1578 51.457 15.1965 51.4171 15.214 51.3992L15.0756 51.1606C14.1369 51.5329 13.2359 51.993 12.3847 52.5346C12.2583 52.6243 12.09 52.6301 11.9574 52.5493C12.0925 52.4683 12.223 52.3873 12.351 52.3077L12.3512 52.3076L12.3514 52.3075C12.6334 52.1323 12.9039 51.9643 13.1865 51.8201C13.5484 51.6356 13.9206 51.4711 14.2936 51.3062L14.2936 51.3062L14.2936 51.3062L14.2937 51.3061L14.2937 51.3061L14.2938 51.3061L14.2938 51.3061L14.2939 51.3061L14.2939 51.306L14.294 51.306L14.294 51.306L14.2941 51.306L14.2941 51.306L14.2942 51.3059L14.2942 51.3059L14.2943 51.3059L14.2943 51.3059L14.2944 51.3059L14.2944 51.3058L14.2944 51.3058L14.2945 51.3058L14.2945 51.3058L14.2946 51.3058L14.2946 51.3057L14.2947 51.3057C14.4559 51.2344 14.6173 51.1631 14.778 51.0901C14.5625 50.7491 14.5614 50.7495 14.2622 50.8601L14.2488 50.8651C13.3773 51.1873 12.5641 51.6305 11.7533 52.0724L11.5966 52.1577L11.481 52.2205L11.3829 52.2737C10.4666 52.7691 9.56583 53.3028 8.81969 54.0575C8.67392 54.2049 8.56989 54.3716 8.46605 54.538C8.41882 54.6137 8.37163 54.6893 8.32057 54.7631C8.26932 54.8635 8.27262 54.983 8.32936 55.0806C8.4387 55.1992 8.45872 55.3255 8.48024 55.4613L8.48425 55.4864L8.48883 55.5142C8.49084 55.5261 8.49295 55.5381 8.49522 55.5501L8.49849 55.567L8.50189 55.5843L8.50844 55.6187L8.50849 55.619C8.54538 55.8143 8.5891 56.0459 8.85693 56.103ZM26.3749 50.8758L26.3749 50.8758L26.375 50.8758C26.5863 50.6963 26.7875 50.5253 26.9664 50.3335C27.5771 49.6788 28.3641 49.3265 29.151 48.9743C29.3361 48.8914 29.5213 48.8085 29.7042 48.7217C30.0676 48.5493 30.456 48.5867 30.8398 48.6237C30.9115 48.6306 30.983 48.6375 31.0542 48.643C31.1075 48.647 31.157 48.7001 31.208 48.7549C31.2321 48.7808 31.2566 48.807 31.282 48.8286L31.275 48.8317C31.1011 48.9073 30.9372 48.9786 30.6995 49.0823L31.5377 49.1285C31.5623 49.1857 31.5831 49.2425 31.6031 49.2975C31.6468 49.4173 31.6873 49.5281 31.7578 49.6143C31.8561 49.7462 31.8751 49.9206 31.8075 50.0702C31.7737 50.1783 31.696 50.2729 31.6147 50.3718L31.6147 50.3719L31.6147 50.3719L31.6147 50.3719L31.6146 50.372L31.6146 50.372C31.5785 50.416 31.5417 50.4608 31.5077 50.5081C31.0729 50.3903 30.695 50.5423 30.2995 50.7343C30.3144 50.8038 30.3047 50.8764 30.2949 50.9503C30.2774 51.0822 30.2594 51.2182 30.3794 51.3476C30.4173 51.4203 30.4164 51.507 30.377 51.5789C30.3038 51.686 30.2377 51.7995 30.1716 51.9131C29.9585 52.2792 29.7449 52.646 29.291 52.802L29.2601 52.8124C29.1587 52.8466 29.0409 52.8864 28.9944 52.9614C28.9619 53.0138 28.9055 53.0216 28.8495 53.0294C28.7721 53.0401 28.6953 53.0508 28.6834 53.1792C28.672 53.3003 28.5881 53.2845 28.5029 53.2685C28.4601 53.2605 28.417 53.2524 28.3824 53.2614C28.2565 53.3028 28.1278 53.3352 27.9972 53.3583C27.8749 53.3631 27.7523 53.3578 27.6308 53.3424C27.2472 52.8706 26.7536 52.499 26.1928 52.2596L26.0712 51.138C26.1738 51.0467 26.2754 50.9603 26.3749 50.8758ZM50.6754 37.2119C50.6391 37.1519 50.6027 37.0923 50.5665 37.0331C50.4398 36.8256 50.3151 36.6214 50.2015 36.4115C50.1923 36.3946 50.2307 36.352 50.2791 36.2983C50.3048 36.2698 50.3334 36.2381 50.3591 36.2055C50.2616 36.1524 50.1682 36.0922 50.0796 36.0253C49.9923 35.9396 49.9094 35.8495 49.8314 35.7553L49.8089 35.7312C49.6469 35.5579 49.4862 35.386 49.758 35.158C49.7713 35.1468 49.7699 35.1196 49.7684 35.0911C49.7674 35.0734 49.7664 35.0551 49.769 35.0398C49.7808 34.968 49.786 34.8967 49.7912 34.8259C49.8066 34.6166 49.8217 34.4109 50.006 34.2061C50.0848 34.1186 50.1552 34.0206 50.2264 33.9214C50.3347 33.7704 50.445 33.6168 50.5899 33.4934C50.8031 33.2874 51.0448 33.1128 51.3078 32.975C51.7375 32.7798 52.1622 32.5875 52.6481 32.6921C52.7859 32.7435 52.917 32.8111 53.0386 32.8935L52.7055 33.2548C52.7951 33.2871 52.8892 33.3106 52.9843 33.3343C53.2355 33.397 53.4937 33.4615 53.6934 33.6948L53.3872 34.0587L53.8345 34.0834C53.8492 34.2097 53.8708 34.3328 53.8923 34.4547C53.9394 34.723 53.9854 34.985 53.9535 35.2605C53.9378 35.4732 53.8456 35.6731 53.6938 35.8237C53.6287 35.8844 53.5692 35.9502 53.5097 36.0162C53.3946 36.1436 53.279 36.2717 53.1208 36.364C53.0111 36.4279 52.9094 36.5055 52.8067 36.5838L52.8066 36.5838C52.7064 36.6603 52.6051 36.7376 52.4946 36.8034C52.2647 36.9399 52.0147 37.0138 51.765 37.0876L51.765 37.0876C51.6155 37.1318 51.4661 37.1759 51.3213 37.2334C51.1942 37.284 51.0372 37.2603 50.8818 37.2367C50.8117 37.2261 50.7419 37.2156 50.6754 37.2119ZM39.0445 10.6514L40.3618 10.724L40.395 10.6131C40.302 10.5806 40.2077 10.5378 40.1134 10.495C39.8994 10.3978 39.6853 10.3006 39.4864 10.3245C39.4034 10.3346 39.3187 10.3408 39.2332 10.347L39.2331 10.347C38.9615 10.3668 38.6819 10.3871 38.426 10.538C38.2751 10.627 38.1111 10.6957 37.9472 10.7643C37.5673 10.9234 37.188 11.0822 36.9741 11.4928C36.6716 11.5481 36.5536 11.7823 36.4404 12.0072L36.4404 12.0073L36.4403 12.0073C36.4099 12.0677 36.3799 12.1274 36.3466 12.1828C36.1316 12.5414 35.9204 12.9261 36.1782 13.3755C36.3498 13.6745 36.5073 13.9814 36.6631 14.2852L36.6632 14.2854L36.6632 14.2854L36.6632 14.2854L36.6632 14.2855L36.6632 14.2855L36.6633 14.2855L36.6633 14.2855L36.6633 14.2856L36.6633 14.2856L36.6633 14.2856L36.6633 14.2856L36.6633 14.2856L36.6633 14.2857L36.6633 14.2857L36.6633 14.2857L36.6634 14.2857L36.6634 14.2857L36.6634 14.2858L36.6634 14.2858C36.7314 14.4184 36.7991 14.5504 36.8676 14.6808C37.0619 14.6784 37.256 14.6907 37.4484 14.7178C37.8278 14.8015 38.1619 14.6467 38.4343 14.4583C38.5933 14.348 38.7854 14.2947 38.979 14.3071C39.1708 14.2194 39.2919 14.0805 39.4094 13.9458C39.5132 13.8268 39.6142 13.711 39.7587 13.6365C39.8996 13.5359 39.9868 13.3769 39.9955 13.2045C39.9954 13.1037 40.0116 13.002 40.0279 12.8999C40.0648 12.6688 40.102 12.4355 39.9514 12.2066C39.9284 12.1716 39.9582 12.1057 39.9902 12.0349C40.0124 11.9859 40.0356 11.9346 40.0433 11.8893C40.0493 11.8543 40.0318 11.8153 40.0087 11.7637C39.9964 11.7362 39.9825 11.7052 39.9696 11.6693C40.0899 11.6925 40.2131 11.6964 40.3346 11.6808C40.4341 11.6507 40.5883 11.5409 40.5826 11.4778C40.556 11.2918 40.5008 11.1109 40.4191 10.9415C40.3641 10.8131 40.2497 10.8159 40.1386 10.8186C40.1057 10.8194 40.073 10.8202 40.0422 10.8175C39.9811 10.8122 39.9198 10.808 39.8585 10.8037L39.8584 10.8037C39.585 10.7847 39.3109 10.7657 39.0445 10.6514ZM33.0679 22.1644L33.9548 21.3751C34.1834 21.3755 34.4117 21.3918 34.638 21.4236C34.7255 21.4404 34.8068 21.5711 34.8534 21.6679C34.8657 21.6934 34.8269 21.7434 34.7882 21.7932C34.7713 21.8149 34.7545 21.8365 34.7419 21.8561C34.7669 21.8705 34.7933 21.8841 34.8199 21.8978C34.9757 21.9783 35.1389 22.0627 35.0749 22.3158C35.0555 22.3725 35.058 22.4344 35.082 22.4893C35.1951 22.6455 35.3103 22.8147 35.2462 23.0026C35.2246 23.0664 35.2042 23.1317 35.1838 23.1973L35.1837 23.1975L35.1836 23.1978L35.1836 23.1979L35.1835 23.198L35.1835 23.1981L35.1835 23.1983L35.1834 23.1984C35.096 23.479 35.0066 23.7658 34.8024 23.9712C34.3035 24.4725 33.7654 24.9455 33.0725 25.1706C32.6606 25.3123 32.2359 25.4143 31.8042 25.475C31.5777 25.5056 31.3535 25.4046 31.2273 25.215C31.1408 25.0766 31.0513 24.94 30.9618 24.8035L30.9617 24.8034L30.9617 24.8033L30.9616 24.8032L30.9616 24.8031L30.9615 24.8031L30.9615 24.803L30.9614 24.8029L30.9614 24.8028L30.9613 24.8028L30.9613 24.8027L30.9612 24.8026L30.9612 24.8025L30.9611 24.8024L30.9611 24.8024L30.9611 24.8023L30.961 24.8022L30.961 24.8021L30.9609 24.8021L30.9609 24.802L30.9608 24.802L30.9608 24.8019L30.9608 24.8019L30.9608 24.8019L30.9608 24.8019L30.9608 24.8018L30.9608 24.8018L30.9607 24.8018L30.9607 24.8018L30.9607 24.8017L30.9607 24.8017L30.9607 24.8017L30.9607 24.8017L30.9606 24.8017L30.9606 24.8016L30.9606 24.8016L30.9606 24.8016L30.9606 24.8016L30.9606 24.8015C30.8176 24.5833 30.6746 24.3651 30.544 24.1398C30.4666 24.0073 30.4325 23.8543 30.4463 23.7018C30.5724 22.8193 31.027 22.2105 32.0492 22.0042C32.0979 21.9944 32.1475 21.9788 32.1971 21.9633C32.299 21.9314 32.4005 21.8997 32.4922 21.9181C32.6925 21.9792 32.8856 22.0618 33.0679 22.1644ZM11.1758 22.4114L10.8025 22.4634C10.9937 22.5606 11.1587 22.6017 11.3568 22.4661C11.4835 22.3795 11.6267 22.3241 11.7709 22.2682C11.9654 22.1928 12.1619 22.1167 12.3227 21.9626C12.4146 21.8599 12.5182 21.7681 12.6315 21.6893C13.3759 21.2942 13.8194 20.6518 14.1847 19.9352L14.1992 19.9072C14.242 19.825 14.2992 19.7152 14.2708 19.6763C14.1799 19.5519 14.2222 19.4569 14.267 19.3562C14.2777 19.3322 14.2885 19.3078 14.2977 19.2826C14.3244 19.2095 14.3472 19.0907 14.3087 19.0463C14.179 18.8962 14.12 18.7202 14.0606 18.5427L14.0606 18.5427C14.0477 18.5044 14.0349 18.466 14.0213 18.4278C14.0043 18.3803 13.9655 18.2908 13.8506 18.3662C13.794 18.403 13.7167 18.4082 13.6284 18.4141C13.5856 18.4169 13.5403 18.4199 13.4935 18.4268C13.6598 18.1364 13.7395 17.893 13.4996 17.7094C13.4169 17.736 13.3338 17.7572 13.2525 17.778C13.0792 17.8222 12.9144 17.8643 12.7805 17.9524C12.6515 18.0372 12.5109 18.1058 12.3703 18.1745C12.0695 18.3213 11.7682 18.4684 11.5792 18.7745C10.9119 19.093 10.5291 19.6731 10.1448 20.2554L10.1443 20.2561L10.1439 20.2568L10.1434 20.2574C10.1115 20.3058 10.0795 20.3542 10.0474 20.4025C9.89739 20.5836 9.88252 20.8404 10.0106 21.0376C10.0159 21.0467 10.0217 21.056 10.0276 21.0656C10.0774 21.1465 10.1377 21.2444 10.0104 21.3695C9.97107 21.4302 9.96096 21.5051 9.98284 21.5739C10.0047 21.6428 10.0563 21.6984 10.1236 21.7257C10.3024 21.7845 10.4325 21.9174 10.5632 22.0508C10.7316 22.2227 10.9007 22.3953 11.1758 22.4114ZM37.3871 61.0783L37.7356 61.1478C37.7234 61.1628 37.7136 61.1774 37.7049 61.1903C37.689 61.214 37.6768 61.2322 37.6603 61.2379C37.5532 61.2747 37.4472 61.3144 37.3411 61.3541L37.3411 61.3541C37.0573 61.4603 36.7736 61.5665 36.4703 61.6169L36.4268 61.6243C36.1803 61.6661 35.9457 61.706 35.768 61.4602C35.7193 61.3926 35.6303 61.3727 35.5412 61.3528C35.397 61.3206 35.2527 61.2883 35.2793 61.0532C35.0056 60.8623 35.0413 60.5851 35.0759 60.3167L35.0786 60.296C34.8929 60.2375 34.7115 60.1665 34.5355 60.0835C34.3501 59.9815 34.3123 59.6861 34.4196 59.3775C34.4296 59.3489 34.4477 59.3211 34.4656 59.2938C34.4915 59.2539 34.5169 59.215 34.5156 59.1759L34.5152 59.1622C34.4991 58.6659 34.499 58.6648 34.91 58.4749C35.1114 58.3684 35.3187 58.2732 35.531 58.1899C35.7786 58.1159 35.9815 57.9386 36.0872 57.7041C36.2643 57.3421 36.6175 57.0971 37.0206 57.0567C37.3831 57.0168 37.7035 57.2021 37.945 57.5352L37.7566 57.6628L37.2109 58.0326C37.3051 58.0378 37.3895 58.0421 37.4672 58.046L37.4685 58.0461L37.4698 58.0462L37.471 58.0462L37.4721 58.0463L37.4732 58.0464L37.4742 58.0464L37.4752 58.0465L37.4761 58.0465L37.477 58.0466L37.4776 58.0466C37.6401 58.0549 37.7735 58.0617 37.9067 58.0718C38.0656 58.0839 38.0706 58.0981 38.129 58.266C38.1439 58.3087 38.1622 58.3613 38.1874 58.4263C38.2174 58.5038 38.2211 58.5915 38.2248 58.6792C38.232 58.8496 38.2391 59.0201 38.4399 59.1161L38.4287 59.7776C38.4225 60.1851 38.358 60.5432 37.8929 60.7077C37.7663 60.752 37.658 60.8471 37.546 60.9454C37.4945 60.9905 37.4422 61.0364 37.3871 61.0783ZM38.5067 0.10496C38.1257 0.121201 37.8029 0.388624 37.7182 0.758092L38.2236 1.00001C37.8881 1.08448 37.6312 1.21396 37.5681 1.59543C37.6825 1.65808 37.7937 1.72648 37.9011 1.80035C37.9285 1.82087 37.9523 1.84995 37.9758 1.87876C38.0423 1.95995 38.107 2.03894 38.2442 1.91769L38.1965 2.28093C38.3813 2.37825 38.6282 2.50849 38.8595 2.63059C38.8477 2.66831 38.836 2.70522 38.8244 2.74156L38.8244 2.74159C38.7878 2.85686 38.753 2.96634 38.7247 3.07742C38.719 3.09695 38.771 3.15367 38.7963 3.15344C38.851 3.15269 38.9399 3.13988 38.9528 3.10744C38.9658 3.07497 38.965 3.03443 38.9643 2.99521L38.9643 2.9952C38.9634 2.94793 38.9626 2.90259 38.9858 2.87561C39.0117 2.84508 39.0678 2.83989 39.1442 2.83282C39.184 2.82914 39.2292 2.82495 39.2786 2.81641L39.0466 3.04933L39.4633 3.07246L39.4633 3.07247L39.4633 3.07247L39.4633 3.07247L39.4634 3.07247L39.4634 3.07247L39.4634 3.07247L39.4635 3.07247L39.4635 3.07248L39.4635 3.07248L39.4635 3.07248L39.4636 3.07248L39.4636 3.07248L39.4636 3.07248L39.4637 3.07249L39.4637 3.07249L39.4637 3.07249C39.9657 3.10046 40.4421 3.12701 40.9188 3.14923C40.9475 3.15053 40.9762 3.13418 41.0056 3.11748C41.0284 3.10451 41.0516 3.09132 41.0754 3.08604C41.2071 3.05688 41.3338 3.00347 41.4581 2.9511C41.7031 2.84782 41.9386 2.7486 42.1834 2.84739C42.513 2.74713 42.5445 2.51426 42.5741 2.29534C42.5934 2.15174 42.612 2.01414 42.7134 1.92389C42.6769 1.84393 42.6325 1.76635 42.5891 1.69074C42.4959 1.52802 42.4079 1.37437 42.4152 1.22545C42.4232 1.0622 42.3453 0.938599 42.269 0.817405C42.1911 0.693849 42.1148 0.572789 42.1327 0.414747C42.1373 0.374197 42.0221 0.281338 41.959 0.278869C41.8457 0.274346 41.7455 0.233129 41.6442 0.191434C41.5312 0.144914 41.4167 0.0977984 41.2808 0.100377C40.7485 0.111515 40.2161 0.0828486 39.6881 0.014621C39.4077 -0.0223823 39.1374 0.0179832 38.869 0.0580671C38.7481 0.0761196 38.6275 0.0941151 38.5067 0.10496ZM7.00909 44.1178C7.01315 44.0692 7.01901 44.0211 7.02476 43.9739C7.05635 43.7148 7.08471 43.4821 6.79403 43.3365C7.1498 43.0979 7.39406 43.0808 7.65116 43.358C7.71655 43.4286 7.78869 43.4911 7.86119 43.5539C7.98544 43.6615 8.11074 43.7701 8.20491 43.9216C8.28043 44.043 8.41549 44.1247 8.55272 44.2078C8.65317 44.2686 8.75477 44.3301 8.83503 44.4084C8.9361 44.5068 9.00715 44.6358 9.0782 44.7647C9.1099 44.8222 9.14159 44.8797 9.17594 44.9345L8.96503 45.1259L8.77603 44.828L8.70059 44.8557L8.74554 45.2941C8.72768 45.3045 8.70246 45.315 8.67402 45.3268L8.67388 45.3269L8.67382 45.3269C8.59836 45.3583 8.50028 45.3991 8.45666 45.4722C8.09652 46.0766 7.53054 46.4437 6.95111 46.7909C6.83839 46.8585 6.7084 46.8965 6.57789 46.9346C6.48814 46.9608 6.39814 46.9871 6.31334 47.0232L6.23071 47.0584C5.78648 47.2481 5.67701 47.2948 5.2507 47.2004C4.92444 47.1282 4.57685 47.0489 4.32236 46.777C4.22456 46.6584 4.0901 46.5751 3.93986 46.5401C3.59852 46.5079 3.55402 46.318 3.58692 46.0443C3.5954 45.9661 3.59122 45.8871 3.57455 45.8102C3.47123 45.3238 3.4873 45.2751 3.87014 45.0565C4.34207 44.7869 4.86122 44.6484 5.37944 44.5102L5.38017 44.51C5.48421 44.4823 5.5882 44.4545 5.69176 44.4258C5.99561 44.3411 6.30416 44.2736 6.60871 44.207C6.7432 44.1775 6.87691 44.1483 7.00909 44.1178ZM14.2689 36.5788C14.237 36.6291 14.205 36.6796 14.1724 36.7299C14.3805 36.8112 14.5445 36.9608 14.4147 37.121C14.2284 37.3494 14.3936 37.3969 14.5306 37.4337C14.5572 37.4408 14.5853 37.4459 14.6132 37.4508L14.6132 37.4508L14.6133 37.4509C14.7096 37.4681 14.8039 37.4849 14.831 37.5872C14.8732 37.7467 14.9902 37.8303 15.1057 37.9127C15.1554 37.9482 15.2049 37.9835 15.2479 38.0245C15.3639 38.135 15.5644 38.2485 15.703 38.2241C15.9378 38.1717 16.1581 38.0684 16.348 37.9216C16.4625 37.8386 16.558 37.7306 16.6538 37.6224C16.7168 37.5511 16.78 37.4798 16.8487 37.4153C16.9356 37.3336 17.0258 37.2549 17.116 37.1761L17.116 37.1761L17.116 37.1761L17.116 37.176L17.1161 37.176L17.1161 37.176L17.1161 37.176L17.1161 37.1759L17.1162 37.1759L17.1162 37.1759L17.1162 37.1759L17.1162 37.1759L17.1164 37.1757L17.1165 37.1757C17.3727 36.9518 17.6292 36.7278 17.8134 36.4355C17.8943 36.3071 17.9906 36.1885 18.0869 36.0699L18.0869 36.0699C18.2679 35.8471 18.4488 35.6244 18.5268 35.3371C18.5832 35.0502 18.7322 34.7895 18.9512 34.5946C19.2028 34.3843 19.1754 34.2113 18.9772 33.8929C18.9534 33.8546 18.9299 33.8075 18.9062 33.76C18.8506 33.6484 18.7941 33.5349 18.73 33.5301C18.5636 33.5173 18.5672 33.4203 18.5708 33.3236C18.5742 33.2347 18.5775 33.1461 18.4483 33.1236C17.817 33.36 17.2637 33.7843 16.7133 34.2064L16.6956 34.22L16.5875 34.3027L16.5243 34.351C16.1321 34.6496 15.7682 34.985 15.4043 35.3205L15.4043 35.3205L15.4043 35.3205L15.4042 35.3205L15.4042 35.3206L15.4042 35.3206L15.4042 35.3206L15.4041 35.3206L15.4041 35.3207L15.4041 35.3207L15.4041 35.3207L15.404 35.3207L15.404 35.3207L15.404 35.3208L15.404 35.3208C15.2267 35.4842 15.0493 35.6477 14.8687 35.8069C14.6184 36.0277 14.4451 36.301 14.2689 36.5788ZM16.3699 61.4905C16.6922 60.8196 17.2347 60.5485 17.7653 60.2834L17.7856 60.2732C18.2579 60.0342 18.7467 59.8288 19.2482 59.6585C19.3572 59.6221 19.4653 59.5789 19.5741 59.5354C19.9645 59.3792 20.3631 59.2198 20.8384 59.3642C20.6643 59.5855 20.4204 59.6721 20.1675 59.7619C19.9373 59.8437 19.6997 59.9281 19.5008 60.1191C19.8559 60.0948 20.17 59.9898 20.4964 59.8808L20.4964 59.8807C20.7469 59.797 21.0047 59.7109 21.2939 59.6569L21.0507 60.0453L21.3782 60.1222L21.4569 60.708C21.43 60.7227 21.3995 60.7387 21.3666 60.7559L21.366 60.7562L21.3656 60.7564L21.3654 60.7565C21.2829 60.7996 21.1856 60.8504 21.0932 60.9086C20.5912 61.2246 20.5892 61.2293 20.3366 61.8293L20.3303 61.8442C20.2983 61.9128 20.2589 61.9776 20.2127 62.0376C19.8771 62.5064 19.5046 62.9296 18.9529 63.1674C18.7051 63.2793 18.4377 63.3421 18.1656 63.3524C18.1084 63.3572 18.0544 63.3807 18.012 63.4193C17.9756 63.4567 17.9221 63.4723 17.8711 63.4603C17.8201 63.4483 17.7793 63.4105 17.7635 63.3609C17.6858 63.2045 17.5594 63.0932 17.4333 62.9821C17.3314 62.8922 17.2295 62.8025 17.1536 62.6892C17.0803 62.5952 16.9697 62.5374 16.8503 62.5306C16.676 62.4951 16.4675 62.1403 16.5131 61.9829C16.5226 61.9505 16.5496 61.9228 16.5767 61.8951C16.6307 61.8398 16.6849 61.7843 16.6002 61.6899C16.5279 61.6186 16.4509 61.552 16.3699 61.4905ZM31.7254 42.1433L31.7668 42.519C31.8963 42.6049 32.0305 42.5796 32.1656 42.5541C32.2877 42.5311 32.4104 42.5079 32.5309 42.5668C32.5971 42.5789 32.6629 42.5441 32.6897 42.4829C32.7166 42.4216 32.6974 42.35 32.6435 42.31C32.6268 42.2915 32.6488 42.2384 32.6708 42.1853C32.6809 42.1608 32.6911 42.1364 32.6974 42.1154C32.7145 42.1214 32.7363 42.1276 32.7581 42.1337L32.7582 42.1337C32.805 42.1468 32.8517 42.16 32.8515 42.1724C32.8466 42.4975 33.1238 42.416 33.2419 42.3782C33.341 42.3466 33.441 42.3165 33.541 42.2865C33.9494 42.1638 34.3599 42.0404 34.7205 41.8068L34.7253 41.8036C34.9125 41.6822 35.1508 41.5277 34.9325 41.2325C34.9217 41.2171 34.9349 41.1713 34.9507 41.1497C35.1251 40.9121 35.038 40.7553 34.7991 40.6392C34.5905 40.5378 34.6933 40.4472 34.7737 40.3762L34.7876 40.3639L34.5387 40.014L34.0071 40.1228C34.0486 40.0593 34.1091 40.0207 34.1682 39.9829C34.2694 39.9183 34.3669 39.8559 34.3603 39.6751L34.296 39.6332L34.2955 39.6328L34.2941 39.6319C34.2313 39.591 34.1614 39.5454 34.092 39.499C34.0584 39.4763 34.0172 39.4548 33.9759 39.4332C33.8846 39.3856 33.7931 39.3379 33.7834 39.2768C33.7429 39.0241 33.6047 39.0748 33.48 39.1206L33.4606 39.1277C33.451 39.1311 33.4415 39.1345 33.4321 39.1375C33.2532 39.1963 33.0771 39.2635 32.9009 39.3308L32.9008 39.3308L32.9007 39.3309C32.7767 39.3782 32.6528 39.4255 32.5278 39.4699C32.4506 39.4892 32.3717 39.5007 32.2921 39.5041L32.2656 39.4035L33.5743 38.8963C33.204 38.787 32.9434 38.8837 32.6604 38.9924C32.2134 39.1657 31.7909 39.3956 31.4032 39.6765C30.9111 40.0307 30.495 40.465 30.5847 41.1564C30.5874 41.2129 30.5848 41.2696 30.5768 41.3256L31.4352 42.278L31.7254 42.1433ZM44.99 41.0317L44.7221 41.2699L44.8965 41.2998L45.1923 41.3506C45.2039 41.426 45.2167 41.5022 45.2296 41.5789C45.2601 41.7607 45.2912 41.9459 45.3084 42.1324C45.3231 42.2945 45.3136 42.4578 45.2801 42.6171C45.2694 42.6676 45.224 42.6778 45.1727 42.6894C45.1019 42.7054 45.0197 42.7239 45.001 42.8538C44.9839 42.9738 44.8057 43.0618 44.6434 43.1419L44.6433 43.142C44.6097 43.1586 44.5767 43.1748 44.546 43.191C44.4992 43.2156 44.4367 43.2175 44.3734 43.2194C44.24 43.2235 44.1032 43.2277 44.1036 43.4452L43.5038 43.4454C43.4904 43.4455 43.477 43.447 43.4635 43.4486L43.4456 43.4505L42.4833 44.3071C42.4847 44.4068 42.4782 44.5064 42.4638 44.605C42.4312 44.755 42.2712 44.9099 42.1818 44.827C42.0754 44.7284 41.9796 44.7693 41.8886 44.8082C41.8097 44.8419 41.7344 44.8741 41.6589 44.8124C41.5425 44.3326 41.535 44.1831 41.6237 43.803L40.9873 44.0538C40.9707 44.0346 40.9466 44.0132 40.9212 43.9907C40.8611 43.9372 40.7931 43.8768 40.7966 43.8208C40.8033 43.714 40.804 43.6055 40.8048 43.497C40.8077 43.0951 40.8105 42.6909 41.1127 42.3537C41.2039 42.2271 41.3088 42.1108 41.4254 42.0068C41.6677 41.8354 41.9225 41.6811 42.177 41.527L42.3064 41.4486C42.3912 41.397 42.479 41.3504 42.5668 41.3038L42.5668 41.3038L42.5669 41.3037L42.5669 41.3037L42.567 41.3037L42.567 41.3037L42.567 41.3037L42.5671 41.3036L42.5671 41.3036L42.5672 41.3036L42.5672 41.3036L42.5672 41.3036L42.5674 41.3035C42.6313 41.2696 42.6952 41.2357 42.758 41.1999C42.8454 41.15 42.9454 41.1277 43.0453 41.1053L43.0454 41.1053C43.2097 41.0686 43.374 41.0319 43.4824 40.873C43.6877 40.915 43.8607 40.8427 44.0376 40.7687C44.0918 40.7461 44.1464 40.7232 44.2024 40.7035C44.3502 40.6393 44.518 40.638 44.6668 40.7C44.8156 40.762 44.9324 40.8819 44.99 41.0317ZM55.0974 23.2651L55.1285 22.7018C55.1893 22.3358 55.1647 21.9609 55.0566 21.6057C55.0112 21.4538 54.9259 21.3182 54.8401 21.1816C54.7528 21.0427 54.6648 20.9028 54.6172 20.7435C54.6066 20.7075 54.52 20.6728 54.4695 20.6737C54.3132 20.675 54.1573 20.6874 54.0029 20.7107C53.7149 20.7566 53.481 20.9097 53.2464 21.0633L53.2463 21.0633L53.2463 21.0633C53.1758 21.1094 53.1053 21.1556 53.0332 21.199C52.4179 21.5691 51.9465 22.0261 51.9189 22.7971C51.9205 22.8549 51.9007 22.9112 51.8634 22.9554C51.6961 23.0943 51.7619 23.2174 51.8274 23.34C51.8632 23.407 51.8989 23.4739 51.8965 23.5431C52.1478 23.7213 52.2671 23.9913 52.3834 24.2546C52.4247 24.348 52.4655 24.4405 52.5118 24.5278C52.6691 24.8247 52.847 24.9165 53.1044 24.8694C53.1556 24.8601 53.2071 24.8514 53.2589 24.8426L53.2589 24.8426L53.2589 24.8426C53.6639 24.7739 54.0773 24.7038 54.3578 24.3386C54.3956 24.2898 54.4471 24.2511 54.4988 24.2123C54.607 24.1311 54.7157 24.0495 54.6993 23.8734C54.7063 23.8204 54.7405 23.7747 54.7896 23.7528C55.079 23.7234 55.0868 23.5255 55.0947 23.3265C55.0955 23.306 55.0963 23.2854 55.0974 23.2651ZM25.4011 20.0826L24.9386 20.3403C25.0205 20.3559 25.0816 20.3677 25.1299 20.377C25.2068 20.3919 25.2513 20.4005 25.2961 20.408L25.297 20.4081L25.297 20.4081C25.4076 20.4265 25.4674 20.4365 25.5011 20.4715C25.5408 20.5127 25.5444 20.5887 25.5521 20.7542L25.5521 20.7543L25.5522 20.7551C25.5524 20.76 25.5525 20.7653 25.5524 20.7708L25.5522 20.7874C25.5516 20.8206 25.551 20.8559 25.5666 20.867C25.7626 20.9936 25.8403 21.241 25.7513 21.4558C25.6739 21.7086 25.547 21.9437 25.3778 22.1475C24.695 22.8683 23.8112 23.2655 22.8804 23.5606C22.7717 23.5952 22.6462 23.5772 22.5215 23.5594C22.4641 23.5511 22.407 23.543 22.3517 23.5399L22.3905 23.3084C22.1695 23.3115 22.0092 23.2531 21.971 22.9944C21.9424 22.899 21.8682 22.8239 21.7727 22.7936C21.6159 22.7696 21.6033 22.6667 21.591 22.5657C21.5826 22.4969 21.5743 22.429 21.5205 22.3876C21.6539 22.3141 21.6368 22.2013 21.6197 22.0876C21.6047 21.9886 21.5896 21.889 21.6741 21.8144C21.7352 21.7606 21.792 21.6992 21.8486 21.6381C21.9537 21.5246 22.0581 21.4118 22.188 21.349C22.6245 21.1246 23.0842 20.9476 23.559 20.8213C23.7713 20.786 23.9602 20.6669 24.0826 20.4909C24.2589 20.2072 24.521 19.9863 24.8314 19.8598L24.842 19.8556C25.1019 19.7536 25.1038 19.7529 25.4011 20.0826ZM32.1334 31.9293C32.0606 31.914 31.9861 31.9082 31.9118 31.9121C31.7423 32.0181 31.5918 32.1374 31.4443 32.2543L31.4442 32.2544L31.4442 32.2545L31.4441 32.2545L31.4433 32.2551C31.3735 32.3105 31.3044 32.3653 31.2342 32.4179C30.7962 32.7439 30.3469 33.0798 30.0944 33.6143C29.9261 33.9713 29.9515 34.312 30.1971 34.5173C30.2675 34.5761 30.3165 34.6576 30.3652 34.7388C30.4523 34.884 30.5388 35.028 30.7459 35.0386C30.7751 35.3749 31.056 35.3334 31.2345 35.2915C31.7339 35.1745 32.2397 35.043 32.6523 34.7142C32.7283 34.6538 32.7918 34.5782 32.8554 34.5027L32.8554 34.5026L32.8554 34.5026L32.8554 34.5026L32.8555 34.5026L32.8555 34.5026L32.8555 34.5025L32.8555 34.5025L32.8556 34.5025C32.9144 34.4325 32.9734 34.3625 33.0422 34.3043C33.1558 34.2081 33.2808 34.1252 33.4157 34.0357L33.4159 34.0356L33.4161 34.0355L33.4162 34.0354L33.4163 34.0353C33.4776 33.9947 33.5409 33.9527 33.6061 33.9075L33.4814 33.0011L33.3323 32.9683L33.3309 32.968L33.3278 32.9673C33.2527 32.9507 33.1762 32.9338 33.0838 32.9137L33.6778 32.2663C33.6357 32.217 33.5867 32.1696 33.5404 32.1249C33.4464 32.034 33.3639 31.9544 33.3758 31.8926C33.3949 31.7922 33.3711 31.7068 33.3472 31.6214C33.3238 31.5376 33.3004 31.4537 33.3176 31.3558C33.2435 31.4052 33.2261 31.4913 33.2094 31.5743C33.1835 31.7028 33.1591 31.824 32.9273 31.7899L33.0662 31.5118C32.7814 31.3998 32.6576 31.5835 32.5291 31.7743C32.5164 31.793 32.5038 31.8119 32.4909 31.8305L32.5967 31.806L32.7766 31.7649L32.8439 31.7495C32.8327 31.8137 32.8107 31.8755 32.7787 31.9324C32.7274 31.9921 32.6616 32.0378 32.5875 32.0651C32.5672 32.0713 32.5413 32.0539 32.5139 32.0353C32.4888 32.0184 32.4623 32.0006 32.4377 31.9992C32.41 31.998 32.3809 32.0106 32.3523 32.023C32.3207 32.0367 32.2897 32.0501 32.2622 32.0443C32.2373 32.0391 32.2173 32.0133 32.197 31.9873C32.1775 31.9622 32.1578 31.9368 32.1334 31.9293ZM23.3957 41.5289L23.2753 41.8255C23.5538 41.853 23.7326 41.7129 23.9139 41.5709C24.068 41.4502 24.2239 41.3281 24.4443 41.3062C24.4095 41.3948 24.3649 41.4791 24.3113 41.5578C24.2073 41.6622 24.098 41.7613 23.9837 41.8545C24.1705 41.8526 24.3504 41.7848 24.4914 41.6631L24.4914 41.6632C24.7005 41.8551 24.7923 41.9394 24.8291 42.0433C24.858 42.1246 24.8531 42.2179 24.8444 42.3843C24.7693 42.4436 24.6875 42.4996 24.6049 42.5561C24.4153 42.686 24.2218 42.8185 24.0973 42.9982C23.9772 43.1714 23.8139 43.2651 23.6517 43.3581C23.5474 43.4179 23.4435 43.4775 23.352 43.5578C23.1092 43.7434 22.8399 43.8919 22.5529 43.9982C22.3983 44.0758 22.224 44.1064 22.0519 44.0861C21.8563 44.044 21.5707 43.9444 21.5222 43.8026C21.4665 43.6397 21.3693 43.611 21.2696 43.5815C21.2263 43.5687 21.1826 43.5557 21.1415 43.5316C20.9563 43.4227 20.7782 43.2778 20.7509 43.0285C20.745 42.9756 20.728 42.9186 20.7112 42.8623C20.6817 42.7637 20.653 42.6677 20.6873 42.602C20.8111 42.3424 20.9839 42.1089 21.1966 41.9144C21.6073 41.5805 22.0392 41.2733 22.4897 40.9946C22.5639 40.9474 22.6713 40.9517 22.7975 40.9567C22.8617 40.9592 22.9308 40.962 23.0029 40.9582L22.8041 41.1776C23.0139 41.1589 23.125 41.2755 23.23 41.3856C23.2828 41.4411 23.3341 41.4949 23.3957 41.5289ZM1.25233 36.7646L1.05479 37.0802C1.26315 37.0578 1.46974 37.0214 1.67313 36.9713C1.75614 36.9437 1.87664 36.8363 1.8719 36.7733C1.86149 36.635 1.94267 36.5561 2.01832 36.4825C2.0672 36.435 2.11377 36.3897 2.13183 36.3321C2.17683 36.1862 2.27284 36.1075 2.36825 36.0294C2.40555 35.9988 2.44277 35.9683 2.47681 35.9339C2.54581 35.8642 2.62588 35.8019 2.70552 35.7399L2.70555 35.7399C2.84048 35.6348 2.97414 35.5307 3.05057 35.3936C3.12671 35.2569 3.23247 35.1612 3.33692 35.0667C3.40442 35.0056 3.47138 34.9451 3.52944 34.8742C3.63183 34.7493 3.73189 34.6225 3.8317 34.4961L3.83189 34.4958L3.83209 34.4956L3.88112 34.4335L3.96483 34.3278L4.00124 33.667C3.77498 33.7202 3.78117 33.6044 3.7874 33.4875C3.79228 33.3962 3.79719 33.3042 3.69104 33.292C3.60735 33.2803 3.54863 33.3394 3.48933 33.3992C3.40677 33.4823 3.3231 33.5666 3.16937 33.4624C3.19921 33.4314 3.23247 33.402 3.26547 33.3729C3.39622 33.2574 3.52289 33.1456 3.41667 32.9499C3.06107 32.9472 2.8315 33.1625 2.60177 33.3779L2.56869 33.4089C2.52654 33.4532 2.48051 33.4937 2.43114 33.5299C1.86303 33.8904 1.32274 34.2924 0.814742 34.7327C0.755723 34.7844 0.684356 34.8219 0.612902 34.8595C0.546629 34.8943 0.480278 34.9292 0.423621 34.9755L0.400147 34.9947C0.19142 35.1649 -0.0245118 35.341 0.00226586 35.6571C0.132258 35.6805 0.235829 35.6203 0.337406 35.5613C0.459958 35.4901 0.579612 35.4205 0.739272 35.5017L0.0835337 36.0852L0.254634 36.4191L0.939202 36.1698C0.737297 36.5646 0.761402 36.5995 1.25233 36.7646ZM42.349 35.1502C42.3402 35.2218 42.3463 35.2866 42.3521 35.3482C42.3633 35.4666 42.3733 35.5734 42.2746 35.6945L42.2031 35.4444C42.1366 35.4599 42.0702 35.4761 42.0037 35.4923L42.0029 35.4925L42.0021 35.4927L42.0012 35.4929L42.0004 35.4931L41.9996 35.4933L41.9995 35.4933L41.9993 35.4933C41.8173 35.5376 41.635 35.5819 41.4514 35.6146C41.3866 35.6263 41.2622 35.586 41.2459 35.5405C41.1929 35.3937 41.0815 35.3026 40.9712 35.2123L40.9711 35.2123C40.8931 35.1484 40.8156 35.0851 40.7598 35.0028C40.7057 34.9024 40.6781 34.7901 40.6797 34.6763C40.6781 34.6484 40.6994 34.6193 40.7206 34.5903C40.7417 34.5614 40.7628 34.5325 40.7614 34.505C40.7423 34.431 40.7098 34.3612 40.6653 34.2988L40.6926 34.2928C41.0442 34.2149 41.0624 34.2109 41.2225 33.8164C41.2835 33.6661 41.4018 33.5945 41.5219 33.522C41.5951 33.4778 41.6689 33.4332 41.7307 33.3701L41.4813 33.2364C41.5034 33.2177 41.5252 33.1945 41.5465 33.1718C41.5909 33.1245 41.6332 33.0794 41.6727 33.0817C42.4039 33.1253 42.4206 33.1256 42.8771 32.8178C42.6844 32.6939 42.5313 32.7705 42.3692 32.8517C42.2618 32.9055 42.1504 32.9613 42.021 32.9619C42.0272 32.9332 42.031 32.8997 42.0346 32.8672C42.0423 32.7998 42.0495 32.7363 42.0758 32.7273C42.1334 32.7073 42.1907 32.6856 42.2479 32.6638L42.2479 32.6638L42.248 32.6638L42.248 32.6638L42.2481 32.6638C42.5777 32.5386 42.9045 32.4144 43.283 32.6431C43.3004 32.6537 43.3168 32.6632 43.3321 32.672C43.4383 32.7336 43.4939 32.7657 43.4881 32.9142C43.4952 33.0273 43.5317 33.1367 43.5941 33.2317C43.6934 33.4085 43.7997 33.5813 43.911 33.7621L43.9111 33.7623L43.9112 33.7625L43.9113 33.7626L43.9115 33.763C43.9576 33.8377 44.0044 33.9138 44.0519 33.9921L43.8953 34.084C43.8302 34.1668 43.8592 34.2563 43.884 34.333C43.9179 34.438 43.944 34.5189 43.7111 34.5258C43.667 34.5271 43.6781 34.5678 43.6915 34.6163C43.7127 34.6937 43.7394 34.791 43.5562 34.7809C43.4763 34.7765 43.3907 34.8733 43.3083 34.9664C43.2719 35.0076 43.236 35.0481 43.2016 35.0788L43.0443 35.0086L42.9208 34.9535L42.8529 35.04L43.1741 35.2312L42.724 35.4625C42.6083 35.3664 42.4786 35.2583 42.349 35.1502ZM25.6373 13.2807L25.1402 13.6299C25.1845 13.7042 25.2373 13.7732 25.2973 13.8357C25.3633 13.872 25.4314 13.9043 25.5012 13.9327L25.5116 13.9383C25.5732 13.9713 25.6712 14.0238 25.6659 14.0413C25.624 14.1797 25.7037 14.2806 25.7832 14.3813C25.8684 14.4892 25.9534 14.5968 25.8881 14.7499C25.934 14.7739 25.9811 14.7955 26.0293 14.8146C26.0933 14.6965 26.1801 14.7242 26.266 14.7515C26.3112 14.7659 26.3561 14.7802 26.3972 14.7732C26.5745 14.7432 26.7194 14.6578 26.8627 14.5735C26.9639 14.5138 27.0644 14.4547 27.1749 14.4159C27.654 14.2511 28.0883 13.9788 28.4442 13.6201L28.3366 12.3631L27.7388 12.3301C27.7782 12.2367 27.8574 12.1746 27.9342 12.1144C28.0445 12.0279 28.1498 11.9453 28.1253 11.7796C27.7918 11.6878 27.4651 11.6809 27.1952 11.8518C26.9718 11.9933 26.7383 12.1156 26.5051 12.2377C26.2802 12.3555 26.0555 12.4732 25.8404 12.6078C25.6278 12.7265 25.4507 12.8992 25.3272 13.1081L25.6373 13.2807ZM16.97 26.7354L16.3948 26.946L16.6875 27.0751C16.6839 27.0802 16.6805 27.086 16.6772 27.092C16.675 27.0959 16.6729 27.1 16.6707 27.104L16.6707 27.104C16.6592 27.1256 16.6478 27.147 16.6328 27.1502C16.423 27.1916 16.2276 27.2864 16.0658 27.4253C15.9591 27.5071 15.8414 27.574 15.7163 27.6239C15.5008 27.7063 15.341 27.8901 15.2901 28.1139L15.4852 28.223L15.2148 28.5438C15.1977 28.5429 15.1827 28.5424 15.1697 28.5423L15.1435 28.5421C15.1163 28.542 15.1028 28.542 15.0994 28.5362C15.0471 28.4459 14.9976 28.3541 14.9505 28.267L14.9134 28.1984L14.3609 28.2654L14.5935 27.85L14.1083 27.5765L14.0907 27.2793L13.8179 27.2643C13.6036 26.9451 13.6486 26.6959 13.907 26.4435C14.0139 26.3393 14.1151 26.2294 14.2177 26.1179C14.3855 25.9356 14.5572 25.7492 14.7633 25.5767L14.9924 25.966C15.2477 25.9087 15.4879 25.7983 15.697 25.6421C15.8546 25.5291 16.0412 25.4562 16.2246 25.3845C16.3043 25.3534 16.3834 25.3225 16.4592 25.2887C16.6268 25.4397 16.5543 25.5539 16.4779 25.6743C16.4577 25.7062 16.4372 25.7385 16.4208 25.772C16.4407 25.7753 16.4608 25.7809 16.4805 25.7864C16.5219 25.7979 16.5615 25.809 16.5924 25.7974C16.8762 25.6904 17.01 25.7507 17.0078 26.0107C17.0061 26.18 16.9949 26.3491 16.9838 26.5158C16.9789 26.5896 16.974 26.6628 16.97 26.7354ZM15.0514 9.50178L15.4992 9.23554C15.4909 9.22176 15.483 9.20808 15.4752 9.19459C15.4081 9.07887 15.3491 8.97703 15.1705 8.94987C14.764 8.88783 14.4103 9.0297 14.0578 9.1711C13.9671 9.20749 13.8765 9.24385 13.7851 9.27669C13.6017 9.34254 13.5263 9.64487 13.5663 9.89015C13.5799 9.9885 13.5809 10.0882 13.5692 10.1867C13.5303 10.4329 13.6938 10.6658 13.9397 10.7146C14.112 10.7623 14.2264 10.8111 14.2682 10.9953C14.2936 11.16 14.4462 11.2749 14.6126 11.2546C14.6295 11.2543 14.6465 11.2538 14.6636 11.2533C14.803 11.2491 14.9464 11.2447 15.0516 11.3918C15.122 11.4341 15.2092 11.4382 15.2832 11.4026C15.317 11.3816 15.3394 11.334 15.3604 11.2893C15.3826 11.2422 15.4032 11.1984 15.4337 11.193C15.472 11.1862 15.5146 11.2152 15.5587 11.2453C15.5993 11.2729 15.6412 11.3015 15.6823 11.3041C15.97 11.3227 16.1326 11.1182 16.2314 10.8989C16.2581 10.8402 16.2633 10.7738 16.2687 10.7058C16.2768 10.6031 16.2853 10.4968 16.3677 10.4077C16.3752 10.3996 16.3312 10.3467 16.2794 10.2845C16.2381 10.2349 16.1918 10.1793 16.1627 10.1357C16.1373 10.0806 16.1193 10.0224 16.1091 9.96258L15.6074 9.93494L15.9137 9.80881L15.9332 9.45394C15.8646 9.46544 15.7983 9.4769 15.7337 9.48808L15.7336 9.48809L15.7334 9.48813C15.5592 9.51824 15.3969 9.5463 15.2336 9.56769C15.2036 9.57166 15.171 9.55605 15.1289 9.53592C15.1061 9.52506 15.0807 9.51289 15.0514 9.50178ZM25.4666 29.4119L25.2901 29.9086C25.4833 30.002 25.6719 30.0368 25.8583 29.8725C25.9672 30.0056 25.9053 30.1041 25.841 30.2062C25.7968 30.2764 25.7515 30.3484 25.7599 30.4345L26.085 30.5132C26.1691 30.6007 26.1265 30.6773 26.0815 30.758C26.037 30.8378 25.9903 30.9217 26.0614 31.0242C26.1496 31.1518 26.0601 31.2143 25.9644 31.2811C25.9014 31.3251 25.8356 31.371 25.8163 31.4386C25.7686 31.5409 25.6908 31.6264 25.5931 31.6838C25.4695 31.7732 25.3272 31.8275 25.1841 31.8822C24.9854 31.9581 24.7854 32.0345 24.632 32.206C24.5898 32.2531 24.4866 32.2463 24.3688 32.2385C24.3099 32.2346 24.2473 32.2305 24.187 32.2327C24.2833 32.062 24.1869 31.9654 24.09 31.8684C23.998 31.7762 23.9055 31.6836 23.9774 31.5266C23.9294 31.4933 23.8682 31.4773 23.8057 31.4609C23.6607 31.4228 23.5088 31.383 23.4981 31.1226L23.8308 30.9526L23.5291 30.7885C23.4929 30.5874 23.6603 30.5008 23.7785 30.4396L23.7948 30.4311C24.1795 30.2327 24.507 29.9401 24.7462 29.5809C24.8995 29.3548 25.1354 29.2394 25.4666 29.4119ZM41.3742 26.5337L41.9422 27.3418C42.0045 27.3311 42.0734 27.3253 42.1449 27.3192C42.3119 27.3052 42.4927 27.2899 42.6346 27.2082C43.0009 27.0065 43.3335 26.7495 43.6204 26.4464C43.9416 26.0896 44.2138 25.6622 43.7988 25.1695C43.7722 25.1379 43.7662 25.0893 43.7593 25.0343C43.7558 25.0057 43.752 24.9754 43.7451 24.945C43.6895 24.9527 43.6339 24.9551 43.5809 24.9573C43.4727 24.9619 43.3755 24.966 43.3125 25.0143C43.27 25.0468 43.2282 25.08 43.1865 25.1132C42.9379 25.3108 42.693 25.5055 42.3453 25.5128C42.1854 25.6884 41.9747 25.7714 41.7657 25.8538C41.6402 25.9032 41.5154 25.9524 41.4024 26.0212L41.3742 26.5337Z" fill="#171B1B"/>
</svg>
