<svg width="134" height="172" viewBox="0 0 134 172" fill="none" xmlns="http://www.w3.org/2000/svg">
<path fill-rule="evenodd" clip-rule="evenodd" d="M48.8354 0.877031L48.8353 0.877043L48.8353 0.877046L48.8351 0.877092C48.7169 0.907375 48.5937 0.938951 48.463 0.971294C48.0109 0.002283 47.799 -0.147628 46.9581 0.114286L46.904 0.131061C46.4987 0.256563 46.0681 0.389896 45.7985 0.822106C45.6679 1.03185 45.4991 1.21741 45.3301 1.40323C45.169 1.58037 45.0077 1.75774 44.879 1.9565C44.349 2.7766 43.9346 3.64543 44.0618 4.67178C44.1029 5.00148 44.1276 5.33325 44.1532 5.67691L44.1532 5.67693C44.1651 5.83577 44.1771 5.99716 44.191 6.16206L44.4971 6.41888C44.534 6.44986 44.5712 6.4805 44.6085 6.51115L44.6085 6.51117L44.6085 6.51119L44.6085 6.51121L44.6086 6.51123L44.6086 6.51125L44.6086 6.51127L44.6086 6.51129L44.6087 6.51132L44.6087 6.51134L44.6087 6.51136L44.6087 6.51138L44.6088 6.5114L44.6088 6.51142L44.6088 6.51144L44.6088 6.51146L44.6089 6.51149L44.6089 6.51151L44.6089 6.51153L44.6089 6.51155L44.609 6.51157L44.609 6.51159L44.609 6.51161L44.6091 6.51164L44.6091 6.51166L44.6091 6.51169L44.6091 6.51172L44.6092 6.51174L44.6092 6.51177L44.6092 6.5118L44.6093 6.51182L44.6093 6.51185L44.6093 6.51187L44.6094 6.5119L44.6094 6.51193L44.6094 6.51195L44.6095 6.51198L44.6095 6.51201L44.6095 6.51203L44.6096 6.51206L44.6096 6.51208L44.6096 6.51211L44.6096 6.51214L44.6097 6.51216L44.6097 6.51219C44.6844 6.57363 44.7591 6.63509 44.8313 6.69934C45.3956 7.20134 45.3948 7.20354 45.0459 8.08712L45.0378 8.10763C45.0051 8.19035 44.9909 8.28774 44.977 8.3833C44.956 8.5279 44.9356 8.66832 44.8523 8.74742C44.358 9.21606 44.437 9.72901 44.5968 10.283L45.2937 9.8298L46.0687 9.32579L46.2053 9.49616L45.1608 10.7409C45.7834 11.564 46.2865 11.1183 46.7559 10.7024C46.785 10.6766 46.814 10.6509 46.843 10.6256C47.1308 11.2242 47.4603 11.5596 48.0679 11.2901C48.5566 11.0733 48.5774 11.3602 48.5986 11.6528L48.5986 11.6528L48.5986 11.6529C48.6016 11.6931 48.6045 11.7334 48.6086 11.7725C49.6384 11.4636 50.533 10.8106 51.1428 9.92287C51.6431 9.25301 52.1891 8.61762 52.7352 7.9821L52.7352 7.98204L52.7352 7.98198L52.7353 7.98192L52.7353 7.98187L52.7354 7.98181L52.7354 7.98175L52.7355 7.98169L52.7355 7.98163L52.7356 7.98158L52.7356 7.98152L52.7357 7.98146L52.7357 7.9814L52.7358 7.98134L52.7358 7.98129L52.7359 7.98123L52.7359 7.98117L52.736 7.98111L52.736 7.98105L52.7361 7.98099L52.7361 7.98094L52.7362 7.98088L52.7362 7.98082C53.017 7.65404 53.2979 7.32723 53.5725 6.99567C53.7238 6.79496 53.8649 6.58676 53.9952 6.37187L53.8764 6.28083L52.8621 7.27047C52.9683 6.88996 53.1652 6.54048 53.4359 6.25216C53.6725 5.95797 53.8861 5.64609 54.075 5.31931C54.2187 5.00054 54.3403 4.67234 54.4389 4.33705L53.8246 4.7058C54.0266 3.69207 54.0254 3.69148 53.1768 3.27178L53.1701 3.26846C53.0541 3.21081 52.8705 3.11563 52.8675 3.03455C52.8549 2.58799 52.6514 2.51463 52.2319 2.4847C52.1338 2.47763 52.0593 2.32923 51.9772 2.16576C51.9016 2.01504 51.8195 1.8515 51.7066 1.77407C51.3995 1.58654 51.0545 1.46937 50.6961 1.43092C50.4638 1.39746 50.3965 1.22564 50.331 1.05829C50.2706 0.903942 50.2116 0.753392 50.0261 0.7187C49.8916 0.684598 49.7519 0.6756 49.6139 0.692156C49.3618 0.742163 49.1124 0.806045 48.8354 0.877031ZM61.2929 28.853C61.1293 28.7855 61.0316 28.5583 60.8398 28.112C60.6957 28.1527 60.5457 28.1573 60.3942 28.162C60.0715 28.1719 59.7423 28.182 59.4504 28.5418C59.0595 29.0086 58.8574 29.6045 58.8841 30.211C58.8856 30.2803 58.8838 30.3525 58.882 30.4255C58.8762 30.6594 58.8703 30.9005 58.9714 31.0734C59.2674 31.58 59.2831 32.1236 59.2988 32.6659C59.3064 32.9295 59.314 33.1928 59.3538 33.4514C59.4941 34.3682 59.1046 35.2013 58.6045 35.8937C57.3905 37.5747 57.1818 39.5137 56.9733 41.4513L56.9564 41.6081C56.8895 42.2354 57.2858 42.6903 57.6881 43.152C57.7568 43.2309 57.8257 43.31 57.8925 43.3901L57.9252 43.4294C58.6496 44.299 58.8198 44.5033 59.6667 44.1546L59.7596 44.116C60.2909 43.8947 60.637 43.7505 60.7572 44.5499C60.7654 44.6102 60.9933 44.6462 61.1697 44.6741L61.196 44.6783C61.2174 44.6817 61.2379 44.685 61.2568 44.6882C61.3279 44.7002 61.4247 44.7003 61.5133 44.7003L61.5134 44.7003C61.6327 44.7004 61.7374 44.7005 61.7452 44.7296C61.9258 45.4415 62.324 45.0383 62.5234 44.8364L62.5335 44.8262C62.601 44.758 62.6696 44.6896 62.7386 44.6209L62.7387 44.6209L62.7387 44.6209L62.7387 44.6209L62.7389 44.6207C63.1942 44.1674 63.6655 43.6982 63.9213 43.142C64.0111 42.9465 64.1229 42.7557 64.2352 42.5639L64.2352 42.5638L64.2353 42.5638L64.2353 42.5637L64.2353 42.5637L64.2354 42.5636L64.2354 42.5636L64.2354 42.5635L64.2355 42.5635L64.2355 42.5634L64.2355 42.5633L64.2355 42.5633L64.2356 42.5632L64.2356 42.5632L64.2356 42.5631L64.2357 42.5631L64.2357 42.563L64.2357 42.563L64.2358 42.5629L64.2358 42.5628L64.2358 42.5628L64.2359 42.5627L64.2359 42.5627L64.2359 42.5626L64.236 42.5626C64.5178 42.0813 64.8034 41.5939 64.7568 41.0097C64.6931 40.6299 64.8192 40.2418 65.0944 39.9704C65.1973 39.8207 65.2552 39.6447 65.2613 39.4635C65.2792 39.345 65.2977 39.2264 65.3161 39.1079C65.3961 38.5938 65.4761 38.0792 65.5115 37.5621C65.5352 37.2148 65.5348 36.8661 65.5344 36.5174C65.5339 36.161 65.5335 35.8046 65.5588 35.4499C65.5943 34.9489 65.5859 34.4452 65.5775 33.9482L65.5775 33.9481L65.5775 33.9472C65.5759 33.8487 65.5742 33.7504 65.5729 33.6525C65.5715 33.5401 65.5719 33.4266 65.5724 33.3126L65.5724 33.3125C65.5756 32.542 65.5789 31.747 64.9842 31.0896C64.5819 30.5994 64.2066 30.0878 63.8597 29.5568C63.3862 29.6032 63.0935 29.328 62.802 29.0541C62.6148 28.8781 62.4281 28.7026 62.1944 28.6131C61.7036 28.8211 61.4627 28.9231 61.2929 28.853ZM82.3649 171.363C83.3382 170.514 84.4264 169.943 85.6908 169.983C85.8138 169.794 85.9236 169.619 86.0264 169.455L86.0267 169.455L86.0277 169.453L86.0279 169.453C86.2327 169.126 86.4102 168.844 86.6104 168.58C87.0068 168.062 87.2971 167.439 86.9232 166.914C86.4771 166.286 86.3231 165.779 86.81 165.145C86.8569 165.065 86.8645 164.968 86.8307 164.882C86.4796 164.174 86.4599 163.417 86.4403 162.661L86.4403 162.661C86.4301 162.267 86.4198 161.872 86.3626 161.485L86.3404 161.333C86.2148 160.465 86.2081 160.418 85.2587 159.73C85.0679 159.592 84.8665 159.468 84.6351 159.326L84.4985 159.242C84.4246 159.196 84.3476 159.149 84.267 159.097C84.2557 158.311 84.2941 157.524 84.382 156.742C84.4166 156.527 84.4116 156.304 84.4065 156.08C84.396 155.609 84.3853 155.137 84.7438 154.734C84.445 154.407 84.4535 154.008 84.4613 153.645C84.4664 153.41 84.4711 153.189 84.3905 153.015L83.0671 152.291L82.5448 152.913C82.5091 152.689 82.4883 152.558 82.4793 152.499L81.8256 152.422C81.1936 154.747 80.783 157.125 80.5993 159.524C80.5896 159.894 80.36 160.224 80.0161 160.361C80.0548 159.987 80.0868 159.622 80.1181 159.263C80.1871 158.474 80.2533 157.718 80.3824 156.972C80.5479 156.016 80.7665 155.069 80.9855 154.121L80.9856 154.12L80.9858 154.119L80.9859 154.119L80.9861 154.118L80.9863 154.117C81.0806 153.708 81.1751 153.299 81.2654 152.889C80.3061 152.813 80.3053 152.815 80.0885 153.545L80.0788 153.577C79.4473 155.702 79.13 157.888 78.8137 160.068L78.8137 160.068C78.7655 160.4 78.7173 160.732 78.6681 161.064C78.3031 163.521 78.0334 166.004 78.4067 168.508C78.4795 168.997 78.649 169.434 78.8182 169.871L78.8183 169.871C78.8952 170.07 78.972 170.268 79.0397 170.47C79.1582 170.712 79.3909 170.877 79.6584 170.908C80.0411 170.869 80.311 171.011 80.601 171.164L80.6572 171.194C80.7131 171.223 80.77 171.253 80.8289 171.281C80.866 171.299 80.9039 171.317 80.9424 171.336C81.3681 171.545 81.8727 171.793 82.3649 171.363ZM97.5116 131.399C97.484 131.073 97.4646 130.755 97.4456 130.444C97.4052 129.784 97.3667 129.155 97.2565 128.54C96.8802 126.437 97.3336 124.431 97.7868 122.425C97.8935 121.953 98.0001 121.481 98.096 121.007C98.2867 120.067 98.9136 119.379 99.5333 118.699L99.5341 118.698C99.6495 118.572 99.7647 118.445 99.8768 118.318C99.9607 118.222 100.133 118.203 100.311 118.184C100.394 118.175 100.479 118.166 100.557 118.148L100.55 118.18C100.446 118.615 100.349 119.028 100.208 119.623L101.495 118.089C101.64 118.124 101.778 118.166 101.911 118.206C102.203 118.294 102.472 118.375 102.738 118.364C103.13 118.365 103.49 118.578 103.679 118.921C103.837 119.14 103.906 119.424 103.979 119.721C104.011 119.853 104.044 119.987 104.086 120.12C103.239 120.781 102.989 121.72 102.789 122.75C102.943 122.821 103.068 122.943 103.195 123.068C103.422 123.29 103.656 123.519 104.075 123.475C104.268 123.506 104.432 123.632 104.513 123.81C104.612 124.103 104.735 124.392 104.857 124.68C105.251 125.611 105.646 126.543 105.294 127.633L105.27 127.706L105.27 127.707C105.19 127.949 105.097 128.231 105.174 128.427C105.228 128.564 105.162 128.683 105.097 128.801C105.006 128.964 104.917 129.126 105.145 129.332C105.36 129.528 105.21 129.665 105.057 129.805C104.981 129.875 104.904 129.946 104.871 130.025C104.77 130.324 104.648 130.616 104.505 130.899C104.339 131.139 104.154 131.365 103.951 131.575C102.501 131.633 101.086 132.043 99.8267 132.771L97.5116 131.399ZM105.628 64.4612L105.626 64.4609C105.049 64.406 104.481 64.352 103.917 64.2685C103.872 64.2619 103.845 64.1278 103.812 63.9585L103.812 63.9583L103.812 63.958C103.794 63.8682 103.775 63.7686 103.749 63.6729C103.509 63.7831 103.26 63.8753 103.006 63.9488C102.717 63.9929 102.427 64.0221 102.135 64.0364L102.057 64.0448C101.495 64.1062 100.936 64.1671 100.89 63.322C100.888 63.2806 100.834 63.2445 100.777 63.2066C100.742 63.1831 100.706 63.1588 100.68 63.1321C100.56 63.0068 100.431 62.8948 100.303 62.7835C99.926 62.4549 99.5549 62.1318 99.4277 61.4869C99.3733 61.2113 99.2868 60.9368 99.1994 60.6591C99.0661 60.2361 98.9306 59.8058 98.9024 59.3527C98.8141 58.6512 98.8266 57.94 98.9396 57.2408C99.1817 56.1413 99.4221 55.0555 100.317 54.2775C100.612 54.0879 100.929 53.9343 101.26 53.82L101.473 54.9727C101.663 54.848 101.842 54.702 102.024 54.5545L102.024 54.5543C102.503 54.1645 102.995 53.7638 103.726 53.7164L103.983 54.8216L104.67 54.0028C104.932 54.1554 105.198 54.2903 105.461 54.4237C106.041 54.7175 106.607 55.0045 107.087 55.4595C107.471 55.7938 107.721 56.2557 107.791 56.761C107.814 56.9721 107.854 57.1797 107.895 57.3878C107.974 57.7898 108.053 58.1936 108.003 58.6278C107.968 58.9286 107.97 59.2338 107.973 59.5419C107.976 59.8428 107.978 60.1465 107.946 60.4517C107.877 61.0858 107.661 61.6689 107.444 62.2511C107.315 62.5997 107.185 62.948 107.088 63.3067C107.003 63.6216 106.733 63.8873 106.466 64.1504C106.345 64.269 106.225 64.3871 106.123 64.5089C105.96 64.4927 105.798 64.4773 105.636 64.4619L105.628 64.4612ZM38.7817 48.7173L40.8047 46.3064L40.6403 46.0845C40.4454 46.2155 40.2288 46.3342 40.0123 46.453L40.0122 46.453L40.0122 46.453C39.5204 46.7226 39.0285 46.9922 38.7896 47.4061C38.6904 47.579 38.5809 47.7495 38.4705 47.9217L38.4704 47.9218C38.1196 48.4685 37.7584 49.0314 37.6804 49.7357C37.6344 50.1511 37.5309 50.5625 37.4274 50.9736C37.1877 51.9264 36.9483 52.8776 37.4262 53.8732C37.0989 54.5299 37.3774 55.0901 37.6447 55.628C37.7165 55.7725 37.7875 55.9154 37.8458 56.0581C38.2226 56.9816 38.6549 57.9351 39.8816 58.0858C40.6978 58.186 41.5092 58.3244 42.3121 58.4615L42.3124 58.4616C42.6632 58.5214 43.0123 58.581 43.3596 58.6371C43.6328 58.2627 43.9342 57.9097 44.2612 57.5812C44.9636 56.9768 45.1459 56.1174 45.1759 55.328C45.193 54.8666 45.366 54.4237 45.6666 54.0718C45.7734 53.5802 45.6816 53.1504 45.5926 52.7333C45.5139 52.3649 45.4374 52.0065 45.5018 51.6242C45.5112 51.2111 45.3324 50.8173 45.0158 50.5541C44.8235 50.4102 44.6527 50.2339 44.4813 50.0568L44.4813 50.0568L44.4812 50.0568L44.4812 50.0568L44.4812 50.0568L44.4812 50.0567L44.4811 50.0567L44.4811 50.0567L44.4811 50.0567L44.481 50.0566L44.481 50.0566L44.481 50.0566L44.481 50.0566L44.4809 50.0566L44.4809 50.0565L44.4809 50.0565L44.4809 50.0565L44.4808 50.0565L44.4808 50.0564L44.4808 50.0564L44.4808 50.0564C44.0923 49.6553 43.7003 49.2506 43.0477 49.2106C42.948 49.2046 42.8649 49.0535 42.7755 48.8909L42.7755 48.8909C42.7138 48.7786 42.649 48.6608 42.5736 48.5814C42.5153 48.5199 42.4159 48.4975 42.2842 48.4678C42.2142 48.452 42.1351 48.4342 42.0482 48.4073C42.2645 48.2109 42.4482 47.9812 42.5921 47.7269C42.677 47.4941 42.6881 47.0427 42.5594 46.9634C42.1663 46.748 41.7421 46.5945 41.3017 46.5082C40.9779 46.4295 40.8197 46.6518 40.6659 46.8677C40.6203 46.9318 40.575 46.9953 40.526 47.0503C40.4283 47.1594 40.3326 47.2703 40.2367 47.3813L40.2367 47.3814C39.8093 47.8762 39.3809 48.3722 38.7817 48.7173ZM52.2103 76.5958L51.9722 73.7735C52.3 73.3379 52.6576 72.9253 53.0422 72.5388C53.1994 72.3957 53.565 72.4276 53.8165 72.4772C53.8829 72.4902 53.9227 72.6356 53.9624 72.7807C53.9797 72.8439 53.997 72.9071 54.0164 72.9592C54.0795 72.932 54.1433 72.9011 54.2075 72.87C54.5841 72.6877 54.9786 72.4968 55.3702 72.9811C55.4507 73.0993 55.5724 73.1829 55.7117 73.2158C56.1715 73.2233 56.6593 73.2453 56.9265 73.6365C57.0177 73.7699 57.1138 73.9028 57.2103 74.0365C57.6209 74.6048 58.0406 75.1857 58.1405 75.8693C58.3839 77.5388 58.517 79.2425 57.9555 80.8874C57.6369 81.8765 57.224 82.8331 56.7223 83.7439C56.4569 84.2202 55.9432 84.5037 55.4009 84.4734C55.0116 84.4404 54.6214 84.4158 54.2313 84.3912L54.2311 84.3912L54.2308 84.3912L54.2307 84.3911L54.2304 84.3911L54.2303 84.3911L54.23 84.3911L54.2299 84.3911L54.2296 84.3911L54.2294 84.391L54.2292 84.391L54.229 84.391L54.2287 84.391L54.2286 84.391L54.2283 84.391L54.2282 84.3909L54.2279 84.3909L54.2278 84.3909L54.2275 84.3909L54.2273 84.3909C53.607 84.3517 52.9868 84.3126 52.3707 84.2398C52.0071 84.198 51.6662 84.0442 51.3948 83.7996C49.8905 82.2965 49.3788 80.5579 50.4471 78.3114C50.498 78.2043 50.5394 78.0873 50.5806 77.9706C50.6656 77.7304 50.7502 77.4913 50.9165 77.3426C51.3197 77.0475 51.7535 76.7971 52.2103 76.5958ZM21.3651 118.741L20.9304 119.528C21.3895 119.302 21.704 119.046 21.7285 118.473C21.7445 118.108 21.8434 117.755 21.9431 117.4L21.9431 117.4C22.0775 116.921 22.2133 116.437 22.1491 115.909C22.0843 115.587 22.0575 115.258 22.0691 114.929C22.3797 112.943 21.7877 111.177 20.9423 109.455L20.923 109.415L20.9096 109.387C20.8139 109.188 20.6861 108.921 20.5712 108.92C20.2037 108.915 20.0829 108.699 19.9548 108.469C19.9242 108.415 19.8931 108.359 19.8582 108.305C19.7568 108.15 19.5627 107.936 19.4228 107.946C18.9508 107.979 18.5304 107.84 18.1065 107.7L18.1064 107.7C18.0149 107.669 17.9233 107.639 17.8309 107.61C17.716 107.575 17.4896 107.521 17.4691 107.848C17.4586 108.009 17.3577 108.164 17.2428 108.341C17.187 108.426 17.1279 108.517 17.0741 108.616C16.7577 107.883 16.4068 107.383 15.7132 107.579C15.6459 107.774 15.5677 107.963 15.4912 108.147L15.4912 108.147L15.4912 108.147L15.4911 108.147L15.4911 108.147L15.4911 108.147L15.4911 108.147L15.491 108.147L15.491 108.148L15.491 108.148L15.491 108.148L15.4909 108.148L15.4909 108.148L15.4909 108.148L15.4909 108.148L15.4908 108.148L15.4908 108.148L15.4908 108.148L15.4907 108.148C15.3272 108.542 15.1717 108.917 15.1484 109.299C15.1258 109.666 15.0558 110.033 14.9856 110.4C14.8356 111.184 14.6854 111.969 14.9994 112.768C14.6528 114.498 15.2125 116.058 15.7744 117.625L15.7744 117.625L15.7748 117.626C15.822 117.757 15.8693 117.889 15.916 118.021C16.0471 118.567 16.5161 118.962 17.0757 119C17.1007 119.003 17.1268 119.005 17.1535 119.008C17.3792 119.028 17.6524 119.053 17.7091 119.475C17.7686 119.637 17.8972 119.763 18.0599 119.82C18.2226 119.877 18.4026 119.858 18.5509 119.769C18.919 119.511 19.3589 119.453 19.8004 119.394C20.3694 119.319 20.941 119.243 21.3651 118.741ZM132.675 124.017L133.306 123.451C133.317 123.496 133.331 123.535 133.344 123.57C133.366 123.635 133.383 123.684 133.37 123.724C133.288 123.981 133.212 124.24 133.136 124.499L133.136 124.499C132.933 125.193 132.729 125.887 132.392 126.538L132.344 126.631C132.071 127.162 131.811 127.667 131.088 127.654C130.889 127.651 130.724 127.792 130.559 127.933C130.291 128.163 130.023 128.392 129.612 128.005C128.856 128.254 128.378 127.79 127.915 127.34L127.879 127.305C127.502 127.576 127.107 127.82 126.697 128.038C126.237 128.246 125.619 127.895 125.183 127.249C125.143 127.189 125.116 127.114 125.089 127.041C125.05 126.935 125.012 126.831 124.936 126.777L124.909 126.758C123.938 126.079 123.936 126.078 124.162 125.022C124.246 124.485 124.361 123.953 124.506 123.428C124.719 122.85 124.671 122.209 124.374 121.672C123.936 120.816 123.974 119.791 124.474 118.964C124.916 118.215 125.728 117.868 126.709 117.883L126.684 118.419L126.683 118.434L126.678 118.538L126.676 118.575L126.676 118.585L126.676 118.591L126.674 118.617C126.655 119.021 126.634 119.462 126.609 119.996C126.753 119.824 126.882 119.669 127.001 119.527L127.004 119.523L127.007 119.519L127.01 119.515L127.013 119.512L127.016 119.508C127.265 119.21 127.469 118.964 127.679 118.724C127.929 118.438 127.964 118.449 128.368 118.578C128.47 118.61 128.597 118.651 128.757 118.696C128.948 118.749 129.121 118.867 129.293 118.986C129.629 119.216 129.965 119.446 130.435 119.2L131.682 120.168C132.451 120.763 133.042 121.398 132.691 122.521C132.595 122.826 132.621 123.169 132.649 123.524C132.661 123.686 132.674 123.852 132.675 124.017ZM17.8793 34.6573C17.3654 35.4078 17.4141 36.4066 17.9983 37.0968L19.1831 36.478C18.8644 37.2394 18.744 37.915 19.382 38.5811C19.6653 38.4523 19.9548 38.338 20.2495 38.2386C20.3278 38.2158 20.4174 38.2119 20.5061 38.2081C20.7562 38.1974 20.9995 38.1869 20.9643 37.7515L21.5895 38.3621C22.0396 38.1486 22.6414 37.8637 23.2054 37.5968C23.2602 37.6727 23.3135 37.7475 23.3661 37.821L23.367 37.8223C23.5347 38.0572 23.694 38.2803 23.8655 38.4933C23.8948 38.532 24.0774 38.5139 24.1131 38.4653C24.19 38.3597 24.2927 38.1717 24.2492 38.1007C24.2058 38.0295 24.1273 37.9729 24.0514 37.9182C23.9599 37.8523 23.8721 37.7891 23.8538 37.7061C23.8327 37.6129 23.903 37.4984 23.9987 37.3425C24.0486 37.2613 24.1054 37.1689 24.1597 37.0624L24.2724 37.8386C24.489 37.5804 24.7021 37.3268 24.9123 37.0767L24.9125 37.0764L24.9126 37.0762C25.6843 36.1578 26.4168 35.2859 27.1413 34.4075C27.1849 34.3545 27.1948 34.2763 27.2049 34.1964C27.2127 34.1343 27.2207 34.0712 27.2447 34.0181C27.3774 33.725 27.4568 33.4067 27.5345 33.0945C27.6879 32.479 27.8353 31.8876 28.3741 31.5617C28.6543 30.7889 28.2547 30.3957 27.8791 30.0261C27.6327 29.7837 27.3966 29.5514 27.3694 29.2287C27.1645 29.184 26.9528 29.1579 26.7465 29.1324C26.3025 29.0776 25.8833 29.0259 25.6095 28.7988C25.3093 28.55 24.9619 28.5219 24.6213 28.4943C24.2741 28.4662 23.9338 28.4387 23.6577 28.1785C23.5869 28.1116 23.2448 28.1988 23.1499 28.3156C22.9792 28.5255 22.7572 28.6577 22.5327 28.7915C22.2822 28.9408 22.0284 29.0919 21.839 29.3549C21.0988 30.387 20.2825 31.3624 19.3969 32.2728C18.9252 32.7551 18.6155 33.3289 18.3081 33.8987C18.1696 34.1553 18.0315 34.4111 17.8793 34.6573ZM56.5905 157.511L56.5902 157.511L56.5899 157.51C56.1404 157.079 55.7368 156.692 55.0431 157.039C55.0964 156.018 55.4133 155.528 56.3102 155.434C56.5381 155.41 56.7603 155.361 56.9836 155.313L56.9837 155.313L56.9837 155.313L56.9838 155.313L56.9839 155.313L56.9839 155.313L56.984 155.313L56.9841 155.313L56.9841 155.313L56.9842 155.313L56.9843 155.313L56.9843 155.313L56.9844 155.313L56.9844 155.313L56.9845 155.313L56.9846 155.313C57.3678 155.23 57.7543 155.146 58.1783 155.183C58.5179 155.212 58.8672 155.071 59.2221 154.928C59.4819 154.823 59.7447 154.717 60.0088 154.676C60.3414 154.624 60.6892 154.673 61.0369 154.722C61.192 154.743 61.3471 154.765 61.5009 154.778L61.5646 155.454L60.7254 155.389L60.6705 155.573L61.5717 156.114C61.566 156.163 61.5499 156.226 61.5317 156.298C61.4837 156.487 61.4213 156.732 61.4984 156.92C62.137 158.472 62.0281 160.078 61.8621 161.681C61.8299 161.993 61.7165 162.295 61.6026 162.599L61.6025 162.599C61.5242 162.808 61.4457 163.017 61.3932 163.23L61.3423 163.439C61.0688 164.558 61.0015 164.834 60.2115 165.513C59.6069 166.032 58.9583 166.582 58.0752 166.679C57.7087 166.696 57.3574 166.834 57.0758 167.07C56.5259 167.676 56.0997 167.489 55.6244 167.035C55.4873 166.907 55.3304 166.802 55.1598 166.724C54.0834 166.225 54.0134 166.125 54.1438 165.081C54.3043 163.795 54.7826 162.605 55.2601 161.418L55.2601 161.418C55.3562 161.179 55.4522 160.941 55.5456 160.701C55.8187 160 56.1312 159.315 56.4396 158.638L56.44 158.637C56.5761 158.339 56.7113 158.042 56.8421 157.746C56.7554 157.669 56.6722 157.589 56.5905 157.511ZM52.8351 133.102C52.8855 133.235 52.9361 133.369 52.9856 133.503C53.4385 133.222 53.9585 133.123 54.0785 133.6C54.2481 134.282 54.5752 134.035 54.8414 133.826C54.8932 133.785 54.943 133.739 54.9924 133.693C55.1631 133.533 55.3302 133.377 55.5642 133.472C55.929 133.62 56.2558 133.516 56.5784 133.413C56.7173 133.369 56.8554 133.325 56.9955 133.302C57.3722 133.238 57.8758 133.018 58.0274 132.718C58.2632 132.195 58.3811 131.627 58.3726 131.054C58.3779 130.717 58.3084 130.38 58.2388 130.043C58.193 129.82 58.147 129.598 58.1223 129.374C58.0907 129.091 58.0693 128.806 58.0479 128.52C57.9871 127.711 57.9264 126.901 57.6319 126.131C57.5025 125.793 57.4139 125.439 57.3253 125.086L57.3252 125.086C57.1588 124.422 56.9925 123.758 56.5555 123.198C56.0886 122.68 55.8041 122.023 55.7451 121.326C55.7037 120.545 55.3343 120.349 54.4429 120.272C54.3357 120.263 54.2122 120.24 54.0877 120.218C53.7951 120.164 53.4977 120.11 53.3967 120.225C53.1343 120.525 52.9543 120.379 52.7749 120.234C52.6099 120.1 52.4454 119.967 52.2178 120.181C51.766 121.725 51.7845 123.388 51.8029 125.043C51.805 125.232 51.8071 125.421 51.8085 125.61C51.8175 126.786 51.9373 127.961 52.0572 129.136L52.0572 129.136C52.1156 129.708 52.174 130.281 52.2196 130.853C52.283 131.647 52.5568 132.369 52.8351 133.102ZM103.089 160.338L103.089 160.338L103.098 160.284C103.318 159.041 103.625 157.814 104.017 156.613C104.103 156.353 104.176 156.084 104.248 155.814C104.509 154.846 104.775 153.857 105.73 153.156C105.903 153.805 105.72 154.395 105.53 155.006C105.356 155.562 105.177 156.137 105.258 156.79C105.719 156.077 105.968 155.327 106.227 154.548C106.425 153.95 106.63 153.335 106.94 152.705L107.334 153.725C107.533 153.559 107.741 153.384 107.949 153.21L109.18 153.898C109.17 153.971 109.156 154.053 109.142 154.142L109.142 154.142L109.141 154.144C109.106 154.362 109.064 154.62 109.043 154.879C108.928 156.289 108.934 156.3 109.718 157.64L109.738 157.674C109.823 157.833 109.89 158.001 109.938 158.175C110.353 159.486 110.628 160.803 110.293 162.196C110.152 162.829 109.89 163.429 109.52 163.964C109.447 164.08 109.415 164.216 109.428 164.352C109.447 164.475 109.4 164.6 109.305 164.68C109.209 164.76 109.078 164.784 108.961 164.743C108.551 164.668 108.158 164.75 107.765 164.832C107.448 164.898 107.131 164.964 106.806 164.947C106.522 164.952 106.253 165.081 106.07 165.299C105.753 165.581 104.777 165.471 104.542 165.159C104.493 165.095 104.479 165.004 104.465 164.912C104.437 164.73 104.408 164.547 104.107 164.574C103.867 164.61 103.63 164.661 103.397 164.728C102.577 163.153 102.836 161.73 103.089 160.338ZM88.4297 107.739L89.2062 108.197C89.5554 108.073 89.6991 107.78 89.8436 107.486C89.9743 107.22 90.1057 106.953 90.3904 106.807C90.5082 106.698 90.536 106.523 90.4575 106.384C90.3789 106.245 90.2148 106.179 90.0613 106.225C90.002 106.23 89.9321 106.112 89.8623 105.994C89.8301 105.94 89.798 105.886 89.7669 105.843C89.8029 105.819 89.8458 105.787 89.8887 105.754C89.9807 105.683 90.0727 105.613 90.0961 105.631C90.7099 106.105 90.9506 105.459 91.0475 105.18C91.1289 104.945 91.2145 104.712 91.3003 104.478C91.6503 103.522 92.0021 102.562 92.0717 101.54L92.0727 101.526C92.1087 100.995 92.1546 100.319 91.2788 100.314C91.2339 100.312 91.1654 100.222 91.1469 100.16C90.9428 99.4876 90.5187 99.4295 89.9553 99.7196C89.4633 99.9728 89.4374 99.6469 89.417 99.3918L89.4134 99.3478L88.3893 99.3224L87.8367 100.493C87.7748 100.323 87.7875 100.152 87.8 99.9851C87.8214 99.6994 87.8419 99.4241 87.4871 99.1781L87.3148 99.241L87.3144 99.2411L87.3134 99.2415L87.3124 99.2419L87.3121 99.242L87.3112 99.2423C87.143 99.3038 86.9555 99.3722 86.7672 99.4383C86.6757 99.47 86.5757 99.5179 86.4756 99.5659C86.2541 99.6721 86.0322 99.7784 85.9016 99.7097C85.3612 99.4255 85.2604 99.7617 85.1693 100.065C85.1575 100.105 85.1458 100.144 85.1333 100.181C84.9894 100.607 84.8657 101.039 84.7421 101.472C84.6551 101.776 84.5682 102.081 84.4742 102.383C84.4006 102.558 84.3095 102.725 84.2023 102.882L83.9722 102.788C84.2614 101.756 84.5509 100.724 84.8761 99.5645C84.1377 100.115 83.9497 100.751 83.7523 101.447C83.4437 102.548 83.2781 103.683 83.2598 104.825C83.2319 106.271 83.4659 107.687 84.914 108.505C85.0258 108.58 85.1301 108.666 85.2257 108.762L88.2717 108.485L88.4297 107.739ZM105.282 80.8266L105.354 81.6786L105.66 81.3888C105.838 81.2207 106.004 81.0631 106.18 80.8964C106.341 80.9822 106.505 81.0667 106.67 81.152C107.06 81.3538 107.458 81.5593 107.839 81.7932C108.169 81.9969 108.468 82.2488 108.724 82.5407C108.805 82.6333 108.759 82.7345 108.708 82.8491C108.637 83.0071 108.555 83.1905 108.776 83.4121C108.981 83.6164 108.894 84.0824 108.815 84.5069L108.815 84.5073L108.815 84.508L108.814 84.5093C108.798 84.5965 108.782 84.6819 108.769 84.7629C108.749 84.8874 108.663 85.0095 108.577 85.133C108.393 85.3937 108.206 85.6608 108.622 85.9711L107.764 87.1165C107.745 87.1421 107.729 87.17 107.712 87.1978L107.698 87.2215L107.691 87.2348L107.949 90.2973C108.141 90.4371 108.322 90.592 108.49 90.7605C108.73 91.0374 108.796 91.5645 108.51 91.6166C108.17 91.6787 108.111 91.92 108.055 92.1493C108.007 92.3481 107.96 92.5379 107.734 92.5938C106.652 92.1298 106.356 91.93 105.757 91.2171C105.612 91.7474 105.485 92.2098 105.326 92.7907C105.265 92.795 105.19 92.8103 105.11 92.8265C104.922 92.8649 104.71 92.9083 104.608 92.8215C104.413 92.6558 104.208 92.4993 104.001 92.3425C103.238 91.7622 102.471 91.1786 102.259 90.1193C102.148 89.7641 102.076 89.3975 102.045 89.0262C102.064 88.3184 102.134 87.6114 102.204 86.9052L102.226 86.6794L102.239 86.5458C102.262 86.3098 102.299 86.0751 102.335 85.8404C102.362 85.6698 102.389 85.4992 102.41 85.328C102.44 85.0897 102.541 84.8669 102.641 84.6441C102.806 84.2778 102.971 83.9117 102.823 83.4774C103.196 83.1456 103.306 82.7119 103.418 82.2685L103.418 82.2683C103.452 82.1324 103.487 81.9956 103.529 81.8606C103.618 81.4866 103.855 81.1644 104.187 80.9691C104.518 80.7737 104.914 80.7222 105.282 80.8266ZM85.8247 36.1165L84.7938 35.2514C84.1823 34.6118 83.4313 34.1224 82.5987 33.8208C82.2436 33.6902 81.8629 33.6589 81.4793 33.6274C81.0893 33.5954 80.6963 33.5631 80.3241 33.426C80.2401 33.3949 80.0502 33.5105 79.9795 33.6083C79.7585 33.9083 79.5591 34.2237 79.3828 34.552C79.0583 35.1674 79.016 35.8329 78.9735 36.5004C78.9608 36.7011 78.948 36.9019 78.9276 37.1016C78.754 38.8056 78.9521 40.3593 80.3845 41.5149C80.497 41.5945 80.5763 41.7127 80.6074 41.8472C80.633 42.3653 80.9623 42.4158 81.2901 42.4661C81.4692 42.4936 81.648 42.521 81.7765 42.6247C82.4761 42.3998 83.1623 42.5584 83.8314 42.713C84.0686 42.7679 84.3037 42.8222 84.5365 42.8587C85.3284 42.9832 85.7581 42.7749 86.0365 42.2161C86.0918 42.1051 86.1489 41.9941 86.2062 41.8828C86.6544 41.0114 87.1119 40.122 86.8161 39.064C86.7769 38.9221 86.7768 38.7684 86.7766 38.6143C86.7764 38.2916 86.7761 37.9673 86.4165 37.7467C86.3253 37.6574 86.2871 37.5269 86.3155 37.4019C86.6732 36.8073 86.3067 36.5093 85.9381 36.2096C85.9001 36.1787 85.862 36.1477 85.8247 36.1165ZM37.2688 88.2536C37.2151 88.6493 37.1756 88.9402 37.0992 89.5054C37.2459 89.3714 37.3557 89.2718 37.4425 89.193L37.443 89.1926L37.4434 89.1922C37.5816 89.0669 37.6615 88.9944 37.7399 88.9195L37.7413 88.9181C37.9347 88.7333 38.0392 88.6333 38.1543 88.6191C38.2899 88.6023 38.4401 88.7043 38.7671 88.9262L38.7687 88.9273C38.7881 88.9405 38.809 88.9567 38.8305 88.9734C38.893 89.022 38.9596 89.0738 39.003 89.0598C39.5252 88.8668 40.1085 89.0725 40.3913 89.5496C40.7632 90.059 41.0304 90.6376 41.1774 91.2521C41.5766 93.5865 41.0706 95.842 40.3025 98.0411C40.2129 98.2979 39.9991 98.5118 39.7866 98.7244C39.689 98.8221 39.5915 98.9195 39.5066 99.0207L39.1201 98.6155C38.81 99.0419 38.4692 99.2642 37.9207 98.967C37.6976 98.8852 37.448 98.9194 37.2538 99.0583C36.9836 99.3233 36.7691 99.2001 36.5587 99.0792C36.4153 98.9969 36.2738 98.9156 36.1178 98.9591C36.1685 98.5992 35.9286 98.4704 35.6871 98.3406C35.4766 98.2275 35.2648 98.1138 35.2433 97.8458C35.228 97.6523 35.1921 97.456 35.1564 97.2604C35.0901 96.8975 35.0241 96.5367 35.0901 96.199C35.2861 95.0446 35.6058 93.914 36.0439 92.8269C36.2803 92.3712 36.323 91.8402 36.1621 91.3549C35.8728 90.6125 35.8261 89.7962 36.0286 89.0226L36.0358 88.9964C36.2128 88.3543 36.2141 88.3496 37.2688 88.2536ZM69.5147 92.3485C69.3813 92.4656 69.2636 92.5995 69.1647 92.747C69.1246 93.2224 69.1371 93.6804 69.1493 94.1292C69.1552 94.3426 69.1609 94.5539 69.161 94.7641C69.1568 96.0666 69.1551 97.4048 69.8144 98.6513C70.255 99.4833 70.9419 99.9222 71.6852 99.7469C71.8981 99.6967 72.1238 99.7199 72.3484 99.743C72.7503 99.7844 73.1489 99.8254 73.4653 99.4451C74.1491 99.8704 74.4716 99.2748 74.6471 98.8741C75.1381 97.7534 75.6107 96.5998 75.5733 95.3417C75.5664 95.1101 75.5131 94.8806 75.4598 94.6509L75.4598 94.6508C75.4104 94.4384 75.3611 94.2258 75.3484 94.0111C75.3272 93.6562 75.3478 93.2986 75.3701 92.9125L75.3701 92.9124C75.3802 92.7372 75.3906 92.5562 75.3976 92.3669L73.4889 91.3085L73.3231 91.4514L73.2122 91.5468L73.2102 91.5485C73.0692 91.6699 72.9262 91.7929 72.7533 91.9424L72.3671 89.8824C72.2128 89.8921 72.0522 89.918 71.9007 89.9423C71.5927 89.9919 71.3227 90.0353 71.2217 89.9242C71.0575 89.7442 70.8604 89.6676 70.6632 89.5909C70.4697 89.5157 70.2762 89.4404 70.1137 89.2675C70.102 89.4797 70.2415 89.636 70.376 89.7866C70.5844 90.0199 70.7808 90.2397 70.3841 90.6336L70.0519 89.9706C69.4307 90.3542 69.6043 90.8531 69.7846 91.3714L69.7847 91.3717C69.8024 91.4226 69.8202 91.4737 69.8373 91.5248C69.9446 91.2806 70.0533 91.0371 70.1877 90.7351C70.2942 90.8482 70.3808 90.9787 70.4435 91.121C70.4843 91.3044 70.4773 91.4955 70.4233 91.676C70.4062 91.7236 70.3358 91.748 70.2612 91.7739C70.193 91.7976 70.1211 91.8225 70.0833 91.8676C70.0414 91.9187 70.0238 91.9924 70.0065 92.0648C69.9874 92.1447 69.9688 92.2229 69.9182 92.2672C69.8729 92.3073 69.795 92.3086 69.7162 92.31C69.6404 92.3114 69.5638 92.3127 69.5147 92.3485ZM75.3409 122.761L75.735 123.415C76.1859 122.923 76.1742 122.381 76.1624 121.832C76.1524 121.365 76.1422 120.893 76.4158 120.441C76.5351 120.634 76.6323 120.84 76.7058 121.054C76.7565 121.402 76.7892 121.753 76.8037 122.104C77.0672 121.745 77.1951 121.304 77.1646 120.861C77.83 120.737 78.1224 120.682 78.3733 120.76C78.5699 120.822 78.7411 120.964 79.0463 121.219C79.052 121.447 79.0419 121.684 79.0317 121.922L79.0317 121.922C79.0083 122.47 78.9844 123.029 79.1494 123.523C79.3083 124 79.2535 124.446 79.199 124.889C79.164 125.174 79.1291 125.457 79.1514 125.747C79.1586 126.476 79.0567 127.202 78.8492 127.902C78.7761 128.308 78.5852 128.685 78.3004 128.984C77.94 129.297 77.3413 129.7 77.0012 129.59C76.6107 129.463 76.4168 129.608 76.2179 129.756C76.1316 129.82 76.0443 129.885 75.9395 129.929C75.4666 130.127 74.9352 130.26 74.4201 129.955C74.311 129.891 74.1777 129.841 74.0463 129.793L74.0462 129.793C73.8157 129.708 73.5914 129.626 73.5151 129.466C73.1965 128.859 72.9982 128.195 72.9309 127.51C72.8811 126.249 72.9125 124.985 73.025 123.726C73.0411 123.517 73.2027 123.318 73.3928 123.084L73.3929 123.084L73.393 123.084C73.4896 122.965 73.5936 122.837 73.6896 122.695L73.8239 123.388C74.0883 122.961 74.47 122.915 74.8303 122.872C75.0119 122.851 75.188 122.83 75.3409 122.761ZM34.57 158.217L34.8898 159.045C35.1452 158.616 35.3712 158.169 35.5664 157.709C35.6325 157.511 35.5999 157.128 35.4728 157.047C35.1939 156.869 35.1594 156.601 35.1272 156.351C35.1064 156.19 35.0866 156.036 35.0024 155.919C34.7883 155.625 34.7754 155.329 34.7627 155.035C34.7577 154.92 34.7527 154.805 34.7357 154.691C34.7014 154.46 34.697 154.218 34.6925 153.977C34.685 153.569 34.6775 153.165 34.5251 152.823C34.3731 152.482 34.3417 152.143 34.3107 151.809C34.2907 151.592 34.2708 151.378 34.2186 151.166C34.1266 150.792 34.0277 150.419 33.929 150.047L33.929 150.047L33.9289 150.047L33.9288 150.047L33.9287 150.046L33.9284 150.045L33.9282 150.044L33.8772 149.852C33.8507 149.752 33.8244 149.653 33.7984 149.553L32.589 148.538C32.3669 149.046 32.1546 148.869 31.9405 148.69C31.773 148.55 31.6045 148.409 31.4293 148.594C31.2872 148.737 31.3162 148.934 31.3454 149.132C31.386 149.409 31.4273 149.689 31.0083 149.833C30.9918 149.732 30.9833 149.627 30.9749 149.522C30.9417 149.107 30.9094 148.706 30.3838 148.628C29.87 149.303 29.9525 150.05 30.0352 150.796L30.047 150.904C30.0713 151.048 30.0827 151.193 30.0812 151.339C29.9567 152.94 29.9513 154.546 30.065 156.146C30.0793 156.332 30.0489 156.522 30.0184 156.712C29.9901 156.889 29.9618 157.065 29.9692 157.24L29.9721 157.312C29.9985 157.954 30.0257 158.618 30.6674 159.019C30.8982 158.804 30.9314 158.521 30.964 158.242C31.0034 157.906 31.0418 157.578 31.4251 157.39L31.6009 159.476L32.4832 159.627L32.9866 157.964C33.4514 158.914 33.5524 158.918 34.57 158.217ZM90.2768 77.4549C90.4009 77.5741 90.5333 77.6551 90.6593 77.7322C90.9013 77.8802 91.1195 78.0137 91.2096 78.3755L90.6298 78.1541C90.5632 78.306 90.4978 78.4586 90.4324 78.6113L90.4323 78.6116L90.4322 78.6119L90.4321 78.6122L90.4319 78.6125C90.2559 79.0236 90.0797 79.4351 89.8795 79.8327C89.8089 79.973 89.5542 80.1529 89.444 80.119C89.0879 80.0102 88.7545 80.0925 88.4244 80.1739C88.1909 80.2315 87.9591 80.2887 87.7221 80.2776C87.4531 80.2373 87.1992 80.1293 86.9842 79.9636C86.9288 79.9268 86.9036 79.8445 86.8785 79.7624C86.8536 79.6807 86.8286 79.5992 86.7741 79.5626C86.6056 79.4932 86.4257 79.4554 86.2431 79.451L86.2706 79.3903C86.6249 78.6076 86.6432 78.5671 86.1192 77.6972C85.9194 77.3658 85.9522 77.0375 85.9855 76.7047C86.0058 76.5016 86.0262 76.2968 85.9941 76.0886L85.5985 76.2728L85.3821 76.3736C85.3781 76.3046 85.365 76.2299 85.3521 76.1568C85.3253 76.0043 85.2998 75.8589 85.3607 75.7869C86.4899 74.4533 86.5143 74.4219 86.5797 73.1102C86.0676 73.3007 85.9949 73.7027 85.918 74.1283C85.867 74.4103 85.8141 74.7026 85.6303 74.9505C85.5843 74.8978 85.5258 74.8427 85.4689 74.789C85.3512 74.678 85.2403 74.5735 85.2607 74.5104C85.3051 74.3717 85.3456 74.2311 85.3859 74.0907C85.6185 73.2822 85.849 72.4808 86.827 72.0854C86.872 72.0673 86.9135 72.0496 86.9524 72.033C87.2218 71.9183 87.3627 71.8583 87.6379 72.0816C87.864 72.2299 88.125 72.3167 88.3955 72.3335C88.8755 72.397 89.358 72.4412 89.8629 72.4874L89.863 72.4874L89.8638 72.4875C90.0723 72.5066 90.2847 72.526 90.5022 72.5473L90.4534 72.9777C90.5184 73.2204 90.7308 73.2932 90.9127 73.3556C91.1615 73.441 91.3534 73.5068 91.0334 73.9613C90.9728 74.0475 91.0664 74.0844 91.1781 74.1283C91.3561 74.1985 91.5802 74.2867 91.2988 74.622C91.1761 74.7683 91.2383 75.0701 91.2982 75.3604L91.2982 75.3605L91.2983 75.3606C91.3248 75.4892 91.3509 75.6155 91.3602 75.7251C91.2378 75.7934 91.1185 75.8597 91.0006 75.9252L90.7193 76.0817C90.7418 76.1663 90.7644 76.2508 90.7873 76.3352L91.0904 76.2104L91.6118 75.9955C91.5502 76.3577 91.5071 76.6111 91.4637 76.8666L91.4095 77.1857C91.0604 77.2691 90.6685 77.3621 90.2768 77.4549ZM24.6219 78.0725L24.5775 79.5212C24.7828 79.5427 24.99 79.5408 25.1952 79.5155C25.3587 79.4414 25.5179 79.3577 25.6719 79.2651L25.6976 79.2531L25.6977 79.2531C25.8488 79.1828 26.089 79.0711 26.1149 79.1061C26.3192 79.3841 26.6258 79.3762 26.9317 79.3685C27.2595 79.3601 27.5865 79.3518 27.7854 79.6955C27.8969 79.6423 28.0056 79.5832 28.1109 79.5184C27.9771 79.2275 28.1541 79.1012 28.3291 78.9764C28.4211 78.9108 28.5126 78.8455 28.5582 78.7569C28.7544 78.3756 28.7988 77.9769 28.8427 77.5827C28.8738 77.3041 28.9046 77.0277 28.9886 76.7612C29.3592 75.611 29.4607 74.3924 29.2852 73.1999L26.7315 71.607L25.8136 72.701C25.6916 72.4922 25.6863 72.2522 25.6812 72.0194C25.6738 71.6853 25.6668 71.3662 25.3155 71.1758C24.6632 71.6811 24.1825 72.2948 24.1228 73.0546C24.0733 73.6834 23.9727 74.3041 23.8723 74.9241C23.7754 75.522 23.6787 76.1192 23.628 76.7224C23.5504 77.298 23.6266 77.8831 23.8489 78.4177L24.6219 78.0725ZM37.9085 113.866L37.4878 115.265L38.153 114.891C38.1557 114.899 38.1589 114.908 38.1625 114.916C38.169 114.932 38.1766 114.948 38.1842 114.964C38.209 115.017 38.2336 115.069 38.2181 115.103C37.997 115.562 37.8985 116.071 37.9322 116.579C37.9358 116.899 37.8951 117.22 37.8113 117.53C37.6605 118.059 37.7827 118.627 38.1371 119.045C38.3312 118.958 38.5315 118.869 38.6244 118.828L38.8501 119.803C38.8038 119.858 38.7701 119.903 38.7447 119.937C38.7058 119.989 38.6864 120.014 38.6705 120.013C38.423 119.983 38.1765 119.946 37.9426 119.912L37.7594 119.884C37.5567 120.237 37.3725 120.557 37.097 121.035L36.6369 119.997L35.9791 120.286L35.4205 120.532L34.8281 120.14L34.4091 120.64C33.4934 120.592 33.0818 120.15 32.97 119.295C32.9237 118.942 32.8587 118.592 32.7927 118.236L32.7927 118.236C32.6848 117.655 32.5746 117.061 32.5401 116.421L33.6109 116.54C33.8668 115.971 33.9996 115.355 34.0005 114.732C34.0102 114.269 34.138 113.809 34.2636 113.356L34.2637 113.356C34.3182 113.159 34.3724 112.964 34.4162 112.771C34.9443 112.667 35.0586 112.969 35.1792 113.287C35.211 113.371 35.2434 113.457 35.2839 113.536C35.3187 113.503 35.3582 113.472 35.3968 113.443C35.4781 113.38 35.5557 113.32 35.5778 113.245C35.7795 112.55 36.086 112.381 36.5793 112.757C36.9 113.002 37.2069 113.266 37.5092 113.525C37.6429 113.64 37.7758 113.754 37.9085 113.866ZM2.26517 92.8753L2.39742 91.6397L2.3531 91.6348L2.28495 91.6269C1.96813 91.5893 1.68934 91.5563 1.38197 91.8584C0.681994 92.5457 0.446909 93.4238 0.212615 94.2989C0.152319 94.5241 0.0920739 94.7492 0.0239694 94.9707C-0.112674 95.415 0.356593 95.9914 0.882121 96.2659C1.08936 96.3805 1.281 96.5213 1.4524 96.6847C1.86671 97.111 2.54518 97.1321 2.99017 96.7326C3.3277 96.4717 3.58444 96.323 3.99589 96.5068C4.34668 96.694 4.78427 96.5671 4.98349 96.2203C5.00721 96.1877 5.0306 96.1545 5.05407 96.1211C5.24535 95.849 5.44221 95.569 5.87342 95.5785C6.05502 95.5047 6.18754 95.3442 6.22549 95.1519C6.23368 95.0575 6.17474 94.9464 6.11954 94.8424C6.0613 94.7327 6.00724 94.6308 6.04056 94.5646C6.0823 94.4819 6.19856 94.4421 6.3192 94.4009C6.42994 94.363 6.54438 94.3239 6.60827 94.2491C7.05528 93.7266 6.89755 93.1237 6.62036 92.6212C6.54636 92.4865 6.4271 92.3814 6.30492 92.2738C6.12063 92.1114 5.92972 91.9432 5.87753 91.6585C5.87273 91.6324 5.70907 91.6408 5.51625 91.6507L5.51592 91.6507L5.51586 91.6507C5.36218 91.6586 5.19002 91.6675 5.06497 91.6606C4.92338 91.6303 4.7865 91.5814 4.65784 91.5154L3.88744 92.4335C3.9902 92.0342 4.04201 91.8333 4.08473 91.6685L3.43526 91.1235C3.35912 91.2709 3.28618 91.4138 3.21504 91.5532L3.215 91.5533C3.02318 91.9291 2.84447 92.2792 2.65164 92.6217C2.6163 92.6847 2.53978 92.7247 2.44114 92.7763C2.38792 92.8041 2.32827 92.8353 2.26517 92.8753ZM55.1721 101.474L55.8675 102.522C56.3222 102.286 56.6585 101.976 56.6114 101.385C57.0214 101.368 57.1207 101.627 57.2238 101.896C57.2946 102.08 57.3672 102.27 57.5436 102.377L58.159 101.869C58.4463 101.833 58.5314 102.024 58.6212 102.226C58.7099 102.425 58.8031 102.634 59.1006 102.645C59.4703 102.659 59.4616 102.919 59.4522 103.198C59.446 103.381 59.4396 103.572 59.5411 103.706C59.6681 103.943 59.7199 104.214 59.6899 104.482C59.6836 104.846 59.5838 105.196 59.4835 105.547C59.3442 106.035 59.2039 106.526 59.3119 107.064C59.3416 107.212 59.1808 107.399 58.9974 107.613C58.9057 107.72 58.8084 107.834 58.7263 107.952C58.5382 107.524 58.2159 107.57 57.8921 107.616C57.5845 107.66 57.2754 107.704 57.0785 107.342C56.9463 107.386 56.8281 107.48 56.7074 107.576C56.4275 107.798 56.1341 108.031 55.6217 107.679L55.7731 106.801L55.4076 106.968L55.0282 107.142C54.5926 106.923 54.6666 106.48 54.7189 106.167L54.7261 106.123C54.8977 105.105 54.8075 104.062 54.464 103.091C54.2518 102.475 54.3689 101.859 55.1721 101.474ZM72.4336 66.9898L74.7889 67.0614C74.8574 66.9272 74.945 66.7873 75.0358 66.6422C75.2477 66.3034 75.4773 65.9363 75.5242 65.5486C75.6633 64.5608 75.6484 63.5583 75.4802 62.5769C75.2585 61.4533 74.8321 60.3224 73.2979 60.4099C73.1995 60.4154 73.0979 60.3573 72.9833 60.2917C72.9237 60.2576 72.8605 60.2214 72.7924 60.1912C72.7276 60.3082 72.6526 60.4177 72.5811 60.5221C72.4351 60.7352 72.3039 60.9267 72.3059 61.1161C72.3071 61.2436 72.3108 61.371 72.3144 61.4981C72.3361 62.2553 72.3574 63.0015 71.874 63.6755C71.9805 64.2321 71.8375 64.753 71.6957 65.2699C71.6106 65.58 71.5259 65.8887 71.4957 66.2028L72.4336 66.9898Z" fill="#171B1B"/>
</svg>
