<svg width="91" height="99" viewBox="0 0 91 99" fill="none" xmlns="http://www.w3.org/2000/svg">
<path fill-rule="evenodd" clip-rule="evenodd" d="M89.6021 3.10656L89.6021 3.10655C89.54 3.0567 89.4753 3.00472 89.4073 2.94916C89.7361 2.3345 89.7314 2.16536 89.2661 1.82909L89.2362 1.80744C89.0123 1.64506 88.7744 1.47255 88.4436 1.50086C88.2831 1.51471 88.1203 1.49921 87.9573 1.48369C87.8019 1.46889 87.6464 1.45408 87.4924 1.46465C86.8574 1.50873 86.2421 1.6322 85.7565 2.09979C85.6005 2.25009 85.4371 2.39268 85.2679 2.54037L85.2678 2.54045C85.1896 2.60869 85.1101 2.67803 85.0295 2.74972L85.0152 3.00977C85.0135 3.04114 85.0121 3.07254 85.0106 3.10395L85.0106 3.10398L85.0106 3.104L85.0106 3.10402L85.0106 3.10404L85.0106 3.10406L85.0106 3.10409L85.0106 3.10411L85.0106 3.10413L85.0106 3.10415L85.0106 3.10417L85.0106 3.10419L85.0106 3.10422L85.0106 3.10424L85.0106 3.10426L85.0106 3.10428L85.0106 3.1043L85.0106 3.10432L85.0106 3.10435L85.0106 3.10437L85.0106 3.10439L85.0106 3.10441L85.0106 3.10443L85.0106 3.10449L85.0106 3.1045L85.0106 3.10452L85.0106 3.10453L85.0106 3.10455L85.0106 3.10456L85.0106 3.10458L85.0106 3.10459L85.0106 3.10461L85.0106 3.10462L85.0106 3.10464L85.0106 3.10465L85.0106 3.10467L85.0106 3.10469L85.0106 3.1047L85.0106 3.10472L85.0106 3.10473L85.0106 3.10475L85.0106 3.10476L85.0106 3.10478L85.0106 3.10479L85.0106 3.10481C85.0077 3.16785 85.0049 3.23092 84.9996 3.29377C84.9583 3.7844 84.9568 3.78481 84.3595 3.94822L84.3456 3.95201C84.2897 3.96726 84.2334 3.99795 84.1781 4.02807C84.0944 4.07363 84.0132 4.11788 83.9394 4.10534C83.5017 4.03066 83.265 4.27241 83.0384 4.57231L84.1132 4.96598L84.0777 5.10382L83.02 5.04554C82.834 5.69209 83.2632 5.78028 83.6636 5.86257C83.6885 5.86768 83.7133 5.87277 83.7378 5.87796C83.538 6.26213 83.4919 6.56513 83.87 6.77672C84.1741 6.94693 84.0325 7.06994 83.8882 7.19538L83.8882 7.1954C83.8684 7.21263 83.8485 7.22992 83.8297 7.24738C84.3934 7.6638 85.0837 7.87526 85.7852 7.84636C86.3301 7.84545 86.8749 7.88189 87.4198 7.91833L87.4198 7.91833L87.4198 7.91833L87.4199 7.91833L87.4199 7.91834L87.4199 7.91834L87.4199 7.91834L87.4199 7.91834L87.4199 7.91834L87.4199 7.91834L87.4199 7.91834L87.42 7.91834L87.42 7.91834L87.42 7.91834L87.42 7.91834L87.42 7.91834L87.42 7.91834L87.42 7.91834L87.42 7.91834L87.42 7.91834L87.4201 7.91835L87.4201 7.91835L87.4201 7.91835C87.7007 7.93711 87.9813 7.95588 88.262 7.96956C88.4258 7.97002 88.5896 7.96223 88.7526 7.94622L88.7537 7.84866L87.8409 7.7064C88.0809 7.61305 88.3402 7.57916 88.5964 7.60765C88.8424 7.61605 89.0886 7.6056 89.3329 7.57639C89.5554 7.52676 89.7741 7.4619 89.9876 7.38227L89.5551 7.20595C90.1628 6.91502 90.1627 6.91416 90.0499 6.30745L90.049 6.30265C90.0338 6.21961 90.0116 6.0866 90.0527 6.05334C90.2808 5.87222 90.2395 5.73738 90.0911 5.50682C90.0565 5.4529 90.1048 5.35604 90.158 5.24932C90.207 5.15094 90.2602 5.04419 90.2565 4.955C90.2343 4.72151 90.1605 4.49572 90.0405 4.29373C89.9671 4.15948 90.0305 4.05723 90.0922 3.95763C90.1491 3.86577 90.2046 3.77617 90.1501 3.66582C90.1153 3.58235 90.0654 3.50593 90.0028 3.4404C89.8782 3.32845 89.7474 3.22335 89.6021 3.10656ZM79.8778 20.5414C79.8491 20.4297 79.9294 20.2899 80.0872 20.0154C80.0097 19.9561 79.9487 19.8797 79.887 19.8025L79.887 19.8025L79.887 19.8025C79.7557 19.638 79.6217 19.4702 79.3199 19.4586C78.9236 19.4372 78.5337 19.5646 78.2278 19.8157C78.1922 19.8435 78.1538 19.8709 78.1151 19.8984C77.9908 19.9869 77.8627 20.078 77.812 20.1983C77.6634 20.5508 77.386 20.7715 77.1092 20.9916C76.9747 21.0987 76.8403 21.2056 76.721 21.3274C76.2976 21.759 75.7107 21.8815 75.154 21.8912C73.8026 21.915 72.7095 22.5642 71.6172 23.2128L71.5288 23.2653C71.1754 23.4756 71.093 23.8601 71.0094 24.2505C70.9951 24.3172 70.9808 24.384 70.9651 24.4502L70.9574 24.4826C70.787 25.2004 70.7469 25.3691 71.2599 25.6746L71.3163 25.708C71.6395 25.8986 71.85 26.0228 71.4799 26.398C71.4517 26.4258 71.522 26.5588 71.5764 26.6617C71.586 26.6799 71.5951 26.6971 71.6031 26.7127C71.6246 26.7545 71.6624 26.805 71.697 26.8512C71.7437 26.9135 71.7845 26.9682 71.7724 26.9836C71.4716 27.3561 71.8377 27.4063 72.0209 27.4314L72.0302 27.4326C72.0922 27.4412 72.1548 27.4503 72.2177 27.4594L72.2177 27.4594C72.6321 27.5197 73.0611 27.5822 73.4512 27.4982C73.5887 27.4686 73.7322 27.4523 73.8765 27.4359C74.2377 27.3948 74.6036 27.3532 74.8902 27.1006C75.0634 26.9189 75.3152 26.8329 75.5643 26.8704C75.6827 26.8655 75.7971 26.827 75.894 26.7593C75.9628 26.7223 76.0318 26.6856 76.1009 26.6489C76.4003 26.4896 76.7001 26.3302 76.9837 26.1466C77.174 26.0232 77.3556 25.8868 77.5372 25.7503L77.5372 25.7503L77.5373 25.7503L77.5373 25.7503L77.5373 25.7503L77.5373 25.7503L77.5373 25.7503L77.5373 25.7503L77.5374 25.7503L77.5374 25.7502L77.5374 25.7502L77.5374 25.7502L77.5374 25.7502L77.5374 25.7502L77.5374 25.7502L77.5375 25.7502L77.5375 25.7502L77.5375 25.7502L77.5375 25.7502L77.5375 25.7501L77.5375 25.7501L77.5375 25.7501L77.5376 25.7501L77.5376 25.7501L77.5376 25.7501L77.5376 25.75C77.7234 25.6105 77.9091 25.471 78.104 25.3455C78.3792 25.1682 78.6387 24.9669 78.8947 24.7683L78.8948 24.7683L78.8948 24.7682L78.8948 24.7682L78.8949 24.7682L78.8949 24.7682L78.8949 24.7682L78.8949 24.7682C78.9458 24.7287 78.9965 24.6893 79.0472 24.6503C79.1052 24.6056 79.1645 24.5616 79.2241 24.5173L79.2242 24.5172L79.2244 24.5171C79.6276 24.2176 80.0436 23.9085 80.154 23.3413C80.2525 22.9399 80.3727 22.544 80.5141 22.1555C80.3048 21.9267 80.3339 21.6664 80.3628 21.4073C80.3815 21.2408 80.4 21.0748 80.3553 20.9179C80.055 20.7432 79.9076 20.6574 79.8778 20.5414ZM13.7728 87.2422C14.5965 87.4178 15.3195 87.7624 15.7931 88.4375C15.9398 88.4278 16.0739 88.4167 16.1997 88.4063C16.4506 88.3856 16.668 88.3676 16.8843 88.369C17.3098 88.3731 17.7478 88.2813 17.876 87.8807C18.0288 87.4027 18.2333 87.1241 18.7542 87.1303C18.8144 87.1234 18.868 87.0895 18.8997 87.0382C19.1319 86.5781 19.5188 86.2723 19.9055 85.9665L19.9056 85.9664L19.9056 85.9664L19.9057 85.9663L19.9057 85.9663L19.9058 85.9662L19.9058 85.9662L19.9059 85.9662L19.9059 85.9661L19.906 85.9661L19.906 85.966L19.9061 85.966L19.9061 85.9659L19.9062 85.9659L19.9062 85.9659L19.9063 85.9658L19.9063 85.9658L19.9064 85.9657L19.9064 85.9657L19.9065 85.9656L19.9065 85.9656L19.9065 85.9656L19.9066 85.9655L19.9066 85.9655L19.9067 85.9654C20.108 85.8063 20.3093 85.6471 20.4886 85.4662L20.5595 85.395C20.9631 84.9903 20.9847 84.9686 20.9727 84.2043C20.9702 84.0507 20.956 83.8974 20.9397 83.7212L20.9397 83.721C20.9316 83.6338 20.923 83.5409 20.915 83.4396C21.3209 83.1263 21.7463 82.8388 22.1887 82.5789C22.3145 82.5128 22.429 82.4229 22.5437 82.3329C22.7852 82.1433 23.0276 81.953 23.3775 81.9827C23.4315 81.6989 23.6431 81.5473 23.8351 81.4098L23.8352 81.4097C23.9602 81.3202 24.0768 81.2366 24.1362 81.1264L23.9968 80.1529L23.468 80.1238L23.6092 79.978L23.6583 79.9277L23.443 79.5566C21.9833 80.1356 20.5822 80.851 19.2587 81.6931C19.062 81.8327 18.8003 81.8417 18.5942 81.7161C18.8043 81.5901 19.0071 81.4641 19.2063 81.3404L19.2066 81.3402C19.6452 81.0678 20.0659 80.8064 20.5055 80.5822C21.0688 80.295 21.6482 80.0388 22.2288 79.7822L22.2292 79.782L22.2297 79.7818C22.4801 79.6711 22.7307 79.5603 22.9803 79.4469C22.6452 78.9167 22.6435 78.9173 22.1783 79.0893L22.1574 79.097C20.8021 79.5981 19.5376 80.2873 18.2767 80.9744L18.2727 80.9766L18.2662 80.9802L17.9284 81.1641C17.8525 81.2053 17.7767 81.2464 17.7008 81.2875C16.2759 82.0579 14.8752 82.8878 13.7149 84.0613C13.4883 84.2905 13.3265 84.5497 13.1651 84.8085L13.165 84.8086C13.0916 84.9263 13.0182 85.0439 12.9388 85.1585C12.8591 85.3148 12.8642 85.5005 12.9524 85.6523C13.1225 85.8367 13.1536 86.0332 13.1871 86.2443C13.1956 86.2981 13.2043 86.3529 13.2155 86.4087L13.2245 86.4554L13.2307 86.4881L13.2308 86.4886L13.231 86.4895C13.2884 86.7933 13.3563 87.1534 13.7728 87.2422ZM40.5416 79.5212C40.7011 79.3792 40.8592 79.2449 41.0139 79.1135L41.014 79.1134C41.3426 78.8343 41.6555 78.5685 41.9336 78.2703C42.8833 77.2521 44.1072 76.7043 45.3308 76.1566C45.6187 76.0277 45.9066 75.8989 46.191 75.7639C46.7562 75.4957 47.36 75.5539 47.9569 75.6113C48.0684 75.6221 48.1796 75.6328 48.2903 75.6413C48.3731 75.6476 48.4501 75.7302 48.5296 75.8154L48.5296 75.8155C48.5671 75.8557 48.6051 75.8965 48.6445 75.9301L48.6427 75.9309L48.63 75.9364L48.6236 75.9392L48.6061 75.9468L48.593 75.9525L48.5869 75.9552C48.3334 76.0654 48.0871 76.1726 47.7388 76.3246L49.0422 76.3964C49.0805 76.4854 49.1127 76.5737 49.1439 76.6591C49.2119 76.8455 49.2748 77.0178 49.3844 77.1519C49.5373 77.357 49.5668 77.6281 49.4617 77.8608C49.4092 78.0288 49.2884 78.1759 49.162 78.3298C49.1058 78.3983 49.0484 78.4681 48.9955 78.5417C48.3194 78.3586 47.7317 78.5948 47.1167 78.8934C47.1399 79.0015 47.1249 79.1145 47.1096 79.2294C47.0824 79.4345 47.0544 79.646 47.2409 79.8472C47.3 79.9603 47.2986 80.0951 47.2372 80.2068C47.1238 80.3727 47.0214 80.5486 46.919 80.7245L46.9189 80.7246L46.9189 80.7247L46.9188 80.7248L46.9188 80.7249L46.9187 80.7249L46.9187 80.725L46.9186 80.7251L46.9186 80.7252L46.9185 80.7253L46.9185 80.7254L46.9184 80.7255L46.9184 80.7256L46.9183 80.7257L46.9183 80.7257L46.9182 80.7258L46.9182 80.7259L46.9181 80.726L46.9181 80.7261L46.918 80.7262L46.918 80.7263L46.9179 80.7264L46.9179 80.7265L46.9178 80.7265C46.5864 81.2958 46.2543 81.8662 45.5484 82.1088L45.5004 82.1251C45.3428 82.1782 45.1595 82.24 45.0872 82.3567C45.0367 82.4382 44.949 82.4504 44.8619 82.4624C44.7415 82.4791 44.6222 82.4957 44.6036 82.6953C44.5859 82.8837 44.4555 82.8592 44.3229 82.8342C44.2564 82.8217 44.1894 82.8091 44.1357 82.8232C43.9399 82.8876 43.7397 82.938 43.5366 82.9739C43.3463 82.9813 43.1558 82.973 42.9669 82.9492C42.3703 82.2156 41.6027 81.6376 40.7307 81.2654L40.5416 79.5212ZM78.6327 57.5876L78.6326 57.5875L78.6326 57.5874L78.6326 57.5873C78.4356 57.2648 78.2417 56.9473 78.065 56.6209C78.0507 56.5946 78.1104 56.5284 78.1857 56.4449L78.1857 56.4448C78.2257 56.4005 78.2701 56.3513 78.3102 56.3005C78.1586 56.218 78.0133 56.1243 77.8756 56.0204C77.7397 55.8871 77.6109 55.7469 77.4895 55.6005L77.4546 55.563C77.2027 55.2936 76.9528 55.0262 77.3754 54.6717C77.3961 54.6543 77.3939 54.612 77.3915 54.5677C77.39 54.5401 77.3885 54.5116 77.3924 54.4879C77.4109 54.3763 77.419 54.2654 77.4271 54.1552C77.451 53.8298 77.4744 53.51 77.7611 53.1915C77.8836 53.0554 77.993 52.903 78.1037 52.7488C78.2723 52.5139 78.4438 52.275 78.6691 52.0832C79.0005 51.7629 79.3764 51.4914 79.7854 51.277C80.4535 50.9735 81.114 50.6745 81.8696 50.8372C82.0839 50.917 82.2878 51.0221 82.4769 51.1502L81.9589 51.7121C82.0982 51.7623 82.2445 51.7989 82.3925 51.8358C82.7831 51.9333 83.1846 52.0335 83.495 52.3963L83.0189 52.9623L83.7146 53.0006C83.7374 53.197 83.771 53.3885 83.8043 53.578C83.8776 53.9952 83.9492 54.4026 83.8995 54.831C83.8751 55.1618 83.7318 55.4727 83.4957 55.7069C83.3944 55.8012 83.302 55.9036 83.2094 56.0062C83.0305 56.2044 82.8507 56.4035 82.6046 56.5471C82.434 56.6464 82.2758 56.767 82.1162 56.8889C81.9602 57.0079 81.8028 57.128 81.6309 57.2303C81.2734 57.4426 80.8846 57.5575 80.4963 57.6722L80.4963 57.6722C80.2638 57.7409 80.0315 57.8096 79.8063 57.899C79.6088 57.9777 79.3646 57.9408 79.1229 57.9042C79.0139 57.8877 78.9054 57.8712 78.8019 57.8655C78.7455 57.7723 78.689 57.6797 78.6327 57.5876ZM60.7155 16.5632L62.764 16.676L62.8156 16.5036C62.6711 16.4531 62.5246 16.3866 62.3781 16.3201L62.3781 16.32L62.3781 16.32L62.3781 16.32L62.378 16.32L62.378 16.32L62.378 16.32L62.378 16.32L62.378 16.32L62.378 16.32L62.3779 16.32L62.3779 16.32L62.3779 16.32L62.3779 16.32L62.3779 16.32L62.3779 16.32L62.3778 16.3199L62.3778 16.3199L62.3778 16.3199L62.3778 16.3199L62.3778 16.3199C62.0449 16.1688 61.712 16.0176 61.4027 16.0547C61.2737 16.0705 61.1419 16.0801 61.0089 16.0898C60.5866 16.1205 60.1517 16.1521 59.7538 16.3868C59.5193 16.5251 59.2644 16.6318 59.0096 16.7385L59.0096 16.7385L59.0096 16.7385L59.0095 16.7385L59.0095 16.7386L59.0095 16.7386L59.0095 16.7386L59.0094 16.7386L59.0094 16.7386L59.0094 16.7386L59.0094 16.7386L59.0093 16.7386L59.0093 16.7386L59.0093 16.7386L59.0093 16.7387L59.0092 16.7387L59.0092 16.7387L59.0092 16.7387L59.0092 16.7387L59.0092 16.7387L59.0091 16.7387C58.4184 16.9861 57.8286 17.233 57.4961 17.8716C57.0255 17.9575 56.8421 18.3218 56.6661 18.6715L56.666 18.6715L56.6659 18.6717C56.6187 18.7656 56.5719 18.8584 56.5203 18.9445C56.1858 19.5021 55.8574 20.1003 56.2584 20.7991C56.5251 21.2641 56.77 21.7414 57.0124 22.2137L57.0124 22.2139C57.1184 22.4204 57.2238 22.6259 57.3304 22.829C57.6325 22.8252 57.9344 22.8444 58.2336 22.8866C58.8235 23.0167 59.343 22.7759 59.7666 22.4829C60.014 22.3115 60.3126 22.2286 60.6137 22.2479C60.9119 22.1114 61.1002 21.8955 61.283 21.686C61.4444 21.501 61.6015 21.321 61.8261 21.2051C62.0453 21.0486 62.1808 20.8013 62.1943 20.5333C62.1942 20.3766 62.2195 20.2184 62.2448 20.0596C62.3022 19.7002 62.3601 19.3375 62.1258 18.9814C62.09 18.927 62.1363 18.8247 62.1862 18.7145C62.2207 18.6383 62.2568 18.5585 62.2687 18.4881C62.278 18.4337 62.2509 18.3731 62.2149 18.2927C62.1958 18.2501 62.1741 18.2018 62.1542 18.146C62.3412 18.1821 62.5328 18.1881 62.7217 18.1638C62.8764 18.1171 63.1162 17.9464 63.1073 17.8482C63.066 17.559 62.9802 17.2777 62.8531 17.0142C62.7676 16.8145 62.5897 16.8189 62.417 16.8231L62.417 16.8231L62.4169 16.8231L62.4169 16.8231L62.4169 16.8231L62.4169 16.8231L62.4168 16.8231C62.3656 16.8243 62.3148 16.8256 62.267 16.8214C62.1733 16.8133 62.0794 16.8068 61.9854 16.8003L61.9852 16.8003L61.985 16.8002L61.9848 16.8002L61.9846 16.8002L61.9843 16.8002L61.9841 16.8002L61.9839 16.8002L61.9837 16.8001L61.9835 16.8001L61.9833 16.8001L61.9831 16.8001L61.9829 16.8001L61.9827 16.8001L61.9825 16.8L61.9823 16.8L61.9821 16.8L61.9819 16.8L61.9816 16.8L61.9814 16.7999L61.9812 16.7999C61.556 16.7704 61.1299 16.7408 60.7155 16.5632ZM51.4218 34.4663L52.801 33.2388C53.1564 33.2395 53.5114 33.2648 53.8633 33.3143C53.9994 33.3404 54.1257 33.5436 54.1982 33.6942C54.2174 33.7339 54.157 33.8115 54.0969 33.8889C54.0706 33.9227 54.0445 33.9564 54.0249 33.9869C54.0638 34.0092 54.1048 34.0303 54.1461 34.0517C54.3884 34.1769 54.6422 34.308 54.5427 34.7017C54.5125 34.7898 54.5164 34.886 54.5537 34.9715C54.7295 35.2143 54.9087 35.4774 54.8091 35.7697C54.7753 35.8692 54.7435 35.9711 54.7116 36.0734L54.7115 36.0737L54.7114 36.0741C54.5755 36.5104 54.4365 36.9565 54.1189 37.2758C53.3432 38.0554 52.5064 38.7909 51.4288 39.1409C50.7883 39.3614 50.1279 39.5199 49.4567 39.6143C49.1045 39.662 48.7557 39.5049 48.5595 39.2101C48.4246 38.9941 48.2849 38.7809 48.1452 38.5678L48.1451 38.5676C47.9226 38.2281 47.7002 37.8886 47.4969 37.538C47.3766 37.332 47.3235 37.094 47.3451 36.8569C47.5411 35.4846 48.2481 34.538 49.8376 34.2171C49.9132 34.2018 49.9902 34.1777 50.0671 34.1537L50.0672 34.1536L50.0672 34.1536L50.0673 34.1536L50.0673 34.1536L50.0673 34.1536L50.0674 34.1536L50.0674 34.1536L50.0675 34.1536L50.0675 34.1536C50.2261 34.104 50.3839 34.0546 50.5264 34.0833C50.838 34.1783 51.1382 34.3067 51.4218 34.4663ZM17.3787 34.8504L16.7983 34.9312C17.0956 35.0823 17.3522 35.1463 17.6603 34.9354C17.8572 34.8008 18.0798 34.7145 18.3042 34.6276C18.6067 34.5105 18.9122 34.3921 19.1623 34.1524C19.3051 33.9927 19.4663 33.8501 19.6425 33.7275C20.8 33.113 21.4896 32.1141 22.0577 30.9997L22.0802 30.9562C22.1468 30.8284 22.2357 30.6576 22.1917 30.5971C22.0503 30.4037 22.116 30.256 22.1856 30.0994C22.2023 30.062 22.2191 30.0241 22.2334 29.985C22.2749 29.8713 22.3104 29.6866 22.2505 29.6175C22.0488 29.3841 21.9571 29.1104 21.8647 28.8344L21.8646 28.8341L21.8645 28.8338C21.8538 28.802 21.8432 28.7702 21.8323 28.7384C21.8229 28.7108 21.8134 28.6832 21.8036 28.6557C21.7772 28.5818 21.7169 28.4426 21.5381 28.5598C21.4502 28.6172 21.3299 28.6252 21.1927 28.6343C21.1261 28.6388 21.0556 28.6435 20.9829 28.6542C21.2415 28.2026 21.3653 27.824 20.9923 27.5385C20.8637 27.58 20.7345 27.6129 20.6082 27.6452C20.3386 27.714 20.0823 27.7794 19.8741 27.9164C19.6735 28.0483 19.4549 28.155 19.2362 28.2618C18.7684 28.4901 18.3 28.7188 18.0061 29.1948C16.9684 29.6901 16.3731 30.5921 15.7755 31.4976L15.7754 31.4978L15.7121 31.5936L15.6427 31.6985L15.6241 31.7265C15.3908 32.008 15.3677 32.4074 15.5669 32.714C15.5715 32.7219 15.5763 32.73 15.5813 32.7382L15.5932 32.7576C15.6707 32.8834 15.7645 33.0356 15.5665 33.2302C15.5054 33.3245 15.4897 33.441 15.5237 33.5481C15.5577 33.6551 15.6379 33.7416 15.7425 33.784C16.0206 33.8755 16.223 34.0821 16.4262 34.2896C16.688 34.5568 16.951 34.8254 17.3787 34.8504ZM58.1382 94.9791L58.6802 95.087C58.6612 95.1105 58.646 95.1331 58.6325 95.1532C58.6077 95.1901 58.5887 95.2184 58.563 95.2272C58.3971 95.2841 58.2329 95.3456 58.0686 95.4071L58.0685 95.4072L58.0684 95.4072L58.0683 95.4073L58.0682 95.4073L58.0682 95.4073L58.068 95.4074L58.0678 95.4075L58.0677 95.4075L58.0675 95.4076L58.0673 95.4076L58.0672 95.4077L58.067 95.4078L58.0668 95.4078L58.0666 95.4079L58.0666 95.4079L58.0665 95.4079C57.6253 95.5731 57.1842 95.7383 56.7126 95.8166L56.6449 95.828C56.2616 95.8931 55.8968 95.9551 55.6205 95.5729C55.5447 95.4678 55.4063 95.4369 55.2679 95.4059C55.0436 95.3558 54.8191 95.3056 54.8606 94.94C54.4349 94.643 54.4905 94.2121 54.5443 93.7947L54.5484 93.7625C54.2597 93.6715 53.9775 93.5611 53.7038 93.4321C53.4155 93.2734 53.3568 92.8141 53.5237 92.3342C53.5392 92.2897 53.5674 92.2465 53.5951 92.204C53.6355 92.142 53.675 92.0815 53.673 92.0207L53.6723 91.9993C53.6473 91.2276 53.6472 91.2259 54.2862 90.9307C54.5995 90.765 54.9218 90.617 55.2519 90.4874C55.6369 90.3723 55.9525 90.0967 56.1168 89.732C56.3922 89.169 56.9414 88.7881 57.5683 88.7253C58.132 88.6632 58.6303 88.9513 59.0058 89.4693L58.7097 89.6699C58.4633 89.8368 58.1976 90.0168 57.8642 90.2428C58.0168 90.2512 58.153 90.2582 58.278 90.2645C58.5311 90.2775 58.7389 90.2881 58.9463 90.3038C59.1934 90.3226 59.2011 90.3448 59.292 90.6058C59.3151 90.6721 59.3435 90.7539 59.3827 90.855C59.4294 90.9755 59.4352 91.1119 59.4409 91.2483C59.452 91.5133 59.4631 91.7784 59.7754 91.9276L59.758 92.9564C59.7483 93.59 59.648 94.1469 58.9247 94.4027C58.7279 94.4716 58.5595 94.6194 58.3853 94.7723L58.3852 94.7723L58.3852 94.7724L58.3851 94.7724L58.3851 94.7725C58.3051 94.8426 58.2239 94.9139 58.1382 94.9791ZM59.8792 0.16305C59.2868 0.188305 58.7848 0.604156 58.6532 1.17869L59.4391 1.55488C58.9173 1.68623 58.5179 1.88758 58.4197 2.48078C58.5977 2.57821 58.7705 2.68457 58.9375 2.79944C58.9801 2.83134 59.0171 2.87657 59.0538 2.92137C59.1571 3.04762 59.2577 3.17046 59.4711 2.98191L59.3969 3.54676C59.6842 3.69809 60.0681 3.90062 60.4278 4.09049C60.4097 4.14855 60.3916 4.20538 60.3739 4.26133L60.3735 4.26233L60.3734 4.26276L60.3733 4.26294L60.3733 4.26305C60.3163 4.44231 60.2622 4.61258 60.2182 4.78533C60.2095 4.8157 60.2903 4.90391 60.3296 4.90353C60.4147 4.90237 60.5529 4.88246 60.573 4.83202C60.5931 4.78151 60.592 4.71845 60.5908 4.65746C60.5895 4.58397 60.5882 4.51347 60.6243 4.4715C60.6646 4.42403 60.7518 4.41596 60.8706 4.40497C60.9324 4.39924 61.0028 4.39273 61.0796 4.37944L60.7188 4.74165L61.3667 4.77762L61.3668 4.77762C62.1475 4.82113 62.8887 4.86243 63.6302 4.897C63.6748 4.89902 63.7195 4.87359 63.7651 4.84763C63.8006 4.82745 63.8366 4.80694 63.8737 4.79873C64.0784 4.75339 64.2755 4.67033 64.4688 4.58889C64.8498 4.4283 65.216 4.274 65.5966 4.42763C66.1093 4.27171 66.1582 3.9096 66.2041 3.56916C66.2343 3.34586 66.2632 3.13189 66.4209 2.99156C66.3641 2.8672 66.295 2.74657 66.2276 2.62899C66.0826 2.37596 65.9457 2.13703 65.9572 1.90545C65.9696 1.65158 65.8485 1.45939 65.7297 1.27093C65.6086 1.07879 65.49 0.89054 65.5178 0.644779C65.525 0.581722 65.3458 0.437323 65.2477 0.433484C65.0715 0.42645 64.9158 0.362357 64.7582 0.297519C64.5824 0.22518 64.4044 0.151913 64.1932 0.155923C63.3654 0.173242 62.5375 0.128666 61.7163 0.0225694C61.2804 -0.0349719 60.86 0.0277977 60.4426 0.0901294C60.2546 0.118202 60.0672 0.146185 59.8792 0.16305ZM10.8994 68.6047C10.9057 68.5292 10.9148 68.4544 10.9238 68.381C10.9729 67.9781 11.017 67.6162 10.565 67.3898C11.1182 67.0187 11.498 66.9922 11.8978 67.4233C11.9995 67.5329 12.1116 67.6301 12.2243 67.7277L12.2244 67.7278C12.4177 67.8952 12.6125 68.064 12.7589 68.2997C12.8764 68.4884 13.0864 68.6155 13.2998 68.7447C13.456 68.8393 13.614 68.9349 13.7388 69.0566C13.896 69.2097 14.0065 69.4102 14.1169 69.6107L14.117 69.6108C14.1663 69.7002 14.2155 69.7896 14.2689 69.8748L13.9409 70.1724L13.647 69.7091L13.5297 69.7522L13.5996 70.4339C13.5718 70.4501 13.5325 70.4665 13.4881 70.485C13.3708 70.5338 13.2183 70.5973 13.1504 70.7108C12.5904 71.6507 11.7103 72.2215 10.8092 72.7615C10.634 72.8666 10.4318 72.9257 10.2288 72.985C10.0893 73.0258 9.94935 73.0667 9.81748 73.1227L9.68898 73.1775C8.9982 73.4724 8.82797 73.5451 8.16504 73.3983C7.6577 73.286 7.11718 73.1627 6.72144 72.7399C6.56936 72.5554 6.36027 72.4259 6.12664 72.3715C5.59583 72.3214 5.52665 72.0261 5.5778 71.6005C5.59098 71.479 5.58449 71.3561 5.55856 71.2365C5.3979 70.4801 5.42289 70.4043 6.01822 70.0644C6.75204 69.6452 7.5593 69.4299 8.36509 69.215L8.36518 69.215L8.36595 69.2148L8.36672 69.2146L8.36749 69.2144C8.52889 69.1713 8.69023 69.1283 8.85091 69.0836C9.3234 68.952 9.80323 68.847 10.2768 68.7434C10.4859 68.6976 10.6939 68.6521 10.8994 68.6047ZM22.1887 56.8811L22.1242 56.9827C22.0958 57.0272 22.0674 57.0717 22.0386 57.1162C22.3623 57.2425 22.6172 57.4751 22.4153 57.7242C22.1256 58.0794 22.3826 58.1533 22.5956 58.2105C22.637 58.2216 22.6807 58.2294 22.7242 58.2372C22.8739 58.264 23.0206 58.2902 23.0627 58.4493C23.1283 58.6973 23.3103 58.8272 23.4898 58.9553L23.4899 58.9554C23.5673 59.0106 23.6441 59.0654 23.7111 59.1293C23.8914 59.3011 24.2033 59.4776 24.4187 59.4397C24.7839 59.3581 25.1264 59.1975 25.4218 58.9692C25.5996 58.8403 25.748 58.6725 25.8967 58.5043L25.8968 58.5043L25.8968 58.5043L25.8969 58.5042L25.8969 58.5042L25.8969 58.5042L25.897 58.5041L25.897 58.5041L25.897 58.5041L25.8971 58.504L25.8971 58.504L25.8971 58.504L25.8972 58.5039L25.8972 58.5039L25.8973 58.5039C25.9952 58.3931 26.0934 58.2821 26.2003 58.1819C26.3356 58.0548 26.4758 57.9323 26.6161 57.8097L26.6162 57.8097L26.6162 57.8097L26.6162 57.8096L26.6163 57.8096L26.6163 57.8096L26.6163 57.8095L26.6164 57.8095L26.6164 57.8095L26.6165 57.8094L26.6165 57.8094L26.6165 57.8094L26.6166 57.8094L26.6166 57.8093L26.6166 57.8093C27.0152 57.4612 27.414 57.1128 27.7005 56.6583C27.8262 56.4586 27.976 56.2741 28.1258 56.0897C28.4072 55.7433 28.6885 55.397 28.8099 54.9502C28.8975 54.5041 29.1292 54.0987 29.4697 53.7955C29.861 53.4686 29.8185 53.1995 29.5102 52.7044C29.4732 52.6449 29.4366 52.5716 29.3999 52.4978C29.3134 52.3242 29.2255 52.1478 29.1258 52.1403C28.867 52.1204 28.8727 51.9696 28.8783 51.8192C28.8835 51.6809 28.8886 51.5431 28.6878 51.5081C27.7061 51.8757 26.8456 52.5356 25.9897 53.192C25.8918 53.2671 25.7939 53.3422 25.6959 53.4168C25.0857 53.8813 24.5198 54.403 23.9537 54.9249L23.9535 54.9251L23.9532 54.9253L23.953 54.9255L23.9528 54.9257L23.9525 54.9259L23.9523 54.9261L23.9521 54.9263L23.9519 54.9265L23.9516 54.9267L23.9514 54.9269L23.9512 54.9271L23.9509 54.9273L23.9507 54.9275L23.9505 54.9277C23.6758 55.181 23.4012 55.4342 23.1214 55.6809C22.7321 56.0242 22.4626 56.4491 22.1887 56.8811ZM27.6256 93.7426L27.6256 93.7426L27.6572 93.7268C28.3917 93.3552 29.1517 93.0358 29.9316 92.7709C30.1011 92.7144 30.2693 92.6471 30.4384 92.5794C31.0455 92.3367 31.6654 92.0888 32.4044 92.3132C32.1337 92.6574 31.7544 92.7921 31.3611 92.9318C31.0031 93.0589 30.6337 93.1901 30.3243 93.4872C30.8766 93.4494 31.365 93.2862 31.8725 93.1166C32.2621 92.9864 32.663 92.8524 33.1127 92.7685L32.7345 93.3724L33.2438 93.4921L33.3663 94.403C33.3239 94.4261 33.2758 94.4512 33.2239 94.4783C33.0956 94.5453 32.9443 94.6243 32.8006 94.7148C32.02 95.2063 32.0169 95.2136 31.6241 96.1467L31.6144 96.1698C31.5646 96.2764 31.5032 96.3772 31.4314 96.4706C30.9095 97.1996 30.3303 97.8576 29.4724 98.2274C29.087 98.4014 28.6712 98.4991 28.2482 98.5151C28.1591 98.5226 28.0751 98.5591 28.0092 98.619C27.9527 98.6772 27.8694 98.7015 27.7902 98.6829C27.7109 98.6642 27.6473 98.6055 27.6229 98.5283C27.5019 98.2852 27.3055 98.1121 27.1094 97.9392C26.9508 97.7995 26.7925 97.66 26.6744 97.4838C26.5605 97.3376 26.3884 97.2477 26.2028 97.2372C25.9318 97.182 25.6076 96.6302 25.6784 96.3855C25.6931 96.335 25.7351 96.292 25.7772 96.2489C25.8613 96.1629 25.9456 96.0766 25.8139 95.9299C25.7014 95.819 25.5818 95.7154 25.4558 95.6198C25.9569 94.5766 26.8004 94.155 27.6256 93.7426ZM49.334 65.5345L49.3985 66.1187C49.5998 66.2523 49.8086 66.2129 50.0186 66.1733C50.2085 66.1375 50.3994 66.1014 50.5867 66.193C50.6896 66.2119 50.7919 66.1578 50.8337 66.0625C50.8755 65.9673 50.8456 65.8559 50.7617 65.7938C50.7357 65.7649 50.77 65.6823 50.8042 65.5998C50.82 65.5618 50.8357 65.5238 50.8456 65.4911C50.8721 65.5005 50.9061 65.51 50.94 65.5195C51.0128 65.54 51.0856 65.5604 51.0853 65.5797C51.0777 66.0853 51.5086 65.9585 51.6924 65.8997C51.8464 65.8506 52.0019 65.8039 52.1575 65.7571C52.7926 65.5663 53.4309 65.3745 53.9915 65.0112L53.9991 65.0063C54.2902 64.8175 54.6608 64.5772 54.3213 64.1181C54.3045 64.0942 54.3249 64.0231 54.3496 63.9895C54.6208 63.62 54.4853 63.3761 54.1138 63.1955C53.7894 63.0378 53.9492 62.8969 54.0743 62.7866L54.0959 62.7675L53.7088 62.2233L52.8822 62.3926C52.9468 62.2938 53.0408 62.2338 53.1328 62.175C53.2901 62.0745 53.4418 61.9776 53.4314 61.6963L53.3314 61.6311C53.233 61.567 53.1232 61.4954 53.0143 61.4225C52.962 61.3871 52.8979 61.3537 52.8337 61.3202C52.6917 61.2462 52.5495 61.172 52.5343 61.077C52.4713 60.684 52.2565 60.7628 52.0625 60.8341C52.0372 60.8433 52.0123 60.8525 51.9881 60.8604C51.7097 60.9518 51.4357 61.0564 51.1617 61.1611L51.1615 61.1612C50.9689 61.2347 50.7762 61.3083 50.5819 61.3773C50.4619 61.4073 50.339 61.4251 50.2154 61.4305L50.1741 61.274C50.8257 61.0213 51.4773 60.7688 52.2092 60.4853C51.6333 60.3153 51.2282 60.4658 50.7881 60.6348C50.093 60.9042 49.4359 61.2618 48.8331 61.6985C48.0678 62.2493 47.4208 62.9247 47.5603 63.9998C47.5645 64.0877 47.5604 64.1758 47.548 64.2629L48.8828 65.7439L49.334 65.5345ZM69.9609 63.8055L69.5444 64.1759L69.8182 64.2229L70.2756 64.3013C70.2937 64.4186 70.3135 64.5371 70.3336 64.6565C70.381 64.9392 70.4293 65.2271 70.4562 65.5171C70.479 65.7692 70.4642 66.0232 70.4121 66.2708C70.3954 66.3493 70.3249 66.3652 70.245 66.3833C70.135 66.4081 70.0072 66.4369 69.9781 66.639C69.9515 66.8256 69.6744 66.9624 69.422 67.087C69.3697 67.1128 69.3184 67.1381 69.2706 67.1633C69.1978 67.2015 69.1006 67.2045 69.0022 67.2075C68.7947 67.2139 68.582 67.2204 68.5827 67.5586L67.6499 67.5589C67.6198 67.559 67.5897 67.564 67.5595 67.5668L66.0629 68.8989C66.0652 69.0539 66.0551 69.2088 66.0327 69.3621C65.9819 69.5954 65.7331 69.8362 65.5941 69.7073C65.4286 69.554 65.2797 69.6177 65.1382 69.6781C65.0156 69.7305 64.8985 69.7806 64.781 69.6846C64.5999 68.9386 64.5884 68.706 64.7263 68.115L63.7366 68.505C63.7108 68.4751 63.6734 68.4419 63.6339 68.4068C63.5404 68.3237 63.4346 68.2298 63.4401 68.1427C63.4505 67.9765 63.4517 67.8079 63.4529 67.6391C63.4573 67.0141 63.4618 66.3856 63.9316 65.8612C64.0735 65.6644 64.2366 65.4835 64.4179 65.3218C64.7946 65.0554 65.1907 64.8156 65.5863 64.576L65.5863 64.5759L65.5864 64.5759L65.5866 64.5758L65.5867 64.5757C65.6538 64.5351 65.7209 64.4945 65.7879 64.4537C65.9195 64.3736 66.0559 64.3013 66.1923 64.2289L66.1924 64.2289L66.1925 64.2288L66.1926 64.2287L66.1927 64.2287L66.1929 64.2286L66.193 64.2286L66.1931 64.2285L66.1932 64.2284L66.1933 64.2284L66.1934 64.2283L66.1936 64.2282C66.293 64.1755 66.3924 64.1227 66.4901 64.067C66.6261 63.9895 66.7816 63.9547 66.937 63.92C67.1926 63.8628 67.448 63.8057 67.6167 63.5588C67.9359 63.624 68.2049 63.5115 68.4799 63.3966L68.48 63.3966C68.5643 63.3613 68.6492 63.3258 68.7362 63.2952C68.966 63.1953 69.227 63.1933 69.4584 63.2897C69.6898 63.3861 69.8714 63.5725 69.9609 63.8055ZM85.6784 36.178L85.7267 35.302C85.8213 34.733 85.783 34.1499 85.6149 33.5977C85.5442 33.3614 85.4117 33.1506 85.2782 32.9381C85.1424 32.7222 85.0056 32.5045 84.9317 32.2568C84.9151 32.2008 84.7805 32.1469 84.7019 32.1482C84.459 32.1502 84.2165 32.1695 83.9764 32.2059C83.5285 32.2771 83.1648 32.5152 82.7999 32.7541L82.7999 32.7541L82.7999 32.7541L82.7999 32.7541L82.7998 32.7541L82.7998 32.7541L82.7998 32.7541L82.7998 32.7541L82.7998 32.7542L82.7998 32.7542L82.7997 32.7542C82.6902 32.8259 82.5805 32.8977 82.4684 32.9651C81.5116 33.5406 80.7785 34.2513 80.7357 35.4503C80.7381 35.5401 80.7074 35.6276 80.6494 35.6964C80.3892 35.9124 80.4915 36.1039 80.5934 36.2945C80.6491 36.3987 80.7047 36.5027 80.7008 36.6103C81.0916 36.8873 81.2771 37.3073 81.458 37.7167C81.5222 37.8619 81.5857 38.0058 81.6576 38.1415C81.9023 38.6033 82.1789 38.746 82.5792 38.6728C82.6588 38.6583 82.739 38.6447 82.8195 38.631C83.4493 38.5242 84.092 38.4152 84.5283 37.8473C84.587 37.7714 84.6672 37.7113 84.7475 37.651C84.9157 37.5246 85.0848 37.3977 85.0593 37.124C85.0702 37.0415 85.1234 36.9705 85.1997 36.9364C85.6497 36.8906 85.6619 36.5829 85.6741 36.2735C85.6754 36.2416 85.6767 36.2096 85.6784 36.178ZM39.4996 31.229L39.3807 31.2952L38.7803 31.6299C38.9064 31.6538 39.0007 31.672 39.0754 31.6865L39.0763 31.6866L39.0778 31.6869L39.0779 31.687C39.1975 31.7101 39.2666 31.7235 39.3363 31.7351L39.3376 31.7353C39.5096 31.7639 39.6027 31.7793 39.6551 31.8338C39.7168 31.898 39.7224 32.0162 39.7344 32.2735L39.7345 32.2748C39.7352 32.29 39.7349 32.3072 39.7346 32.3249L39.7346 32.3249L39.7346 32.3249L39.7346 32.325L39.7346 32.325C39.7337 32.3767 39.7327 32.4316 39.7569 32.4488C40.0618 32.6458 40.1825 33.0305 40.0442 33.3645C39.9238 33.7577 39.7264 34.1232 39.4633 34.4401C38.4016 35.5609 37.0272 36.1786 35.5797 36.6376C35.4107 36.6912 35.2156 36.6633 35.0217 36.6356C34.9325 36.6228 34.8436 36.6101 34.7576 36.6053L34.8179 36.2453C34.4742 36.2502 34.225 36.1594 34.1657 35.757C34.1211 35.6087 34.0057 35.4918 33.8573 35.4448C33.6135 35.4075 33.5939 35.2474 33.5747 35.0904C33.5616 34.9834 33.5487 34.8778 33.465 34.8135C33.6725 34.6992 33.646 34.5237 33.6193 34.347C33.596 34.193 33.5726 34.038 33.7039 33.9221C33.7989 33.8384 33.8872 33.743 33.9752 33.6479L33.9753 33.6479C34.1387 33.4714 34.3012 33.296 34.5031 33.1984C35.1819 32.8494 35.8967 32.5742 36.6351 32.3778C36.9652 32.3229 37.2589 32.1376 37.4492 31.864C37.7233 31.4229 38.1309 31.0794 38.6136 30.8827L38.6302 30.8762C39.0343 30.7175 39.0372 30.7164 39.4996 31.229ZM49.9686 49.6512C49.8554 49.6274 49.7395 49.6184 49.6239 49.6244C49.3604 49.7892 49.1265 49.9747 48.8973 50.1564L48.8971 50.1565L48.897 50.1567L48.8969 50.1567L48.8969 50.1567L48.8969 50.1567L48.8968 50.1567C48.7878 50.2432 48.6798 50.3288 48.5702 50.411C47.8891 50.918 47.1904 51.4402 46.7979 52.2714C46.536 52.8265 46.5756 53.3564 46.9576 53.6756C47.067 53.767 47.1431 53.8938 47.2189 54.02C47.3544 54.2458 47.4889 54.4698 47.8109 54.4862C47.8564 55.0092 48.2931 54.9446 48.5707 54.8795C49.3473 54.6975 50.1338 54.4931 50.7755 53.9818C50.8937 53.8877 50.9925 53.7702 51.0915 53.6526C51.1831 53.5438 51.2747 53.4349 51.3817 53.3444C51.5586 53.1946 51.7532 53.0656 51.9632 52.9263L51.9633 52.9262C52.0587 52.863 52.1572 52.7976 52.2587 52.7273L52.0647 51.3179L51.8314 51.2665L51.8284 51.2658C51.7107 51.2398 51.5912 51.2135 51.4465 51.1819L52.3701 50.1752C52.3047 50.0985 52.2284 50.0248 52.1565 49.9553C52.0103 49.814 51.8821 49.6902 51.9005 49.594C51.9303 49.438 51.8932 49.3052 51.8561 49.1724C51.8197 49.042 51.7833 48.9116 51.81 48.7593C51.6947 48.8362 51.6678 48.97 51.6418 49.0991C51.6015 49.299 51.5636 49.4873 51.2031 49.4344L51.419 49.0019C50.9761 48.8278 50.7837 49.1134 50.5839 49.41C50.5642 49.4392 50.5444 49.4685 50.5244 49.4975C50.6937 49.458 50.8632 49.4195 51.0733 49.3716C51.056 49.4714 51.0217 49.5675 50.972 49.6559C50.8923 49.7489 50.7899 49.8199 50.6746 49.8623C50.6431 49.872 50.6029 49.8448 50.5602 49.816C50.5211 49.7897 50.48 49.762 50.4418 49.7599C50.3987 49.758 50.3534 49.7776 50.3088 49.7969C50.2597 49.8181 50.2116 49.839 50.1688 49.8299C50.1301 49.8219 50.099 49.7818 50.0674 49.7413C50.0371 49.7023 50.0065 49.6629 49.9686 49.6512ZM36.3811 64.579L36.194 65.0402C36.627 65.0829 36.9051 64.8651 37.187 64.6442C37.4266 64.4565 37.669 64.2666 38.0117 64.2327C37.9576 64.3703 37.8883 64.5015 37.8048 64.6238C37.6432 64.7863 37.4732 64.9403 37.2956 65.0853C37.586 65.0823 37.8658 64.9768 38.085 64.7877C38.41 65.0862 38.5528 65.2173 38.6101 65.3788C38.655 65.5052 38.6475 65.6503 38.634 65.9091C38.5172 66.0012 38.3899 66.0884 38.2615 66.1763C37.9666 66.3782 37.6658 66.5842 37.4722 66.8637C37.2854 67.1331 37.0314 67.2788 36.7792 67.4234C36.617 67.5164 36.4555 67.609 36.3131 67.7338C35.9357 68.0225 35.5168 68.2534 35.0705 68.4188C34.8301 68.5395 34.5591 68.587 34.2915 68.5555C33.9873 68.4899 33.5432 68.335 33.4677 68.1146C33.3811 67.8613 33.23 67.8166 33.075 67.7708C33.0077 67.7509 32.9397 67.7307 32.8758 67.6932C32.5877 67.5239 32.3108 67.2985 32.2683 66.9108C32.2593 66.8286 32.2327 66.7399 32.2066 66.6524C32.1608 66.499 32.1162 66.3497 32.1695 66.2476C32.3619 65.8439 32.6308 65.4809 32.9614 65.1783C33.6001 64.6592 34.2718 64.1814 34.9723 63.7481C35.0877 63.6747 35.2546 63.6813 35.4509 63.6891C35.5507 63.6931 35.6581 63.6973 35.7703 63.6915L35.4611 64.0326C35.7873 64.0035 35.9602 64.1849 36.1234 64.3561L36.1234 64.3562C36.2056 64.4424 36.2854 64.5261 36.3811 64.579ZM1.94741 57.1701L1.64023 57.6608C1.96425 57.626 2.2855 57.5694 2.60178 57.4914C2.73085 57.4486 2.91824 57.2816 2.91087 57.1836C2.89468 56.9685 3.02092 56.8458 3.13855 56.7314C3.21457 56.6575 3.28698 56.5871 3.31506 56.4975C3.38503 56.2706 3.53433 56.1483 3.68269 56.0268C3.74071 55.9792 3.79858 55.9318 3.85151 55.8783C3.95882 55.7699 4.08333 55.673 4.20716 55.5766C4.417 55.4132 4.62487 55.2514 4.74374 55.0381C4.86213 54.8256 5.0266 54.6768 5.18902 54.5298C5.29399 54.4348 5.39811 54.3406 5.4884 54.2304C5.64784 54.0359 5.80368 53.8385 5.9591 53.6416C6.02787 53.5544 6.09656 53.4674 6.16544 53.3808L6.22206 52.3532C5.87022 52.4359 5.87984 52.2558 5.88954 52.0741C5.89712 51.932 5.90475 51.789 5.73969 51.77C5.60955 51.7518 5.51824 51.8438 5.42603 51.9367C5.29765 52.066 5.16753 52.1971 4.92847 52.035C4.97487 51.9867 5.0266 51.9411 5.07792 51.8958C5.28124 51.7163 5.47821 51.5424 5.31303 51.2381C4.76005 51.2339 4.40305 51.5687 4.0458 51.9037L3.99439 51.9519C3.92885 52.0207 3.85727 52.0837 3.7805 52.14C2.89708 52.7006 2.0569 53.3257 1.26695 54.0103C1.17517 54.0908 1.0642 54.1491 0.95308 54.2076C0.85002 54.2617 0.746842 54.316 0.65874 54.388L0.622232 54.4178C0.297648 54.6824 -0.0381228 54.9562 0.00352281 55.4478C0.205661 55.4843 0.366711 55.3907 0.524665 55.2989C0.715245 55.1881 0.90131 55.08 1.14959 55.2062L0.129892 56.1135L0.395955 56.6329L1.46049 56.2452C1.14652 56.8591 1.184 56.9133 1.94741 57.1701ZM65.8541 54.6599C65.8404 54.7712 65.8499 54.872 65.859 54.9678C65.8763 55.1519 65.892 55.318 65.7385 55.5063L65.6273 55.1173C65.522 55.142 65.4168 55.1675 65.3116 55.1931L65.3109 55.1933C65.0276 55.2622 64.744 55.3311 64.4584 55.3821C64.3576 55.4002 64.1642 55.3376 64.1388 55.2669C64.0563 55.0386 63.8831 54.8968 63.7116 54.7564C63.5902 54.6571 63.4697 54.5586 63.3829 54.4306C63.2988 54.2746 63.2559 54.0999 63.2583 53.9229C63.2558 53.8796 63.2889 53.8343 63.322 53.7891C63.3548 53.7442 63.3876 53.6993 63.3853 53.6566C63.3557 53.5415 63.3051 53.4329 63.236 53.336L63.2784 53.3266C63.8252 53.2054 63.8535 53.1991 64.1024 52.5858C64.1972 52.352 64.3813 52.2407 64.568 52.128C64.6818 52.0592 64.7966 51.9898 64.8927 51.8917L64.6254 51.7484L64.5048 51.6838C64.5392 51.6548 64.573 51.6187 64.6061 51.5835L64.6061 51.5834L64.6062 51.5834C64.6752 51.5098 64.7411 51.4397 64.8025 51.4433C65.9396 51.511 65.9655 51.5115 66.6753 51.0328C66.3758 50.8402 66.1376 50.9594 65.8856 51.0856C65.7185 51.1693 65.5454 51.256 65.3442 51.257C65.3537 51.2124 65.3596 51.1603 65.3653 51.1097C65.3772 51.0049 65.3884 50.9062 65.4293 50.8921C65.519 50.8611 65.6082 50.8272 65.6972 50.7934C66.2098 50.5987 66.718 50.4056 67.3066 50.7613C67.3336 50.7777 67.3591 50.7924 67.3829 50.8062C67.5481 50.9019 67.6345 50.9519 67.6256 51.1828C67.6366 51.3587 67.6934 51.5288 67.7903 51.6765C67.9448 51.9517 68.1104 52.2207 68.2836 52.5021C68.3553 52.6185 68.4283 52.7371 68.5023 52.859L68.2587 53.0018C68.1575 53.1306 68.2025 53.2699 68.2411 53.3892C68.2938 53.5523 68.3345 53.6782 67.9723 53.6889C67.9037 53.691 67.921 53.7542 67.9417 53.8296C67.9748 53.9499 68.0163 54.1013 67.7314 54.0856C67.6071 54.0788 67.474 54.2292 67.346 54.374L67.3459 54.374L67.3459 54.374L67.3458 54.3742C67.2891 54.4383 67.2334 54.5012 67.18 54.5488C67.0296 54.482 66.8864 54.4176 66.7434 54.3539C66.708 54.3987 66.6728 54.4436 66.6377 54.4885C66.7911 54.5797 66.9444 54.6711 67.1373 54.7858L66.622 55.0506L66.4373 55.1456C66.2573 54.996 66.0556 54.828 65.8541 54.6599ZM39.8669 20.6518L39.0938 21.1949C39.1628 21.3104 39.2448 21.4178 39.3382 21.5149C39.4409 21.5713 39.5467 21.6216 39.6553 21.6658L39.6715 21.6745C39.7672 21.7258 39.9195 21.8075 39.9114 21.8347C39.8462 22.0499 39.9702 22.2068 40.0938 22.3633C40.2263 22.5311 40.3585 22.6984 40.2569 22.9365C40.3283 22.9739 40.4016 23.0075 40.4765 23.0371C40.576 22.8535 40.711 22.8965 40.8446 22.939C40.9148 22.9614 40.9846 22.9836 41.0486 22.9727C41.3243 22.9261 41.5496 22.7934 41.7724 22.6622C41.9299 22.5695 42.0861 22.4775 42.2579 22.4172C43.0028 22.1609 43.6782 21.7375 44.2317 21.1797L44.0644 19.2249L43.1348 19.1737C43.1961 19.0284 43.3192 18.9318 43.4387 18.8382C43.6101 18.7038 43.7738 18.5753 43.7358 18.3177C43.2172 18.1749 42.7092 18.1641 42.2894 18.4299C41.9421 18.6499 41.579 18.8401 41.2163 19.03L41.2162 19.0301C40.8665 19.2133 40.5171 19.3962 40.1827 19.6055C39.8521 19.7901 39.5767 20.0586 39.3847 20.3835L39.8669 20.6518ZM26.3889 41.5745L25.4945 41.902L25.9496 42.1028C25.9458 42.1082 25.9422 42.114 25.9386 42.1201C25.9335 42.1289 25.9285 42.1383 25.9236 42.1476L25.9236 42.1477L25.9235 42.1477C25.9056 42.1814 25.8879 42.2146 25.8646 42.2196C25.5383 42.2839 25.2345 42.4313 24.9829 42.6474C24.8169 42.7746 24.634 42.8785 24.4394 42.9562C24.1043 43.0843 23.8558 43.3701 23.7766 43.7182L24.08 43.8878L23.6596 44.3867C23.6127 44.3841 23.5762 44.384 23.5486 44.384C23.5064 44.3839 23.4853 44.3839 23.4801 44.3748C23.3988 44.2344 23.3217 44.0917 23.2486 43.9563L23.2485 43.9561L23.2484 43.956L23.2484 43.9559L23.1908 43.8495C22.9278 43.8815 22.6888 43.9105 22.3317 43.9537L22.6934 43.3078C22.4487 43.1698 22.2031 43.0313 21.9389 42.8824L21.9115 42.4203L21.4872 42.397C21.1541 41.9006 21.224 41.513 21.6259 41.1207C21.792 40.9585 21.9494 40.7876 22.109 40.6143C22.37 40.3309 22.6369 40.041 22.9575 39.7727L23.3137 40.3781C23.7107 40.289 24.0841 40.1174 24.4094 39.8744C24.6544 39.6987 24.9446 39.5853 25.2299 39.4739L25.23 39.4738L25.2301 39.4738L25.2302 39.4738C25.354 39.4254 25.4768 39.3774 25.5946 39.3249C25.8553 39.5597 25.7425 39.7373 25.6237 39.9245C25.5923 39.9741 25.5604 40.0243 25.535 40.0764C25.5657 40.0816 25.5969 40.0903 25.6275 40.0988L25.6275 40.0988L25.6276 40.0988L25.6277 40.0988C25.6922 40.1168 25.7537 40.1339 25.8017 40.1159C26.2431 39.9494 26.4511 40.0433 26.4476 40.4476C26.4451 40.7108 26.4276 40.9739 26.4103 41.2331C26.4027 41.3478 26.3951 41.4617 26.3889 41.5745ZM23.4055 14.7756L24.1017 14.3616C24.089 14.3403 24.0768 14.3192 24.0647 14.2984L24.0645 14.2979C23.9602 14.118 23.8685 13.9596 23.5907 13.9174C22.9585 13.8209 22.4086 14.0415 21.8605 14.2614L21.8603 14.2614C21.7193 14.318 21.5784 14.3745 21.4363 14.4256C21.1511 14.528 21.0338 14.9981 21.0961 15.3795C21.1173 15.5325 21.1188 15.6874 21.1005 15.8407C21.0401 16.2235 21.2943 16.5857 21.6767 16.6616C21.9447 16.7358 22.1226 16.8116 22.1876 17.098C22.2271 17.3542 22.4643 17.5329 22.7231 17.5012C22.7436 17.501 22.7641 17.5004 22.7848 17.4998L22.8025 17.4993C23.0192 17.4927 23.2422 17.4859 23.4058 17.7146C23.5153 17.7805 23.6508 17.7869 23.766 17.7315C23.8184 17.6989 23.8533 17.6247 23.886 17.5552C23.9205 17.482 23.9525 17.414 24 17.4055C24.0595 17.3949 24.1257 17.44 24.1944 17.4868C24.2574 17.5298 24.3226 17.5742 24.3866 17.5783C24.8339 17.6072 25.0867 17.2892 25.2405 16.9482C25.2819 16.8569 25.29 16.7537 25.2984 16.6479C25.3111 16.4883 25.3242 16.3229 25.4523 16.1844C25.4641 16.1717 25.3956 16.0895 25.315 15.9927C25.2508 15.9156 25.1789 15.8292 25.1336 15.7613C25.0941 15.6756 25.066 15.5851 25.0502 15.4922L24.2701 15.4492C24.5186 15.3467 24.6436 15.2952 24.7463 15.253L24.7767 14.7012C24.6701 14.7191 24.567 14.7369 24.4665 14.7543L24.4664 14.7543C24.1954 14.8012 23.9429 14.8448 23.6888 14.8781C23.6422 14.8843 23.5914 14.86 23.5259 14.8287C23.4906 14.8118 23.451 14.7929 23.4055 14.7756ZM39.6015 45.7365L39.327 46.5088C39.6274 46.654 39.9207 46.7082 40.2106 46.4526C40.38 46.6596 40.2836 46.8127 40.1836 46.9716C40.1149 47.0808 40.0445 47.1927 40.0575 47.3267L40.5631 47.449C40.6939 47.5851 40.6276 47.7041 40.5576 47.8297C40.4884 47.9537 40.4158 48.0841 40.5264 48.2436C40.6635 48.442 40.5243 48.5392 40.3756 48.643C40.2775 48.7115 40.1753 48.7828 40.1453 48.888C40.0711 49.047 39.95 49.18 39.7982 49.2693C39.6059 49.4082 39.3846 49.4928 39.1622 49.5777C38.8532 49.6958 38.5421 49.8146 38.3036 50.0813C38.238 50.1546 38.0775 50.144 37.8943 50.1319C37.8027 50.1258 37.7055 50.1194 37.6116 50.1229C37.7614 49.8573 37.6115 49.7072 37.4608 49.5563C37.3177 49.413 37.1739 49.269 37.2857 49.0248C37.211 48.9731 37.1158 48.9481 37.0186 48.9226C36.7933 48.8635 36.557 48.8015 36.5404 48.3967L37.0577 48.1323L36.5886 47.877C36.5323 47.5644 36.7926 47.4296 36.9764 47.3345L37.0018 47.3213C37.6 47.0128 38.1092 46.5578 38.4812 45.9992C38.7196 45.6477 39.0865 45.4681 39.6015 45.7365ZM64.3383 41.261L65.2216 42.5176C65.3184 42.501 65.4256 42.4919 65.5368 42.4826C65.7964 42.4607 66.0777 42.437 66.2983 42.3099C66.8679 41.9963 67.3851 41.5967 67.8312 41.1253C68.3308 40.5704 68.754 39.9059 68.1086 39.1397C68.0673 39.0906 68.0579 39.0149 68.0473 38.9294C68.0418 38.885 68.036 38.8379 68.0251 38.7905C67.9388 38.8025 67.8523 38.8062 67.7699 38.8097C67.6016 38.8168 67.4505 38.8233 67.3524 38.8983C67.2864 38.9488 67.2214 39.0005 67.1565 39.0521C66.77 39.3594 66.3891 39.6622 65.8485 39.6735C65.5998 39.9466 65.2722 40.0757 64.947 40.2038C64.752 40.2806 64.5579 40.3571 64.3822 40.4641L64.3383 41.261Z" fill="#171B1B"/>
</svg>
