<svg width="498" height="546" viewBox="0 0 498 546" fill="none" xmlns="http://www.w3.org/2000/svg">
<path fill-rule="evenodd" clip-rule="evenodd" d="M131.801 61.0756C106.201 75.0078 81.3579 90.2863 57.3755 106.847L56.8754 106.097C58.372 105.072 59.8705 104.049 61.3692 103.027L61.4302 102.985L61.4413 102.978C64.8717 100.637 68.3026 98.2969 71.7108 95.9181C86.3612 85.6726 101.751 76.6169 117.14 67.5617L117.141 67.5612L118.822 66.572C130.618 59.6965 143.2 54.2658 156.293 50.3974C168.579 46.6964 180.341 41.6376 192.104 36.5782L192.104 36.5781L192.105 36.5777L192.109 36.576L192.113 36.5742L192.117 36.5725L192.121 36.5708L192.125 36.569L192.129 36.5673L192.133 36.5656L192.138 36.5639L192.142 36.5621L192.146 36.5604L192.15 36.5587L192.154 36.5569L192.158 36.5552L192.162 36.5535L192.166 36.5517L192.17 36.5502C195.319 35.1957 198.468 33.8411 201.627 32.513C230.405 20.4145 259.69 9.75191 290.108 2.49561C290.786 2.33396 291.479 2.1387 292.175 1.94273C293.938 1.44651 295.716 0.945817 297.301 0.975548C299.532 1.0175 301.741 0.770598 303.951 0.523541C307.175 0.163149 310.402 -0.197562 313.705 0.33724C315.056 0.555326 316.44 0.392217 317.853 0.225701L317.854 0.225626C319.541 0.026888 321.269 -0.176671 323.03 0.257471C329.764 1.91126 336.612 1.83917 343.47 1.76699L343.47 1.76694C345.554 1.74503 347.639 1.72314 349.722 1.74962C363.506 1.92481 377.553 2.12172 390.427 7.4197C413.544 16.9331 435.725 28.4635 454.156 45.7075C473.229 63.552 486.269 85.0285 492.03 110.917C492.44 112.762 492.871 114.599 493.301 116.434L493.301 116.434L493.302 116.437C495.471 125.69 497.624 134.873 497.101 144.527C496.66 150.502 495.821 156.442 494.59 162.306C494.159 164.579 493.834 166.865 493.508 169.152L493.508 169.152C492.824 173.96 492.139 178.77 490.475 183.454C487.079 193.02 483.623 202.504 479.316 211.731C474.791 221.419 476.743 231.271 479.937 241.092C481.329 245.372 482.887 249.596 484.444 253.819L484.445 253.82C487.303 261.57 490.162 269.322 491.996 277.427C499.923 312.442 495.662 345.765 479.706 378.037C473.912 389.758 467.313 400.978 460.714 412.197C458.141 416.572 455.568 420.947 453.043 425.351C449.001 432.4 444.692 439.301 440.385 446.2L440.385 446.201L440.385 446.201L440.385 446.201C435.685 453.728 430.988 461.251 426.642 468.96C407.815 502.338 377.24 519.565 342.949 531.945C327.726 537.44 311.752 539.855 295.694 541.791C292.979 542.118 290.266 542.463 287.554 542.808C272.748 544.691 257.966 546.572 242.934 545.564C210.948 543.415 181.624 534.174 156.143 514.127C143.872 504.474 131.612 494.803 121.567 482.771C111.588 471.088 103.772 457.721 98.4837 443.296C95.2236 434.179 92.6148 424.871 90.0064 415.565L90.0063 415.564L90.0062 415.564L90.0061 415.564L90.006 415.563L90.0059 415.563L90.0058 415.562L90.0057 415.562L90.0056 415.562L90.0055 415.561L90.0054 415.561L90.0053 415.561L90.0052 415.56L90.0051 415.56L90.005 415.56L90.0049 415.559L90.0048 415.559L90.0047 415.558L90.0046 415.558L90.0045 415.558L90.0044 415.557L90.0043 415.557L90.0042 415.557L90.0041 415.556L90.004 415.556L90.0039 415.556C87.5447 406.781 85.0859 398.008 82.0815 389.399C80.878 386.014 79.3781 382.742 77.5994 379.621C75.876 376.55 74.311 373.389 72.7463 370.229C70.0957 364.875 67.4461 359.523 64.029 354.612C60.8166 349.996 57.4769 345.468 54.1372 340.941L54.1368 340.94L54.1364 340.939L54.1359 340.939L54.1355 340.938L54.1351 340.938L54.1346 340.937L54.1342 340.936L54.1338 340.936L54.1333 340.935L54.1329 340.935L54.1324 340.934L54.132 340.933L54.1316 340.933L54.1311 340.932L54.1307 340.932L54.1303 340.931L54.1298 340.93L54.1294 340.93L54.129 340.929L54.1285 340.929L54.1281 340.928L54.1277 340.927L54.1272 340.927L54.1268 340.926L54.1264 340.926C50.635 336.192 47.1437 331.459 43.7977 326.625C33.8845 312.11 25.5265 296.592 18.8616 280.328C12.5026 265.05 7.43345 249.266 3.707 233.141C1.39857 223.536 0.273218 213.685 0.355979 203.804C0.374107 202.652 0.278831 201.46 0.182449 200.254L0.182335 200.252L0.182273 200.251L0.182256 200.251L0.182238 200.251L0.182221 200.25L0.182204 200.25L0.182186 200.249L0.182169 200.249L0.182151 200.249L0.182134 200.248L0.182117 200.248L0.182099 200.247L0.182082 200.247L0.182064 200.247L0.182047 200.246L0.18203 200.246L0.182012 200.245L0.181995 200.245L0.181977 200.245L0.18196 200.244L0.181943 200.244C-0.109159 196.599 -0.410337 192.828 2.35588 189.623C2.86179 175.39 9.85601 163.891 16.8468 152.398C18.366 149.9 19.8851 147.402 21.3374 144.877C23.6811 140.803 26.5651 137.111 29.4461 133.423L29.4467 133.422L29.4473 133.421L29.448 133.42L29.4486 133.42L29.4492 133.419L29.4498 133.418L29.4505 133.417L29.4511 133.416L29.4517 133.416L29.4523 133.415L29.4529 133.414C30.9535 131.493 32.4532 129.573 33.875 127.6C36.1718 124.415 39.1389 122.232 42.0921 120.059C43.4902 119.03 44.8851 118.003 46.2043 116.874C55.8295 108.621 66.4351 101.664 77.032 94.713C78.7599 93.5796 80.4876 92.4463 82.2108 91.3075C98.3494 80.6371 115.039 70.8475 131.801 61.0756ZM365.134 118.05L365.133 118.052C358.598 129.994 351.997 142.055 347.355 155.8C358.048 141.214 370.936 114.862 370.394 108.333C368.673 111.583 366.906 114.811 365.135 118.048L365.134 118.05ZM351.885 190.088L350.11 189.355C351.299 186.42 352.445 183.467 353.592 180.514C357.591 170.211 361.591 159.905 367.4 150.363C363.523 164.078 357.742 176.999 351.96 189.921L351.885 190.088ZM428.689 302.251C427.479 308.613 425.704 314.839 423.931 321.06C421.691 328.918 419.453 336.77 418.358 344.882C424.309 331.395 427.808 316.958 428.689 302.251ZM446.098 191.048C443.825 184.916 447.165 165.037 451.145 161.236C450.525 164.68 450.088 168.158 449.648 171.667C448.85 178.027 448.04 184.49 446.098 191.048ZM282.497 303.622C288.689 297.658 299.856 277.503 300.599 270.92L282.497 303.622ZM222.978 529.238C213.792 525.606 204.198 523.101 194.405 521.778C203.454 525.813 213.107 528.333 222.978 529.238ZM429.683 375.198C430.248 373.898 430.828 372.603 431.408 371.308C435.087 363.095 438.767 354.882 438.516 345.486C436.824 351.492 435.016 357.462 433.209 363.434L433.208 363.434L433.208 363.435L433.208 363.435L433.208 363.436L433.208 363.436L433.208 363.437L433.208 363.437L433.208 363.437L433.207 363.438L433.207 363.438L433.207 363.439L433.207 363.439L433.207 363.44L433.207 363.44L433.207 363.441L433.207 363.441L433.206 363.441L433.206 363.442L433.206 363.442L433.205 363.447C432.02 367.36 430.836 371.273 429.683 375.198ZM369.626 164.742C370.356 163.111 371.085 161.48 371.803 159.844C369.249 170.347 364.795 180.134 360.11 189.832C362.309 181.101 365.967 172.921 369.626 164.742ZM417.92 473.476C414.407 478.402 410.558 483.081 406.402 487.48C403.548 490.467 400.544 493.311 397.54 496.155L397.54 496.156C396.228 497.398 394.917 498.639 393.618 499.893C404.47 493.05 415.378 481.125 417.92 473.476ZM401.617 390.25C401.819 395.016 392.437 412.721 385.946 419.838C386.992 417.8 388.099 415.785 389.21 413.766C390.775 410.919 392.346 408.062 393.756 405.115C395.377 401.718 397.184 398.408 399.066 394.962C399.905 393.425 400.759 391.861 401.617 390.25ZM341.8 127.919L340.928 127.427C336.681 131.921 334.275 137.455 331.869 142.99C331.456 143.94 331.043 144.89 330.62 145.835L331.459 146.307L341.8 127.919ZM258.035 322.5L245.158 345.115C248.127 336.92 252.184 329.159 257.219 322.04L257.473 322.183L257.673 322.296C257.794 322.364 257.914 322.432 258.035 322.5ZM243.121 318.217C239.574 320.777 232.023 334.856 231.32 339.303L243.121 318.217ZM369.766 189.129L368.706 188.674L376.34 169.541C375.144 176.441 372.51 182.799 369.766 189.129ZM429.246 212.507L429.247 212.503L429.248 212.51L429.246 212.507ZM431.36 193.365C429.064 199.469 428.338 206.05 429.247 212.503L431.36 193.365ZM474.507 149.004L472.912 129.435L472.914 129.437C474.92 135.753 475.465 142.443 474.507 149.004ZM273.697 426.365L274.578 427.069L284.569 414.499L283.818 413.9C282.532 415.824 280.927 417.493 279.323 419.162C277.203 421.367 275.083 423.572 273.696 426.364L273.697 426.365ZM224.523 310.904L224.526 310.902L224.525 310.901L224.523 310.904ZM217.26 322.544C218.666 318.117 221.164 314.114 224.523 310.904C224.239 311.516 223.961 312.134 223.684 312.753C222.085 316.32 220.469 319.925 217.26 322.544ZM483.062 167.962C484.926 164.723 485.847 161.028 485.721 157.296C485.721 157.192 485.73 157.083 485.738 156.973C485.778 156.47 485.818 155.954 485.112 155.817C484.252 155.651 484.069 156.353 484.019 156.947C483.748 159.801 483.508 162.656 483.268 165.511L483.268 165.512L483.268 165.516C483.199 166.331 483.131 167.146 483.062 167.961L483.062 167.962ZM456.095 350.823L456.096 350.821L456.095 350.82L456.095 350.823ZM456.095 350.823C455.948 351.277 455.8 351.729 455.651 352.181C454.362 356.109 453.082 360.009 453.002 364.159C455.688 360.075 455.965 355.441 456.095 350.823ZM464.832 153.151C466.315 148.212 466.054 141.538 464.579 138.749L464.832 153.151ZM45.0061 147.571L44.9986 147.578L45.0034 147.575L45.0061 147.571ZM45.0061 147.571L55.4945 137.729C51.1859 140.02 47.5654 143.418 45.0061 147.571ZM359.425 139.871C356.756 143.501 354.659 147.517 353.208 151.779C355.823 148.117 357.916 144.109 359.425 139.871ZM130.92 475.527C131.212 476.342 131.501 477.146 131.982 477.815L131.968 477.804C129.848 476.24 127.723 474.671 127.38 471.458C129.706 472.14 130.321 473.856 130.92 475.527ZM293.652 342.263C291.116 345.072 289.118 348.322 287.758 351.851C290.278 349.03 292.274 345.783 293.652 342.263ZM129.221 65.8077L129.311 65.9701L119.439 71.4424L119.349 71.28L129.221 65.8077Z" fill="#F9BF77"/>
</svg>
