<svg width="176" height="121" viewBox="0 0 176 121" fill="none" xmlns="http://www.w3.org/2000/svg">
<path fill-rule="evenodd" clip-rule="evenodd" d="M1.25196 47.4181L1.25196 47.4181L1.25196 47.4182L1.25196 47.4183C1.24849 47.5403 1.24487 47.6675 1.23994 47.802C0.183838 47.9696 -0.0186724 48.1319 0.001318 49.0124L0.00253796 49.069C0.0114589 49.4932 0.0209363 49.9439 0.362088 50.3222C0.527699 50.5056 0.659557 50.719 0.791595 50.9326C0.917468 51.1363 1.0435 51.3403 1.1991 51.5187C1.84133 52.2543 2.56229 52.8921 3.58395 53.0527C3.91219 53.1041 4.23792 53.1718 4.57533 53.2419L4.57534 53.2419C4.7313 53.2743 4.88975 53.3072 5.0521 53.3393L5.38333 53.1159C5.42328 53.0889 5.463 53.0616 5.50273 53.0342L5.50276 53.0342L5.50279 53.0342L5.50281 53.0342L5.50284 53.0342L5.50287 53.0341L5.5029 53.0341L5.50292 53.0341L5.50295 53.0341L5.50298 53.0341L5.503 53.034L5.50303 53.034L5.50306 53.034L5.50309 53.034L5.50311 53.034L5.50314 53.034L5.50317 53.0339L5.5032 53.0339L5.50322 53.0339L5.50325 53.0339L5.50328 53.0339L5.50331 53.0338L5.50333 53.0338L5.50337 53.0338L5.5034 53.0338L5.50343 53.0338L5.50347 53.0337L5.5035 53.0337L5.50354 53.0337L5.50357 53.0337L5.5036 53.0336L5.50364 53.0336L5.50367 53.0336L5.5037 53.0336L5.50374 53.0335L5.50377 53.0335L5.50381 53.0335L5.50384 53.0335L5.50387 53.0335L5.50391 53.0334L5.50394 53.0334L5.50397 53.0334L5.50401 53.0334L5.50404 53.0333L5.50408 53.0333C5.58372 52.9785 5.66339 52.9236 5.74505 52.8719C6.38316 52.4678 6.38504 52.4692 7.13823 53.0481L7.15572 53.0616C7.2262 53.1158 7.31592 53.1563 7.40395 53.196C7.53716 53.256 7.66651 53.3144 7.71959 53.4162C8.03381 54.0206 8.54868 54.086 9.12524 54.0851L8.8817 53.2903L8.61084 52.4064L8.81225 52.3221L9.72089 53.6692C10.6837 53.2976 10.3939 52.6911 10.1235 52.1253C10.1067 52.0901 10.09 52.0552 10.0737 52.0204C10.7284 51.9087 11.1417 51.6844 11.0501 51.0261C10.9764 50.4966 11.258 50.5556 11.545 50.6159L11.5451 50.6159L11.5451 50.6159C11.5845 50.6242 11.6241 50.6325 11.6628 50.6392C11.6497 49.5643 11.2687 48.5243 10.5834 47.6934C10.0774 47.0279 9.61709 46.3279 9.15672 45.6278L9.15668 45.6277L9.15663 45.6277L9.15659 45.6276L9.15655 45.6276L9.15651 45.6275L9.15646 45.6274L9.15642 45.6274L9.15638 45.6273L9.15634 45.6272L9.15629 45.6272L9.15625 45.6271L9.15621 45.6271L9.15617 45.627L9.15612 45.6269L9.15608 45.6269L9.15604 45.6268L9.156 45.6267L9.15596 45.6267L9.15591 45.6266L9.15587 45.6266L9.15583 45.6265L9.15579 45.6264C8.91907 45.2664 8.68233 44.9064 8.43931 44.551C8.28808 44.3502 8.12683 44.1572 7.95619 43.9727L7.83593 44.0618L8.50765 45.3096C8.17116 45.1026 7.88949 44.817 7.68695 44.4774C7.46935 44.1689 7.22845 43.8775 6.96639 43.6059C6.69959 43.3799 6.41763 43.1725 6.1225 42.9853L6.30764 43.6775C5.38884 43.2039 5.38794 43.2049 4.75061 43.9049L4.74557 43.9104C4.65818 44.006 4.51607 44.1563 4.4373 44.1369C4.00458 44.0259 3.87796 44.2013 3.73355 44.5963C3.69973 44.6886 3.53655 44.7193 3.35679 44.7532C3.19105 44.7843 3.01122 44.8182 2.90566 44.9054C2.64075 45.1489 2.43302 45.4482 2.29728 45.7822C2.20108 45.9962 2.01738 46.0135 1.83846 46.0304C1.67343 46.0459 1.51247 46.0611 1.42798 46.2299C1.35813 46.3497 1.31097 46.4816 1.28883 46.6188C1.26742 46.8749 1.2601 47.1322 1.25196 47.4181ZM31.578 43.1544C31.468 43.293 31.2226 43.3243 30.7408 43.3857C30.7402 43.5354 30.7032 43.6809 30.666 43.8278C30.5865 44.1407 30.5055 44.4599 30.771 44.8397C31.112 45.3441 31.629 45.7027 32.2194 45.8442C32.2864 45.8618 32.3554 45.8835 32.425 45.9053C32.6482 45.9753 32.8784 46.0475 33.0724 45.998C33.641 45.8531 34.1679 45.9878 34.6935 46.1223C34.949 46.1876 35.2042 46.2528 35.4637 46.2859C36.3837 46.4036 37.0772 47.0077 37.6049 47.6793C38.8861 49.3096 40.6925 50.0447 42.4976 50.7792L42.6437 50.8387C43.2282 51.0759 43.7747 50.8203 44.3295 50.5609C44.4242 50.5166 44.5192 50.4722 44.6146 50.4301L44.6614 50.4094C45.697 49.9527 45.9403 49.8454 45.8385 48.9352L45.8271 48.8353C45.7607 48.2636 45.7175 47.8912 46.5191 47.996C46.5793 48.0047 46.6768 47.7956 46.7522 47.6337L46.7635 47.6096C46.7727 47.5899 46.7815 47.5711 46.7898 47.5539C46.8209 47.4888 46.8476 47.3958 46.8721 47.3106L46.8722 47.3106C46.9051 47.1959 46.934 47.0953 46.9642 47.0958C47.6983 47.1184 47.4205 46.6244 47.2814 46.3771L47.2743 46.3646C47.2274 46.281 47.1806 46.1962 47.1336 46.1109L47.1335 46.1108L47.1335 46.1108L47.1335 46.1108L47.1334 46.1106C46.8231 45.5479 46.502 44.9656 46.0379 44.5664C45.8747 44.4262 45.7221 44.2661 45.5687 44.1053L45.5687 44.1052L45.5686 44.1052L45.5686 44.1052L45.5685 44.1051L45.5685 44.1051L45.5685 44.105L45.5684 44.105L45.5684 44.1049L45.5683 44.1049L45.5683 44.1048L45.5682 44.1048L45.5682 44.1047L45.5681 44.1047L45.5681 44.1047L45.5681 44.1046L45.568 44.1046L45.568 44.1045L45.5679 44.1045L45.5679 44.1044L45.5678 44.1044L45.5678 44.1043L45.5677 44.1043L45.5677 44.1042L45.5677 44.1042C45.1828 43.7006 44.7929 43.2918 44.2185 43.1755C43.8359 43.132 43.4975 42.9038 43.3126 42.5645C43.1969 42.4243 43.0438 42.3202 42.8713 42.2643C42.7623 42.2145 42.6534 42.1641 42.5445 42.1136C42.0724 41.8951 41.5998 41.6763 41.1125 41.4997C40.7852 41.3813 40.4498 41.2855 40.1145 41.1898C39.7718 41.092 39.4291 40.9942 39.0952 40.8721C38.6233 40.6999 38.1368 40.5691 37.6568 40.4401L37.6566 40.4401L37.6558 40.4399C37.5607 40.4143 37.4658 40.3888 37.3713 40.3631C37.2628 40.3335 37.1538 40.3018 37.0444 40.2699L37.0443 40.2698C36.3045 40.0544 35.5412 39.8321 34.7453 40.2226C34.1633 40.4741 33.568 40.6939 32.962 40.881C32.8761 41.3489 32.5309 41.5545 32.1872 41.7591C31.9665 41.8906 31.7463 42.0217 31.5959 42.2217C31.6605 42.7508 31.6922 43.0104 31.578 43.1544ZM174.376 62.1798C173.828 61.0101 173.579 59.8068 173.966 58.6023C173.818 58.432 173.68 58.2782 173.551 58.1341L173.55 58.1337L173.549 58.1324L173.549 58.132C173.292 57.8453 173.069 57.5968 172.871 57.3317C172.482 56.8077 171.964 56.3572 171.355 56.5716C170.629 56.8275 170.099 56.8356 169.624 56.193C169.56 56.1258 169.468 56.0917 169.376 56.1005C168.599 56.2428 167.866 56.0532 167.134 55.8637L167.134 55.8636C166.752 55.7648 166.37 55.666 165.982 55.6142L165.83 55.5935C164.961 55.475 164.914 55.4687 163.991 56.1916C163.805 56.3368 163.631 56.4964 163.431 56.6796L163.312 56.7878C163.248 56.8463 163.181 56.9071 163.109 56.9705C162.35 56.7646 161.605 56.5108 160.877 56.2107C160.68 56.1181 160.464 56.0614 160.247 56.0046C159.792 55.885 159.335 55.765 159.047 55.3095C158.65 55.5065 158.268 55.3882 157.922 55.2809C157.697 55.211 157.487 55.1458 157.297 55.1752L156.236 56.2477L156.69 56.9213C156.465 56.8939 156.333 56.8778 156.274 56.8702L156.02 57.4773C158.08 58.7256 160.253 59.7758 162.509 60.6138C162.862 60.7249 163.115 61.0365 163.152 61.405C162.804 61.2647 162.461 61.1334 162.125 61.0044C161.386 60.7206 160.677 60.4483 159.995 60.1186C159.122 59.6961 158.272 59.225 157.421 58.753L157.421 58.7528L157.42 58.7525L157.419 58.7521L157.419 58.7518L157.418 58.7514C157.051 58.548 156.684 58.3445 156.314 58.1446C155.976 59.0456 155.979 59.0471 156.62 59.4566L156.649 59.4749C158.517 60.6676 160.531 61.5752 162.539 62.4801L162.54 62.4802C162.845 62.618 163.151 62.7557 163.456 62.8944C165.718 63.9228 168.031 64.8664 170.54 65.1978C171.031 65.2626 171.498 65.2201 171.964 65.1778L171.964 65.1777C172.176 65.1585 172.387 65.1393 172.601 65.1301C172.866 65.0828 173.088 64.9045 173.192 64.656C173.26 64.2773 173.471 64.0572 173.699 63.8206L173.743 63.7747C173.786 63.7291 173.83 63.6825 173.873 63.6336C173.9 63.6028 173.929 63.5715 173.958 63.5397C174.276 63.1881 174.653 62.7714 174.376 62.1798ZM140.135 36.6043C139.813 36.5408 139.503 36.4719 139.199 36.4045C138.553 36.2614 137.938 36.125 137.316 36.0613C135.191 35.8435 133.387 34.8547 131.584 33.8661C131.16 33.6334 130.735 33.4008 130.307 33.1782C129.455 32.7356 128.967 31.9434 128.484 31.1603L128.484 31.1593C128.394 31.0134 128.304 30.8678 128.212 30.7249C128.143 30.6178 128.173 30.4472 128.203 30.2711C128.218 30.1881 128.232 30.1037 128.237 30.0243L128.266 30.0405C128.655 30.2595 129.024 30.4671 129.558 30.7663L128.438 29.1061C128.512 28.9768 128.59 28.8555 128.666 28.7383C128.83 28.4825 128.983 28.246 129.045 27.9877C129.154 27.6108 129.458 27.3236 129.84 27.2365C130.094 27.145 130.386 27.1564 130.691 27.1683C130.827 27.1737 130.966 27.1791 131.105 27.1756C131.507 28.1719 132.341 28.6715 133.276 29.1468C133.386 29.0184 133.538 28.932 133.693 28.8442C133.969 28.6874 134.253 28.5258 134.327 28.1112C134.41 27.9343 134.576 27.8111 134.77 27.7826C135.079 27.7674 135.39 27.7295 135.701 27.6916C136.704 27.5694 137.709 27.4469 138.66 28.0853L138.723 28.1284L138.724 28.1289C138.935 28.2723 139.18 28.4392 139.39 28.4195C139.537 28.4058 139.633 28.5017 139.728 28.5969C139.86 28.7287 139.991 28.8592 140.252 28.6971C140.499 28.5442 140.59 28.7263 140.682 28.9115C140.729 29.0044 140.775 29.098 140.842 29.1507C141.102 29.3304 141.349 29.5285 141.581 29.7435C141.767 29.9693 141.933 30.2099 142.079 30.463C141.735 31.8721 141.739 33.3461 142.092 34.7571L140.135 36.6043ZM78.0272 10.3513L78.0263 10.3536C77.8145 10.8933 77.6059 11.4246 77.3704 11.9431C77.3515 11.985 77.2153 11.9733 77.0434 11.9586L77.0432 11.9586L77.0429 11.9586C76.9517 11.9508 76.8506 11.9421 76.7516 11.9401C76.7912 12.202 76.8113 12.4664 76.8118 12.7311C76.7746 13.0207 76.7227 13.3081 76.6561 13.5922L76.6426 13.6696C76.5466 14.2272 76.4513 14.7804 75.6261 14.5922C75.5857 14.583 75.5361 14.6249 75.4841 14.6689C75.4517 14.6962 75.4184 14.7244 75.3857 14.7416C75.2321 14.8225 75.089 14.9153 74.9468 15.0075C74.5269 15.2798 74.114 15.5474 73.4591 15.492C73.1791 15.4683 72.8914 15.4757 72.6003 15.4833C72.1571 15.4948 71.706 15.5065 71.2627 15.4087C70.564 15.3002 69.8838 15.0921 69.2429 14.7908C68.2527 14.255 67.2752 13.7246 66.774 12.65C66.6732 12.314 66.6128 11.9673 66.5941 11.6174L67.761 11.7302C67.6935 11.5134 67.6026 11.3007 67.5107 11.0857L67.5106 11.0855C67.2679 10.5176 67.0185 9.93382 67.1744 9.21812L68.3075 9.27596L67.7098 8.38985C67.9288 8.18001 68.1318 7.96144 68.3326 7.74517C68.7748 7.26899 69.2066 6.80394 69.7764 6.46779C70.2034 6.19121 70.7163 6.07844 71.2214 6.15007C71.4306 6.18654 71.6414 6.20468 71.8527 6.22286C72.2608 6.25798 72.6707 6.29326 73.0743 6.46106C73.3538 6.57775 73.6478 6.65931 73.9447 6.74166C74.2347 6.82209 74.5274 6.90326 74.8118 7.01864C75.4026 7.259 75.9033 7.62799 76.4034 7.99643C76.7027 8.21703 77.0018 8.43743 77.3198 8.62991C77.5991 8.79849 77.7801 9.13126 77.9593 9.46066C78.0401 9.60924 78.1206 9.75712 78.2095 9.88895C78.149 10.0412 78.0894 10.193 78.0301 10.344L78.0272 10.3513ZM44.4678 70.2689L42.7079 67.6597L42.4493 67.7565C42.5215 67.98 42.5759 68.2209 42.6304 68.4618L42.6304 68.4619L42.6304 68.4619C42.754 69.009 42.8776 69.5561 43.2096 69.8999C43.3484 70.0429 43.4822 70.1951 43.6172 70.3487L43.6173 70.3488C44.0461 70.8367 44.4877 71.3391 45.1432 71.6082C45.5299 71.7669 45.8968 71.9798 46.2635 72.1926C47.1132 72.6857 47.9616 73.178 49.0504 72.993C49.5914 73.4886 50.2067 73.3754 50.7974 73.2667C50.9561 73.2375 51.1131 73.2086 51.2663 73.1919C52.2578 73.0843 53.2936 72.9315 53.7765 71.7939C54.0978 71.0369 54.4546 70.2951 54.8077 69.5611L54.8078 69.5608C54.962 69.2402 55.1156 68.921 55.2651 68.6026C54.9806 68.2367 54.7243 67.8497 54.4987 67.4448C54.1113 66.6031 53.3355 66.191 52.5849 65.9445C52.1461 65.8009 51.768 65.5125 51.5126 65.1266C51.0695 64.8884 50.631 64.8581 50.2056 64.8288C49.8298 64.8028 49.4641 64.7776 49.1144 64.6103C48.7199 64.4874 48.292 64.5508 47.9518 64.7826C47.7605 64.9277 47.5439 65.0433 47.3265 65.1593L47.3265 65.1593L47.3264 65.1593L47.3264 65.1594L47.3264 65.1594L47.3263 65.1594L47.3263 65.1594L47.3263 65.1594L47.3263 65.1595L47.3262 65.1595L47.3262 65.1595L47.3262 65.1595L47.3261 65.1595L47.3261 65.1596L47.3261 65.1596L47.3261 65.1596L47.326 65.1596L47.326 65.1596L47.326 65.1597L47.3259 65.1597L47.3259 65.1597C46.8333 65.4226 46.3362 65.6879 46.1179 66.3041C46.0846 66.3983 45.9165 66.4365 45.7356 66.4776L45.7355 66.4776C45.6105 66.506 45.4794 66.5358 45.3824 66.5864C45.3072 66.6255 45.2583 66.7149 45.1934 66.8333C45.1589 66.8962 45.12 66.9673 45.0702 67.0435C44.941 66.7814 44.7709 66.5415 44.5661 66.3331C44.3657 66.1873 43.9348 66.0522 43.8231 66.154C43.5077 66.4726 43.2433 66.838 43.0389 67.2376C42.874 67.5271 43.044 67.7405 43.2092 67.9478C43.2583 68.0094 43.3069 68.0704 43.3462 68.1327C43.4242 68.2566 43.5043 68.3792 43.5846 68.5019L43.5847 68.502C43.9426 69.0493 44.3012 69.5977 44.4678 70.2689ZM74.9677 65.0448L72.1892 64.4958C71.8608 64.0605 71.5627 63.6031 71.2973 63.1269C71.203 62.9364 71.3344 62.5937 71.4514 62.3656C71.4822 62.3054 71.633 62.3072 71.7834 62.309C71.849 62.3098 71.9144 62.3106 71.9698 62.3063C71.9611 62.2381 71.949 62.1683 71.9368 62.098C71.8654 61.6858 71.7906 61.2539 72.3641 61.011C72.4999 60.9662 72.6138 60.8722 72.6838 60.7474C72.8178 60.3075 72.9734 59.8447 73.423 59.6956C73.5764 59.6447 73.7307 59.589 73.8858 59.533C74.5452 59.295 75.2193 59.0517 75.904 59.1441C77.5759 59.3703 79.2503 59.7119 80.6767 60.7051C81.5397 61.284 82.3454 61.9446 83.0826 62.6779C83.4673 63.0643 83.5983 63.6362 83.4196 64.1492C83.2807 64.5143 83.1494 64.8826 83.0182 65.2509L83.0182 65.251L83.0181 65.2513L83.018 65.2514L83.0179 65.2516L83.0179 65.2518L83.0178 65.252L83.0177 65.2522L83.0176 65.2524L83.0176 65.2526L83.0175 65.2528L83.0174 65.2529L83.0173 65.2532L83.0173 65.2533L83.0172 65.2536L83.0172 65.2537L83.017 65.254L83.017 65.2541L83.0169 65.2544L83.0169 65.2545C82.8082 65.8401 82.5997 66.4254 82.3599 66.9976C82.2195 67.3356 81.9776 67.6209 81.6677 67.8143C79.8082 68.8461 77.9959 68.8588 76.1309 67.2126C76.042 67.1342 75.941 67.0622 75.8402 66.9903C75.6326 66.8424 75.4261 66.6952 75.329 66.4944C75.1565 66.0255 75.0354 65.5394 74.9677 65.0448ZM106.978 106.312L107.615 106.947C107.524 106.443 107.364 106.07 106.821 105.889C106.474 105.773 106.163 105.58 105.848 105.387L105.848 105.387C105.425 105.125 104.997 104.861 104.472 104.778C104.145 104.751 103.821 104.686 103.508 104.584C101.684 103.738 99.8238 103.821 97.935 104.159L97.8916 104.166L97.8609 104.171C97.643 104.208 97.3518 104.258 97.3186 104.368C97.2132 104.72 96.9717 104.777 96.7158 104.836C96.6547 104.851 96.5927 104.865 96.5315 104.884C96.3541 104.939 96.0954 105.066 96.0664 105.204C95.968 105.666 95.7182 106.032 95.4664 106.401L95.4663 106.401C95.412 106.481 95.3576 106.56 95.3046 106.641C95.2387 106.742 95.1243 106.945 95.4333 107.054C95.5849 107.109 95.7062 107.249 95.8444 107.408C95.9115 107.485 95.9826 107.567 96.0631 107.646C95.2713 107.748 94.6937 107.947 94.6903 108.668C94.8598 108.787 95.0195 108.914 95.1756 109.038L95.1756 109.038L95.1757 109.038L95.1757 109.038L95.1758 109.038L95.1759 109.038L95.1759 109.038L95.176 109.038L95.176 109.038L95.1761 109.039L95.1761 109.039L95.1762 109.039L95.1763 109.039L95.1763 109.039L95.1764 109.039L95.1764 109.039L95.1765 109.039L95.1765 109.039L95.1766 109.039C95.5105 109.305 95.8279 109.558 96.1883 109.685C96.5354 109.808 96.8684 109.977 97.2016 110.145C97.9142 110.505 98.6277 110.866 99.4821 110.785C101.049 111.595 102.703 111.487 104.364 111.378L104.364 111.378L104.365 111.378C104.505 111.369 104.645 111.36 104.784 111.351C105.345 111.376 105.854 111.034 106.045 110.506C106.054 110.483 106.064 110.459 106.074 110.434C106.156 110.223 106.255 109.967 106.676 110.029C106.848 110.016 107.005 109.927 107.105 109.787C107.204 109.646 107.235 109.468 107.19 109.3C107.045 108.876 107.11 108.437 107.175 107.996C107.259 107.428 107.344 106.858 106.978 106.312ZM142.731 0.768212L142.361 0.00556258C142.407 0.00700322 142.449 0.00463364 142.486 0.00253186C142.554 -0.00133006 142.606 -0.00429118 142.641 0.0189231C142.865 0.169442 143.093 0.313816 143.321 0.458168L143.322 0.458438C143.933 0.844872 144.543 1.23123 145.076 1.73533L145.153 1.80746C145.587 2.21578 146.001 2.60443 145.79 3.29627C145.732 3.48636 145.822 3.68424 145.912 3.88216C146.059 4.20288 146.205 4.52373 145.72 4.81182C145.751 5.60738 145.173 5.93871 144.613 6.25958L144.57 6.28439C144.726 6.72171 144.852 7.16901 144.948 7.62321C145.021 8.12265 144.514 8.62007 143.773 8.86061C143.704 8.88282 143.625 8.88842 143.547 8.89393C143.434 8.90195 143.324 8.90978 143.251 8.96855L143.226 8.98919C142.305 9.73481 142.303 9.7364 141.35 9.22863C140.857 8.99917 140.378 8.74212 139.914 8.45869C139.416 8.09456 138.787 7.96403 138.189 8.10099C137.245 8.28592 136.27 7.96735 135.613 7.25908C135.015 6.62736 134.905 5.75126 135.191 4.81217L135.698 4.98423L135.712 4.98903L135.811 5.02248L135.846 5.03449L135.856 5.03768L135.861 5.0396L135.886 5.04792C136.27 5.17802 136.687 5.31964 137.194 5.49128C137.068 5.30498 136.955 5.13846 136.851 4.98514L136.848 4.9808L136.845 4.97663L136.842 4.97263L136.84 4.96879L136.837 4.96509C136.619 4.64376 136.439 4.37994 136.266 4.11181C136.06 3.79234 136.08 3.76234 136.315 3.40938C136.375 3.31966 136.448 3.20908 136.536 3.06756C136.64 2.89873 136.801 2.7654 136.963 2.63205C137.276 2.3729 137.59 2.11365 137.483 1.59358L138.757 0.661726C139.541 0.0866342 140.315 -0.306841 141.298 0.340549C141.564 0.517387 141.901 0.586369 142.249 0.657712C142.409 0.690484 142.572 0.723754 142.731 0.768212ZM25.191 86.4861C25.7708 87.187 26.7443 87.4155 27.5687 87.0441L27.3006 85.7347C27.9445 86.2509 28.5608 86.5528 29.377 86.1231C29.3313 85.8153 29.3012 85.5055 29.2869 85.1948C29.2865 85.1133 29.3075 85.0261 29.3283 84.9397C29.3869 84.6964 29.4439 84.4597 29.0157 84.3734L29.775 83.9408C29.6938 83.4493 29.5858 82.7922 29.4847 82.1766C29.5728 82.1448 29.6593 82.1141 29.7445 82.0839L29.746 82.0834C30.018 81.9869 30.2764 81.8953 30.5284 81.7891C30.5736 81.7716 30.6066 81.5911 30.5698 81.5434C30.4895 81.4404 30.3371 81.2899 30.2568 81.3121C30.1764 81.3342 30.1004 81.3941 30.0268 81.452C29.9383 81.5217 29.8533 81.5886 29.7685 81.5834C29.6731 81.578 29.5824 81.4789 29.4589 81.3439C29.3947 81.2735 29.3215 81.1935 29.2341 81.1119L30.0112 81.2175C29.8228 80.9381 29.6377 80.6634 29.4552 80.3924L29.455 80.3922L29.4549 80.392C28.7847 79.397 28.1485 78.4526 27.5038 77.514C27.4649 77.4575 27.3924 77.4264 27.3184 77.3947C27.2609 77.3701 27.2024 77.345 27.158 77.3073C26.9129 77.0989 26.6287 76.9349 26.3501 76.7741C25.8007 76.457 25.2728 76.1523 25.108 75.5446C24.4424 75.0622 23.9544 75.3379 23.4955 75.5971C23.1946 75.7672 22.9062 75.9301 22.5885 75.8673C22.4891 76.0519 22.4056 76.2482 22.3243 76.4395C22.1492 76.8512 21.9839 77.2399 21.6902 77.4405C21.3683 77.6605 21.2455 77.9867 21.1251 78.3065C21.0024 78.6326 20.8822 78.952 20.5559 79.1457C20.4721 79.1953 20.4617 79.5483 20.5478 79.6717C20.7024 79.8936 20.7684 80.1434 20.8351 80.3962C20.9095 80.6781 20.9849 80.9637 21.1855 81.2182C21.9736 82.2142 22.6862 83.2678 23.3172 84.3701C23.6508 84.9564 24.117 85.4122 24.5799 85.8648C24.7884 86.0687 24.9963 86.2719 25.191 86.4861ZM153.956 83.1375L153.955 83.1377L153.955 83.138C153.417 83.4512 152.934 83.7325 153.076 84.4949C152.109 84.1624 151.725 83.7225 151.882 82.8343C151.921 82.6087 151.936 82.3818 151.951 82.1538L151.951 82.1537L151.951 82.1537L151.951 82.1536L151.951 82.1535L151.951 82.1535L151.951 82.1534L151.951 82.1533L151.951 82.1533L151.951 82.1532L151.951 82.1532L151.951 82.1531L151.951 82.153L151.951 82.153L151.951 82.1529L151.951 82.1528C151.977 81.7615 152.003 81.3669 152.155 80.9695C152.277 80.6511 152.238 80.2765 152.198 79.8959C152.169 79.6173 152.14 79.3356 152.173 79.0703C152.215 78.7362 152.357 78.4154 152.5 78.0945C152.564 77.9514 152.627 77.8083 152.682 77.664L153.35 77.7893L153.056 78.5779L153.217 78.6813L153.986 77.9643C154.031 77.9833 154.088 78.0162 154.152 78.0533C154.32 78.1516 154.539 78.2792 154.741 78.257C156.409 78.0709 157.922 78.6181 159.417 79.2195C159.708 79.3364 159.967 79.5288 160.228 79.722L160.228 79.7222C160.407 79.855 160.587 79.9881 160.777 80.0974L160.963 80.2037C161.964 80.7751 162.211 80.9159 162.645 81.8624C162.978 82.5867 163.328 83.3619 163.178 84.2375C163.093 84.5944 163.129 84.97 163.279 85.306C163.709 86.0015 163.412 86.3596 162.844 86.6914C162.684 86.7879 162.539 86.9097 162.417 87.0521C161.641 87.9494 161.525 87.989 160.558 87.5761C159.366 87.0672 158.355 86.2796 157.345 85.4935L157.345 85.4934C157.142 85.3352 156.939 85.1771 156.735 85.0214C156.136 84.5656 155.563 84.0762 154.997 83.5932L154.997 83.5926C154.747 83.3795 154.499 83.1677 154.251 82.9605C154.153 83.0226 154.054 83.0806 153.956 83.1375ZM129.458 80.0196C129.599 80.0078 129.741 79.9959 129.884 79.9853C129.739 79.4725 129.787 78.9453 130.278 78.9614C130.981 78.9865 130.833 78.6038 130.706 78.2904C130.681 78.2294 130.65 78.1687 130.62 78.1084C130.513 77.9005 130.41 77.6969 130.565 77.498C130.808 77.1881 130.798 76.8453 130.788 76.5069C130.784 76.3612 130.78 76.2163 130.796 76.0753C130.839 75.6957 130.766 75.1508 130.52 74.9225C130.082 74.5516 129.568 74.2817 129.015 74.132C128.692 74.034 128.35 74.0079 128.006 73.9818C127.78 73.9646 127.553 73.9474 127.331 73.9096C127.05 73.8619 126.77 73.8038 126.49 73.7458C125.695 73.581 124.9 73.4162 124.079 73.487C123.718 73.5183 123.354 73.506 122.989 73.4937L122.989 73.4937C122.305 73.4706 121.621 73.4476 120.962 73.7132C120.336 74.0193 119.625 74.1116 118.939 73.9761C118.177 73.8006 117.887 74.1019 117.568 74.9376C117.529 75.038 117.473 75.1506 117.417 75.2639C117.285 75.5304 117.151 75.8014 117.234 75.9303C117.449 76.265 117.26 76.3979 117.071 76.5303C116.897 76.6521 116.724 76.7735 116.867 77.0515C118.226 77.9112 119.83 78.3518 121.425 78.7902C121.608 78.8403 121.791 78.8904 121.972 78.9412C123.106 79.2568 124.268 79.4654 125.43 79.674L125.431 79.674C125.997 79.7756 126.563 79.8773 127.126 79.9912C127.906 80.1491 128.676 80.0849 129.458 80.0196ZM169.49 39.2199L169.489 39.2199L169.441 39.1958C168.306 38.6422 167.211 38.0089 166.165 37.3007C165.939 37.1459 165.701 37.0026 165.461 36.8584C164.602 36.3411 163.725 35.8129 163.314 34.7013C163.986 34.7134 164.502 35.0524 165.037 35.4038C165.524 35.7238 166.027 36.054 166.677 36.1569C166.119 35.5168 165.467 35.0708 164.789 34.6074C164.269 34.2517 163.734 33.8856 163.215 33.4135L164.304 33.3165C164.198 33.0793 164.088 32.8306 163.978 32.5829L164.978 31.5892C165.046 31.6196 165.121 31.6552 165.202 31.6935L165.202 31.6936L165.204 31.6943C165.404 31.7889 165.64 31.9003 165.884 31.9919C167.208 32.4909 167.219 32.488 168.724 32.1037L168.762 32.0942C168.938 32.0563 169.118 32.0379 169.299 32.0393C170.674 32.0019 172.015 32.1005 173.262 32.8068C173.831 33.1167 174.336 33.5346 174.748 34.037C174.839 34.1389 174.962 34.2078 175.096 34.2328C175.22 34.2481 175.327 34.3274 175.377 34.4416C175.428 34.5557 175.415 34.6879 175.343 34.7893C175.158 35.1624 175.128 35.563 175.099 35.9629C175.075 36.2862 175.051 36.6091 174.945 36.9167C174.872 37.1914 174.921 37.4851 175.08 37.7218C175.264 38.1043 174.89 39.0119 174.525 39.152C174.45 39.1807 174.358 39.1692 174.266 39.1577C174.083 39.1346 173.9 39.1115 173.842 39.4084C173.811 39.6488 173.795 39.891 173.795 40.1336C172.055 40.4875 170.758 39.8467 169.49 39.2199ZM114.888 38.8127L115.542 38.1926C115.519 37.8227 115.278 37.6039 115.035 37.3839C114.815 37.1849 114.594 36.9849 114.532 36.6711C114.46 36.5278 114.299 36.4527 114.144 36.4899C113.989 36.5271 113.88 36.6668 113.882 36.8269C113.871 36.8854 113.738 36.9201 113.606 36.9547C113.544 36.9706 113.483 36.9866 113.434 37.0048C113.421 36.9636 113.401 36.9133 113.382 36.863C113.339 36.7551 113.297 36.6472 113.321 36.6297C113.946 36.1705 113.392 35.7611 113.149 35.5909C112.947 35.4481 112.745 35.3013 112.544 35.1544C111.722 34.5547 110.896 33.9519 109.933 33.6031L109.92 33.5984C109.419 33.4174 108.782 33.1869 108.535 34.0273C108.522 34.07 108.416 34.1109 108.352 34.1119C107.649 34.1226 107.476 34.5142 107.6 35.1358C107.707 35.6785 107.387 35.6136 107.136 35.5629L107.093 35.5542L106.786 36.5316L107.759 37.3855C107.578 37.398 107.418 37.3388 107.261 37.2808C106.992 37.1815 106.733 37.0858 106.399 37.3591L106.412 37.5421L106.412 37.5425L106.412 37.5435L106.412 37.5447L106.412 37.545L106.412 37.546C106.425 37.7246 106.439 37.9236 106.451 38.1228C106.456 38.2195 106.474 38.3289 106.493 38.4383C106.534 38.6805 106.575 38.9231 106.473 39.0297C106.051 39.4709 106.346 39.6604 106.613 39.8317C106.648 39.854 106.682 39.876 106.714 39.8982C107.084 40.1539 107.466 40.392 107.847 40.6301C108.116 40.7976 108.384 40.965 108.649 41.1386C108.797 41.2576 108.932 41.3913 109.054 41.5375L108.9 41.733C107.988 41.1704 107.075 40.6076 106.051 39.9755C106.376 40.8371 106.936 41.193 107.55 41.5745C108.523 42.1747 109.569 42.6468 110.662 42.9792C112.044 43.4046 113.47 43.5699 114.655 42.4032C114.758 42.3167 114.87 42.2401 114.988 42.1745L115.562 39.1703L114.888 38.8127ZM93.6632 15.1951L94.502 15.361L94.3078 14.9866C94.1953 14.7696 94.0897 14.5659 93.9779 14.3509C94.1046 14.2201 94.2311 14.0861 94.3585 13.951C94.6602 13.6311 94.9674 13.3052 95.2971 13.0037C95.5841 12.7422 95.9084 12.5251 96.2595 12.3593C96.3709 12.3069 96.4557 12.3784 96.5517 12.4594C96.6841 12.5709 96.8377 12.7005 97.1117 12.5489C97.3645 12.4085 97.7885 12.6205 98.1747 12.8137L98.1751 12.8139L98.1757 12.8142L98.1769 12.8148C98.2562 12.8544 98.3339 12.8933 98.4082 12.9281C98.5224 12.9817 98.6161 13.0978 98.7109 13.2152C98.911 13.4631 99.1161 13.7171 99.529 13.403L100.394 14.5431C100.413 14.5685 100.435 14.5918 100.458 14.6151L100.476 14.635L100.487 14.6463L103.502 15.2419C103.69 15.0956 103.888 14.9644 104.097 14.8497C104.429 14.6957 104.954 14.7767 104.925 15.0662C104.891 15.4105 105.107 15.5336 105.312 15.6505C105.489 15.752 105.659 15.8488 105.651 16.0813C104.906 16.9939 104.632 17.2235 103.782 17.6025C104.252 17.8886 104.661 18.138 105.176 18.4511C105.163 18.5104 105.157 18.5869 105.151 18.6677C105.136 18.8591 105.119 19.0753 105.008 19.1493C104.795 19.2906 104.588 19.4454 104.38 19.6003C103.612 20.1739 102.839 20.7508 101.763 20.6621C101.391 20.6711 101.018 20.6393 100.653 20.5673C99.9778 20.3536 99.3175 20.0915 98.6579 19.8297L98.447 19.746L98.3221 19.6967C98.1015 19.6096 97.8861 19.5096 97.6706 19.4096C97.514 19.3369 97.3573 19.2642 97.1987 19.1964C96.9779 19.1019 96.7914 18.944 96.6049 18.7862C96.2982 18.5266 95.9917 18.2672 95.5335 18.2899C95.3176 17.8391 94.9308 17.6144 94.5355 17.3847L94.5352 17.3845C94.4141 17.3141 94.2921 17.2432 94.174 17.1652C93.8389 16.9769 93.5947 16.6596 93.4982 16.2874C93.4017 15.9151 93.4614 15.5204 93.6632 15.1951ZM45.3219 21.5749L44.2062 22.3275C43.4229 22.739 42.7453 23.3261 42.226 24.0432C42.0025 24.3485 41.8676 24.7059 41.7315 25.066C41.5933 25.432 41.4539 25.8009 41.2195 26.1209C41.1665 26.193 41.2252 26.4075 41.2997 26.5024C41.5273 26.7976 41.7754 27.0762 42.0424 27.3361C42.5445 27.8177 43.1726 28.0418 43.8026 28.2666C43.9919 28.3341 44.1814 28.4017 44.3678 28.4764C45.958 29.113 47.5061 29.3508 49.0117 28.2924C49.1192 28.2062 49.2547 28.1626 49.3925 28.1698C49.8977 28.2879 50.037 27.9854 50.1757 27.6841C50.2515 27.5195 50.3271 27.3553 50.4622 27.2603C50.4389 26.5258 50.7805 25.9099 51.1135 25.3093C51.2316 25.0964 51.3486 24.8854 51.4479 24.6717C51.7858 23.9447 51.7041 23.4743 51.2437 23.0527C51.1522 22.9689 51.0612 22.8834 50.97 22.7977C50.2559 22.1266 49.5271 21.4417 48.4286 21.4344C48.2813 21.433 48.1335 21.3907 47.9854 21.3484C47.6751 21.2597 47.3633 21.1706 47.0521 21.4554C46.9412 21.5185 46.8052 21.5193 46.6928 21.4575C46.2199 20.9497 45.8324 21.2199 45.4427 21.4916C45.4025 21.5197 45.3623 21.5477 45.3219 21.5749ZM82.0556 82.6208C82.4211 82.7815 82.6899 82.8997 83.2121 83.1289C83.1237 82.951 83.0582 82.818 83.0065 82.7128L83.0062 82.7122L83.0059 82.7117C82.9235 82.5444 82.8759 82.4475 82.8255 82.3516L82.8246 82.3498C82.7002 82.113 82.6329 81.985 82.6509 81.8704C82.6722 81.7355 82.8116 81.6192 83.115 81.366L83.1166 81.3647C83.1346 81.3497 83.156 81.3341 83.1779 81.3181C83.2419 81.2713 83.31 81.2216 83.3085 81.1761C83.2669 80.6208 83.6255 80.1169 84.162 79.9765C84.7542 79.7594 85.384 79.6621 86.0152 79.6901C88.3692 79.9498 90.3979 81.058 92.3 82.4025C92.5223 82.5594 92.6689 82.8239 92.8147 83.0867C92.8817 83.2075 92.9485 83.328 93.0224 83.4375L92.5263 83.6973C92.8507 84.113 92.9705 84.5019 92.5336 84.9472C92.3935 85.1391 92.3576 85.3885 92.4375 85.6134C92.6178 85.9462 92.4402 86.1184 92.2661 86.2874C92.1474 86.4025 92.0302 86.5161 92.0291 86.678C91.6971 86.5302 91.5071 86.7253 91.3158 86.9217C91.1491 87.0928 90.9814 87.265 90.7179 87.2118C90.5276 87.1732 90.3291 87.1536 90.1312 87.1341C89.7641 87.0978 89.3991 87.0617 89.0927 86.9052C88.037 86.3986 87.0383 85.7796 86.114 85.0589C85.7411 84.706 85.2425 84.5186 84.7316 84.5395C83.9383 84.613 83.1407 84.4329 82.4529 84.025L82.4297 84.0108C81.8613 83.6637 81.8571 83.6611 82.0556 82.6208ZM94.88 52.7528C94.9557 52.9133 95.0521 53.0634 95.1665 53.1991C95.6125 53.3687 96.0562 53.4829 96.491 53.5948C96.6978 53.6481 96.9025 53.7008 97.1045 53.7587C98.3554 54.1217 99.6413 54.4921 101.021 54.202C101.942 54.0078 102.554 53.4685 102.59 52.7057C102.6 52.4872 102.685 52.2766 102.769 52.067C102.92 51.6921 103.069 51.3203 102.791 50.9113C103.388 50.3712 102.904 49.8971 102.567 49.6179C101.626 48.837 100.647 48.0648 99.4272 47.754C99.2027 47.6967 98.9674 47.6847 98.7319 47.6726L98.7317 47.6726C98.514 47.6615 98.296 47.6503 98.0862 47.6034C97.7391 47.5259 97.4011 47.4075 97.0361 47.2797L97.036 47.2797C96.8703 47.2217 96.6992 47.1618 96.5192 47.1028L94.9758 48.6459L95.0673 48.8446L95.1285 48.9776L95.1296 48.98C95.2074 49.149 95.2862 49.3203 95.3823 49.5277L93.2957 49.3312C93.2625 49.4822 93.243 49.6437 93.2247 49.796C93.1874 50.1058 93.1548 50.3772 93.0202 50.4437C92.8018 50.5519 92.6738 50.7203 92.5458 50.8887C92.4201 51.054 92.2944 51.2193 92.0834 51.3278C92.2842 51.3975 92.4729 51.3064 92.6547 51.2187C92.9364 51.0827 93.2019 50.9545 93.4711 51.4444L92.7423 51.581C92.9398 52.2838 93.4672 52.2545 94.0151 52.224L94.0154 52.224C94.0692 52.221 94.1232 52.218 94.1771 52.2157C93.972 52.0452 93.7678 51.8736 93.5145 51.6612C93.6526 51.5899 93.8019 51.5427 93.9561 51.5216C94.1436 51.533 94.3254 51.5923 94.484 51.694C94.525 51.7236 94.5291 51.798 94.5334 51.8768C94.5374 51.949 94.5415 52.0249 94.5744 52.0736C94.612 52.128 94.678 52.1653 94.7428 52.2019C94.8143 52.2422 94.8844 52.2817 94.9131 52.3425C94.9391 52.3971 94.9189 52.4724 94.8985 52.5485C94.8789 52.6217 94.8591 52.6957 94.88 52.7528ZM125.72 55.5351L126.458 55.3366C126.109 54.7675 125.585 54.6293 125.053 54.4893C124.602 54.3703 124.145 54.2498 123.786 53.8623C124.005 53.8008 124.229 53.7641 124.456 53.7527C124.804 53.7999 125.15 53.865 125.492 53.9479C125.219 53.5956 124.831 53.3512 124.397 53.2584C124.461 52.5845 124.489 52.2884 124.633 52.0687C124.746 51.8967 124.93 51.7715 125.259 51.5482C125.48 51.6057 125.705 51.6805 125.931 51.7561L125.931 51.7561C126.451 51.9295 126.982 52.1065 127.503 52.0842C128.005 52.063 128.419 52.2386 128.829 52.413C129.093 52.5251 129.356 52.6368 129.641 52.6952C130.343 52.8892 131.014 53.1874 131.629 53.5798C132 53.762 132.309 54.0493 132.518 54.4057C132.72 54.8384 132.942 55.5249 132.742 55.8214C132.513 56.1619 132.598 56.3881 132.686 56.6201C132.724 56.7208 132.762 56.8227 132.776 56.9354C132.835 57.4446 132.817 57.992 132.382 58.4032C132.29 58.4903 132.206 58.6049 132.123 58.7178L132.123 58.718C131.978 58.9161 131.837 59.109 131.662 59.1384C130.991 59.2772 130.298 59.2848 129.621 59.1609C128.395 58.861 127.189 58.4824 126.01 58.0273C125.813 57.9542 125.667 57.7441 125.494 57.4969L125.494 57.4968L125.494 57.4967C125.406 57.371 125.312 57.2358 125.201 57.1041L125.905 57.1661C125.567 56.7942 125.628 56.4148 125.687 56.0566C125.716 55.8762 125.744 55.7011 125.72 55.5351ZM148.565 104.5L149.449 104.421C149.107 104.057 148.74 103.716 148.351 103.402C148.179 103.284 147.802 103.209 147.689 103.309C147.441 103.528 147.174 103.488 146.925 103.45C146.764 103.425 146.611 103.402 146.475 103.451C146.133 103.575 145.845 103.506 145.559 103.437C145.447 103.41 145.336 103.384 145.221 103.368C144.989 103.338 144.755 103.275 144.523 103.213C144.129 103.108 143.738 103.004 143.367 103.056C142.998 103.108 142.663 103.045 142.333 102.982C142.12 102.942 141.908 102.902 141.69 102.894C141.305 102.879 140.919 102.872 140.535 102.864L140.535 102.864L140.535 102.864L140.534 102.864L140.534 102.864L140.533 102.864L140.532 102.864L140.333 102.86C140.23 102.858 140.127 102.856 140.024 102.853L138.715 103.736C139.142 104.09 138.913 104.245 138.682 104.401C138.501 104.524 138.319 104.647 138.449 104.866C138.547 105.042 138.744 105.069 138.943 105.095C139.22 105.132 139.501 105.17 139.524 105.613C139.422 105.6 139.319 105.58 139.216 105.559C138.808 105.476 138.413 105.397 138.194 105.881C138.701 106.561 139.441 106.687 140.182 106.813L140.288 106.832C140.433 106.848 140.576 106.877 140.716 106.919C142.22 107.48 143.763 107.928 145.332 108.259C145.515 108.297 145.689 108.378 145.864 108.46C146.026 108.536 146.187 108.612 146.357 108.653L146.427 108.67C147.052 108.822 147.698 108.978 148.26 108.472C148.117 108.191 147.854 108.081 147.595 107.973C147.283 107.842 146.978 107.715 146.903 107.295L148.957 107.701L149.345 106.894L147.885 105.952C148.927 105.767 148.958 105.671 148.565 104.5ZM86.2861 28.6898C86.435 28.6033 86.5493 28.4983 86.6581 28.3985C86.8671 28.2067 87.0556 28.0337 87.4282 28.0469L87.0555 28.5432C87.1832 28.6491 87.3119 28.754 87.4407 28.859L87.4409 28.8591L87.4411 28.8593L87.4414 28.8595L87.4416 28.8597C87.7883 29.1423 88.1353 29.4251 88.4623 29.7271C88.5778 29.8336 88.6804 30.1281 88.6175 30.2246C88.4147 30.5369 88.4019 30.8801 88.3892 31.2199C88.3803 31.4602 88.3714 31.6988 88.2953 31.9235C88.1825 32.171 88.0086 32.3853 87.7901 32.5463C87.7394 32.5894 87.6534 32.5909 87.5675 32.5924C87.4822 32.5939 87.3969 32.5954 87.3467 32.6377C87.2336 32.7806 87.1476 32.9431 87.0931 33.1174L87.0423 33.0742C86.3876 32.5179 86.3537 32.4892 85.3731 32.7531C84.9995 32.8538 84.6929 32.7318 84.3821 32.608C84.1925 32.5326 84.0013 32.4564 83.7923 32.4299L83.8603 32.861L83.8976 33.0968C83.8301 33.0816 83.7547 33.0736 83.6809 33.0658C83.5269 33.0496 83.3801 33.0341 83.3277 32.9556C82.357 31.5026 82.3335 31.4705 81.0906 31.0461C81.1326 31.5908 81.499 31.7715 81.8869 31.9628C82.1439 32.0895 82.4104 32.2209 82.5981 32.4659C82.5347 32.4957 82.4655 32.5367 82.3983 32.5766C82.2592 32.6592 82.1281 32.7369 82.073 32.6999C81.9519 32.619 81.8279 32.5414 81.7041 32.4638C80.9911 32.0175 80.2842 31.575 80.1738 30.5259C80.1688 30.4776 80.1632 30.4328 80.158 30.3909C80.1219 30.1003 80.1031 29.9483 80.3936 29.7454C80.5985 29.5689 80.7539 29.3419 80.8446 29.0866C81.0379 28.6427 81.2134 28.191 81.397 27.7184L81.397 27.7183L81.3973 27.7175C81.4731 27.5224 81.5504 27.3236 81.6308 27.1204L82.031 27.286C82.2823 27.2903 82.4108 27.1063 82.5209 26.9486C82.6716 26.7329 82.7878 26.5666 83.1364 26.9995C83.2026 27.0815 83.2638 27.0017 83.3369 26.9065C83.4533 26.7547 83.5999 26.5636 83.8447 26.9265C83.9515 27.0848 84.2588 27.1081 84.5544 27.1306L84.5544 27.1306L84.5545 27.1306C84.6854 27.1405 84.814 27.1503 84.9219 27.1715C84.9539 27.308 84.9847 27.441 85.0152 27.5723L85.0881 27.8859C85.1756 27.8876 85.2631 27.8891 85.3505 27.8904L85.3141 27.5646L85.2513 27.0042C85.5824 27.1633 85.8142 27.2745 86.0478 27.3866L86.3396 27.5267C86.3235 27.8853 86.3049 28.2876 86.2861 28.6898ZM68.7829 91.9715L70.1632 92.4136C70.2405 92.2222 70.2958 92.0224 70.328 91.8182C70.3018 91.6405 70.2653 91.4645 70.2187 91.2909L70.2143 91.2629L70.2143 91.2628C70.1884 91.0982 70.1471 90.8365 70.188 90.8213C70.5115 90.7015 70.5885 90.4046 70.6653 90.1084C70.7476 89.791 70.8297 89.4744 71.215 89.3779C71.1946 89.2561 71.1677 89.1353 71.1345 89.0163C70.8179 89.0647 70.7453 88.8598 70.6736 88.6571C70.6359 88.5505 70.5984 88.4446 70.5258 88.3764C70.2133 88.0826 69.8423 87.93 69.4755 87.7792C69.2162 87.6726 68.959 87.5668 68.726 87.4126C67.7225 86.7392 66.5791 86.3058 65.3844 86.1458L63.1494 88.1615L63.9479 89.3455C63.7136 89.4052 63.4814 89.3441 63.2562 89.2848C62.933 89.1998 62.6243 89.1186 62.3445 89.4038C62.6505 90.1702 63.1079 90.8013 63.8218 91.0682C64.4126 91.2891 64.9815 91.5568 65.5498 91.8243C66.0979 92.0822 66.6453 92.3398 67.2111 92.5548C67.743 92.7881 68.3264 92.876 68.9017 92.8097L68.7829 91.9715ZM106.852 89.0655L108.081 89.8556L107.905 89.1131C107.913 89.1128 107.922 89.112 107.932 89.111C107.948 89.1091 107.966 89.1062 107.984 89.1034C108.041 89.0941 108.098 89.0849 108.126 89.1089C108.507 89.4481 108.969 89.683 109.466 89.7905C109.776 89.8756 110.072 90.0029 110.347 90.169C110.814 90.4598 111.394 90.499 111.893 90.2733C111.864 90.063 111.833 89.846 111.819 89.7452L112.819 89.797C112.859 89.8567 112.893 89.9014 112.918 89.9352C112.957 89.9868 112.977 90.0127 112.971 90.0274C112.874 90.2572 112.771 90.484 112.673 90.6993L112.596 90.8678C112.879 91.1598 113.136 91.4251 113.52 91.8218L112.395 91.9779L112.492 92.6899L112.574 93.2946L112.034 93.7562L112.399 94.2965C112.101 95.1637 111.562 95.4373 110.71 95.3094C110.358 95.2565 110.003 95.2225 109.643 95.1879L109.643 95.1879C109.055 95.1314 108.453 95.0736 107.828 94.9302L108.238 93.9339C107.761 93.5309 107.205 93.2334 106.607 93.0609C106.165 92.9241 105.758 92.6743 105.357 92.4288L105.357 92.4286C105.183 92.3221 105.011 92.2163 104.837 92.1209C104.883 91.5846 105.204 91.5579 105.543 91.5297C105.633 91.5222 105.724 91.5147 105.811 91.4976C105.789 91.455 105.771 91.4087 105.753 91.3634C105.715 91.2679 105.679 91.1768 105.612 91.1348C105 90.7494 104.922 90.4081 105.42 90.0377C105.744 89.7969 106.082 89.5746 106.414 89.3555C106.562 89.2587 106.708 89.1624 106.852 89.0655ZM76.8498 117.542L75.6986 117.075L75.6817 117.116L75.6553 117.179C75.5318 117.473 75.4232 117.732 75.6289 118.111C76.0967 118.973 76.876 119.441 77.6526 119.908C77.8525 120.028 78.0522 120.148 78.2464 120.274C78.6358 120.528 79.3192 120.236 79.7279 119.806C79.8952 119.639 80.0833 119.493 80.2877 119.374C80.8116 119.093 81.019 118.447 80.7576 117.909C80.5999 117.512 80.5277 117.225 80.8178 116.88C81.0944 116.594 81.093 116.138 80.8146 115.851C80.7898 115.82 80.7643 115.788 80.7386 115.756C80.5298 115.497 80.3149 115.231 80.4429 114.819C80.4221 114.624 80.3043 114.452 80.1299 114.363C80.0414 114.329 79.9184 114.355 79.8032 114.38C79.6817 114.405 79.5689 114.429 79.5144 114.379C79.4464 114.316 79.4402 114.193 79.4338 114.066C79.4279 113.949 79.4219 113.828 79.3676 113.746C78.9885 113.173 78.3655 113.158 77.8061 113.286C77.6562 113.32 77.5223 113.406 77.3852 113.493C77.1783 113.626 76.964 113.763 76.6759 113.735C76.6495 113.732 76.6125 113.892 76.5688 114.08L76.5688 114.08L76.5688 114.08C76.534 114.23 76.495 114.398 76.4539 114.516C76.3858 114.644 76.3011 114.762 76.2021 114.868L76.8723 115.861C76.5169 115.652 76.3381 115.547 76.1913 115.461L75.4885 115.935C75.6091 116.049 75.7264 116.158 75.8408 116.265L75.8409 116.265C76.1493 116.553 76.4366 116.821 76.7126 117.101C76.7634 117.152 76.7808 117.237 76.8032 117.346C76.8153 117.405 76.8288 117.471 76.8498 117.542ZM99.6986 69.0552L100.897 68.6754C100.796 68.1735 100.591 67.7647 100.01 67.647C100.106 67.2482 100.383 67.2241 100.669 67.1991C100.867 67.182 101.069 67.1644 101.22 67.0244L100.902 66.2928C100.947 66.0068 101.154 65.9777 101.372 65.9469C101.588 65.9165 101.815 65.8845 101.907 65.6016C102.023 65.2501 102.27 65.3303 102.535 65.4159C102.71 65.4724 102.892 65.5312 103.048 65.4704C103.311 65.4139 103.586 65.4387 103.836 65.5416C104.184 65.6479 104.492 65.8402 104.802 66.0334C105.233 66.3018 105.666 66.5721 106.213 66.6166C106.364 66.6288 106.5 66.835 106.654 67.0702C106.732 67.1878 106.814 67.3127 106.905 67.4242C106.442 67.487 106.397 67.8094 106.352 68.1335C106.31 68.4412 106.267 68.7504 105.865 68.84C105.871 68.9792 105.928 69.1187 105.987 69.2612C106.124 69.5915 106.267 69.9378 105.787 70.3333L104.985 69.9457L105.045 70.3432L105.107 70.7557C104.777 71.1142 104.371 70.9208 104.085 70.7842L104.045 70.7655C103.114 70.3198 102.085 70.1188 101.058 70.1815C100.407 70.2157 99.8477 69.9335 99.6986 69.0552ZM71.3082 42.9572L72.0262 40.7129C71.9161 40.61 71.8057 40.4873 71.6913 40.36C71.424 40.0629 71.1345 39.741 70.7747 39.589C69.8635 39.1831 68.8957 38.921 67.906 38.8123C66.7648 38.7156 65.5602 38.8138 65.2214 40.3127C65.1996 40.4088 65.1157 40.4904 65.0211 40.5825C64.9718 40.6305 64.9197 40.6812 64.8718 40.7384C64.9665 40.8328 65.0511 40.9352 65.1317 41.0327C65.2963 41.2318 65.4442 41.4107 65.6269 41.461C65.7497 41.4949 65.8732 41.5265 65.9964 41.558C66.7302 41.7459 67.4534 41.9311 67.9681 42.5815C68.5324 42.6326 68.9937 42.9136 69.4515 43.1924C69.7262 43.3597 69.9996 43.5262 70.2932 43.6418L71.3082 42.9572Z" fill="#F5D3AB"/>
</svg>
